<svg width="1861" height="2171" viewBox="0 0 1861 2171" fill="none" xmlns="http://www.w3.org/2000/svg">
<g clip-path="url(#clip0_42_371)">
<path d="M1800.85 800.173H58.555C43.0307 800.155 28.1474 793.979 17.1701 783C6.19276 772.021 0.0178645 757.135 -6.10352e-05 741.608V58.5648C0.0178645 43.0379 6.19276 28.1522 17.1701 17.173C28.1474 6.19386 43.0307 0.0179285 58.555 0H1800.85C1816.38 0.0179285 1831.26 6.19386 1842.24 17.173C1853.21 28.1522 1859.39 43.0379 1859.41 58.5648V741.608C1859.39 757.135 1853.21 772.021 1842.24 783C1831.26 793.979 1816.38 800.155 1800.85 800.173Z" fill="#3A506B"/>
<path d="M1394.51 762.821H335.118C256.173 762.732 180.488 731.327 124.666 675.496C68.8436 619.664 37.4437 543.966 37.3546 465.008V335.197C37.4436 256.239 68.8434 180.541 124.666 124.709C180.488 68.8771 256.173 37.4714 335.118 37.3818H1524.3C1603.24 37.4714 1678.93 68.8771 1734.75 124.709C1790.57 180.541 1821.97 256.239 1822.06 335.197C1821.93 448.571 1776.85 557.264 1696.69 637.431C1616.54 717.599 1507.86 762.693 1394.51 762.821Z" fill="#D0FFFF"/>
<path d="M1121.23 232.915H420.958C416.953 232.915 413.112 231.323 410.28 228.491C407.448 225.658 405.857 221.817 405.857 217.811C405.857 213.805 407.448 209.963 410.28 207.131C413.112 204.298 416.953 202.707 420.958 202.707H1121.23C1125.23 202.707 1129.07 204.298 1131.91 207.131C1134.74 209.963 1136.33 213.805 1136.33 217.811C1136.33 221.817 1134.74 225.658 1131.91 228.491C1129.07 231.323 1125.23 232.915 1121.23 232.915Z" fill="#5BC0BE"/>
<path d="M1475.72 394.063H420.958C416.953 394.063 413.112 392.472 410.28 389.639C407.448 386.807 405.857 382.965 405.857 378.959C405.857 374.954 407.448 371.112 410.28 368.279C413.112 365.447 416.953 363.855 420.958 363.855H1475.72C1479.72 363.855 1483.56 365.447 1486.4 368.279C1489.23 371.112 1490.82 374.954 1490.82 378.959C1490.82 382.965 1489.23 386.807 1486.4 389.639C1483.56 392.472 1479.72 394.063 1475.72 394.063Z" fill="#5BC0BE"/>
<path d="M1475.72 555.212H420.958C416.953 555.212 413.112 553.62 410.28 550.788C407.448 547.955 405.857 544.114 405.857 540.108C405.857 536.102 407.448 532.26 410.28 529.428C413.112 526.595 416.953 525.004 420.958 525.004H1475.72C1479.72 525.004 1483.56 526.595 1486.4 529.428C1489.23 532.26 1490.82 536.102 1490.82 540.108C1490.82 544.114 1489.23 547.955 1486.4 550.788C1483.56 553.62 1479.72 555.212 1475.72 555.212Z" fill="#5BC0BE"/>
<path d="M1475.72 555.212H420.958C416.953 555.212 413.112 553.62 410.28 550.788C407.448 547.955 405.857 544.114 405.857 540.108C405.857 536.102 407.448 532.26 410.28 529.428C413.112 526.595 416.953 525.004 420.958 525.004H1475.72C1479.72 525.004 1483.56 526.595 1486.4 529.428C1489.23 532.26 1490.82 536.102 1490.82 540.108C1490.82 544.114 1489.23 547.955 1486.4 550.788C1483.56 553.62 1479.72 555.212 1475.72 555.212Z" fill="#5BC0BE"/>
<path d="M1047.33 412.559C1047.5 417.108 1048.66 421.566 1050.74 425.617C1052.82 429.668 1055.76 433.215 1059.35 436.007C1062.95 438.799 1067.11 440.769 1071.55 441.778C1075.99 442.786 1080.59 442.809 1085.04 441.845L1142.63 536.339L1167.14 484.318L1108.7 402.56C1106.58 395.193 1101.84 388.858 1095.36 384.755C1088.89 380.652 1081.14 379.067 1073.57 380.299C1066.01 381.531 1059.16 385.496 1054.32 391.442C1049.49 397.387 1047 404.901 1047.33 412.559Z" fill="#FFB6B6"/>
<path d="M1479.51 683.372L1281.04 575.701L1218.44 516.958C1218.44 516.958 1191.23 509.671 1201.25 500.82C1211.26 491.97 1182.72 483.435 1182.72 483.435L1149.11 451.9L1101.36 485.694L1115.18 507.121C1115.18 507.121 1114.23 542.592 1133.66 535.768C1153.08 528.944 1148.23 558.362 1148.23 558.362L1264.19 738.153L1479.51 683.372Z" fill="#1C2541"/>
<path d="M893.655 581.929C1000.72 581.929 1087.51 495.122 1087.51 388.04C1087.51 280.958 1000.72 194.151 893.655 194.151C786.592 194.151 699.799 280.958 699.799 388.04C699.799 495.122 786.592 581.929 893.655 581.929Z" fill="#66FFFF"/>
<path d="M1480.13 2095.62H1439.82L1420.64 1940.12H1480.13V2095.62Z" fill="#FFB6B6"/>
<path d="M1501.4 2165.47H1472.5L1467.34 2138.17L1454.12 2165.47H1377.46C1373.78 2165.47 1370.2 2164.29 1367.24 2162.11C1364.28 2159.94 1362.1 2156.87 1361 2153.36C1359.91 2149.85 1359.96 2146.08 1361.16 2142.61C1362.36 2139.14 1364.64 2136.13 1367.66 2134.05L1428.89 2091.76V2064.16L1493.28 2068.01L1501.4 2165.47Z" fill="#0B132B"/>
<path d="M1157.75 2095.62H1117.44L1098.26 1940.12H1157.75V2095.62Z" fill="#FFB6B6"/>
<path d="M1179.02 2165.47H1150.11L1144.95 2138.17L1131.74 2165.47H1055.07C1051.4 2165.47 1047.82 2164.29 1044.86 2162.11C1041.9 2159.94 1039.71 2156.87 1038.62 2153.36C1037.53 2149.85 1037.58 2146.08 1038.78 2142.61C1039.98 2139.14 1042.26 2136.13 1045.28 2134.05L1106.5 2091.76V2064.16L1170.9 2068.01L1179.02 2165.47Z" fill="#0B132B"/>
<path d="M1437.36 919.593H1233.91V1151.25H1437.36V919.593Z" fill="#FFB6B6"/>
<path d="M1238.61 1033.85L1204.18 1074.55L1144.71 1199.77L994.865 1556.36L963.175 1631.77L988.767 1765.08C988.767 1765.08 992.909 1859.01 992.909 1874.38C992.909 1905.68 1019.09 1923.03 1019.09 1923.03L1038.29 2023.08L1224.52 2015.25C1224.52 2015.25 1218.03 1904.97 1179.02 1877.15C1140.02 1849.34 1122.09 1704.36 1122.09 1704.36L1100.89 1640.04L1307.47 1395.13L1308.8 1480.74L1309.45 1522.17C1309.45 1522.17 1279.19 1791.68 1314.46 1843.99C1349.72 1896.29 1315.18 1890.14 1315.18 1890.14L1316.86 1998.03L1537.52 1999.6L1488.83 1688.97C1488.83 1688.97 1464.12 1669.45 1477.34 1649.83C1490.57 1630.2 1464.52 1606.17 1464.52 1606.17L1476.2 1363.67C1476.2 1363.67 1463.27 1321.79 1478.48 1316.34C1493.7 1310.9 1480.48 1274.88 1480.48 1274.88L1482.74 1227.94L1437.36 1082.38L1238.61 1033.85Z" fill="#0B132B"/>
<path d="M1440.49 919.593L1462.4 853.854L1478.05 831.941L1484.31 769.332C1484.31 600.288 1446.61 628.437 1446.61 628.437L1424.84 568.983L1324.68 565.853L1260.52 626.897L1207.31 645.679L1186.47 753.962L1224.52 869.506L1233.91 932.115C1216 965.188 1217.52 949.544 1232.35 974.376L1409.19 1022.9C1471.79 1044.81 1471.79 988.463 1459.23 974.376C1446.68 960.289 1440.49 919.593 1440.49 919.593Z" fill="#1C2541"/>
<path d="M1361.82 544.839C1413.1 544.839 1454.67 503.262 1454.67 451.974C1454.67 400.686 1413.1 359.109 1361.82 359.109C1310.54 359.109 1268.97 400.686 1268.97 451.974C1268.97 503.262 1310.54 544.839 1361.82 544.839Z" fill="#FFB6B6"/>
<path d="M1485.78 575.933C1486.65 577.409 1487.18 579.064 1487.33 580.774C1487.48 582.484 1487.24 584.204 1486.62 585.808C1486.01 587.412 1485.05 588.857 1483.8 590.036C1482.56 591.215 1481.06 592.098 1479.42 592.618C1466.97 596.75 1459.3 608.802 1450.35 618.444C1441.43 628.055 1427.06 636.037 1415.67 629.495C1404.31 622.983 1403.52 606.361 1394.01 597.345C1384.74 588.58 1369.34 589.644 1358.45 596.312L1358.13 596.512C1356.25 597.738 1354.05 598.386 1351.8 598.376C1349.56 598.366 1347.37 597.698 1345.5 596.455C1343.63 595.212 1342.17 593.448 1341.29 591.382C1340.41 589.316 1340.16 587.038 1340.56 584.83C1344.38 564.53 1348.19 544.232 1352.01 523.936C1341.99 548.073 1327.44 570.069 1309.16 588.736C1304.12 594.55 1297.74 599.043 1290.56 601.822C1284.05 603.888 1277.73 597.157 1271.41 598.378C1287.12 584.635 1339.95 496.544 1330.5 437.661C1319.39 438.913 1308.28 440.165 1297.17 441.417C1295.97 436.158 1293.4 431.31 1289.72 427.362C1290.17 432.48 1289.52 437.636 1287.81 442.482C1283.18 443.014 1278.51 443.515 1273.88 444.047C1267.43 444.767 1260.42 445.393 1254.88 442.012C1245.65 436.378 1245.37 423.042 1248 412.523C1255.7 381.939 1279.05 356.363 1307.62 342.965C1336.2 329.598 1344.65 359.368 1374.76 349.852C1434.23 331.069 1479.8 363.188 1495.86 422.792C1509.35 472.785 1499.55 525.846 1485.78 575.933Z" fill="#0B132B"/>
<path d="M1742.83 2167.49H1629.14L1628.65 2166.6C1627.19 2163.96 1625.79 2161.17 1624.48 2158.3C1612.77 2133.22 1607.82 2104.54 1603.45 2079.24L1600.16 2060.17C1599.76 2057.86 1600.06 2055.48 1601.02 2053.34C1601.98 2051.2 1603.56 2049.4 1605.55 2048.16C1607.54 2046.93 1609.85 2046.31 1612.2 2046.4C1614.54 2046.48 1616.8 2047.27 1618.7 2048.65C1635.97 2061.22 1653.26 2073.78 1670.55 2086.33C1677.1 2091.1 1684.58 2096.61 1691.74 2102.57C1692.43 2099.22 1693.15 2095.85 1693.87 2092.53C1694.37 2090.24 1695.54 2088.15 1697.23 2086.53C1698.93 2084.9 1701.07 2083.82 1703.38 2083.42C1705.69 2083.02 1708.07 2083.32 1710.21 2084.28C1712.35 2085.24 1714.15 2086.82 1715.39 2088.81L1728.69 2110.19C1738.39 2125.79 1746.96 2141.18 1745.21 2157.77C1745.22 2157.97 1745.21 2158.17 1745.17 2158.37C1744.82 2161.09 1744.17 2163.77 1743.24 2166.36L1742.83 2167.49Z" fill="#D0FFFF"/>
<path d="M1856.94 2169.95L776.568 2171C775.489 2170.99 774.457 2170.56 773.696 2169.8C772.936 2169.03 772.509 2168 772.509 2166.92C772.509 2165.84 772.936 2164.81 773.696 2164.04C774.457 2163.28 775.489 2162.85 776.568 2162.84L1856.94 2161.79C1858.02 2161.79 1859.05 2162.22 1859.81 2162.99C1860.57 2163.75 1861 2164.79 1861 2165.87C1861 2166.95 1860.57 2167.98 1859.81 2168.74C1859.05 2169.51 1858.02 2169.94 1856.94 2169.95Z" fill="#3A506B"/>
<path d="M876.034 649L757.197 548.627C753.135 545.188 750.603 540.279 750.156 534.975C749.708 529.671 751.383 524.406 754.812 520.336L776.684 494.432C780.122 490.369 785.031 487.837 790.334 487.389C795.637 486.942 800.901 488.617 804.97 492.047L923.807 592.421C927.869 595.859 930.401 600.769 930.848 606.073C931.295 611.376 929.621 616.641 926.191 620.711L904.319 646.615C900.881 650.678 895.972 653.211 890.67 653.658C885.367 654.105 880.103 652.43 876.034 649Z" fill="#1C2541"/>
<path d="M763.433 522.425C761.585 524.618 760.682 527.455 760.923 530.313C761.164 533.171 762.529 535.817 764.718 537.67L883.554 638.044C885.747 639.892 888.584 640.794 891.441 640.553C894.299 640.312 896.944 638.948 898.797 636.758L920.669 610.854C922.517 608.661 923.419 605.824 923.178 602.966C922.938 600.108 921.573 597.462 919.384 595.609L800.548 495.235C798.354 493.387 795.518 492.485 792.661 492.726C789.803 492.967 787.157 494.331 785.305 496.521L763.433 522.425Z" fill="#D0FFFF"/>
<path d="M833.197 561.445C832.785 562.022 832.244 562.495 831.617 562.827C830.99 563.158 830.294 563.339 829.585 563.355L810.913 563.784C810.313 563.798 809.717 563.694 809.157 563.477C808.598 563.26 808.086 562.935 807.653 562.52C807.219 562.106 806.871 561.61 806.628 561.061C806.386 560.512 806.254 559.921 806.241 559.321C806.227 558.721 806.331 558.124 806.548 557.564C806.765 557.005 807.09 556.493 807.504 556.06C807.919 555.626 808.415 555.277 808.964 555.035C809.513 554.793 810.104 554.661 810.704 554.647L822.919 554.366L810.889 522.619C810.463 521.486 810.504 520.231 811.002 519.128C811.5 518.026 812.415 517.165 813.546 516.737C814.678 516.308 815.933 516.345 817.037 516.841C818.14 517.336 819.003 518.249 819.434 519.38L833.753 557.168C834.012 557.851 834.103 558.587 834.019 559.313C833.935 560.039 833.678 560.734 833.27 561.34L833.197 561.445Z" fill="#66FFFF"/>
<path d="M835.592 569.423C840.096 570.085 844.4 571.726 848.201 574.231C852.001 576.736 855.207 580.044 857.591 583.922C859.975 587.8 861.48 592.154 862 596.677C862.52 601.2 862.042 605.782 860.6 610.1L948.255 677.633L893.887 696.346L818.983 629.347C811.89 626.443 806.109 621.037 802.735 614.155C799.361 607.273 798.628 599.392 800.676 592.006C802.723 584.62 807.408 578.241 813.844 574.079C820.279 569.917 828.017 568.26 835.592 569.423Z" fill="#FFB6B6"/>
<path d="M1291.95 602.814L1067.52 740.824C1067.52 740.824 977.034 707.338 994.718 691.837C1012.4 676.335 956.106 665.855 956.106 665.855L893.915 624.008L857.827 665.956C857.827 665.956 864.403 734.091 875.591 722.293C886.779 710.495 903.503 742.724 903.503 742.724C903.503 742.724 908.445 778.71 940.294 769.654C972.143 760.598 1057.6 855.523 1057.6 855.523L1333.8 752.493L1291.95 602.814Z" fill="#1C2541"/>
<path d="M886.838 465.817C884.237 465.817 881.671 465.211 879.344 464.047C877.017 462.883 874.993 461.193 873.432 459.111L832.329 404.296C831.009 402.536 830.048 400.532 829.502 398.399C828.956 396.267 828.835 394.048 829.146 391.869C829.457 389.69 830.195 387.594 831.316 385.699C832.437 383.805 833.921 382.151 835.681 380.83C839.237 378.163 843.707 377.018 848.107 377.647C850.286 377.958 852.382 378.696 854.275 379.817C856.169 380.939 857.823 382.422 859.144 384.183L886.035 420.041L955.102 316.426C957.567 312.727 961.401 310.159 965.76 309.287C970.118 308.415 974.645 309.311 978.343 311.777C982.041 314.243 984.609 318.077 985.481 322.436C986.352 326.796 985.457 331.323 982.991 335.022L900.784 458.353C899.297 460.583 897.298 462.425 894.952 463.722C892.607 465.02 889.984 465.737 887.305 465.812C887.149 465.815 886.994 465.817 886.838 465.817Z" fill="#3A506B"/>
<path d="M628.22 1875.85C633.618 1867.74 630.423 1856.12 621.084 1849.9C611.744 1843.69 599.797 1845.23 594.399 1853.35C589.001 1861.46 592.196 1873.08 601.536 1879.29C610.875 1885.51 622.822 1883.97 628.22 1875.85Z" fill="#D0FFFF"/>
<path d="M873.808 1592.59C881.131 1583.34 876.797 1570.11 864.127 1563.03C851.456 1555.95 835.248 1557.71 827.925 1566.95C820.602 1576.19 824.936 1589.43 837.607 1596.51C850.277 1603.59 866.485 1601.83 873.808 1592.59Z" fill="#D0FFFF"/>
<path d="M518.643 1572.97C524.041 1564.85 520.846 1553.24 511.507 1547.02C502.167 1540.81 490.22 1542.35 484.822 1550.46C479.424 1558.58 482.619 1570.19 491.959 1576.41C501.298 1582.62 513.245 1581.08 518.643 1572.97Z" fill="#D0FFFF"/>
<path d="M725.151 1247.56C732.474 1238.31 728.14 1225.08 715.47 1218C702.799 1210.92 686.591 1212.68 679.268 1221.92C671.945 1231.16 676.28 1244.4 688.95 1251.48C701.62 1258.56 717.828 1256.8 725.151 1247.56Z" fill="#D0FFFF"/>
<path d="M976.877 2039.25C982.275 2031.13 979.08 2019.52 969.741 2013.3C960.401 2007.09 948.454 2008.63 943.056 2016.74C937.658 2024.86 940.853 2036.48 950.192 2042.69C959.532 2048.9 971.479 2047.36 976.877 2039.25Z" fill="#D0FFFF"/>
<path d="M1346.81 1778.72C1354.13 1769.48 1349.8 1756.24 1337.13 1749.16C1324.46 1742.08 1308.25 1743.84 1300.93 1753.08C1293.61 1762.33 1297.94 1775.56 1310.61 1782.64C1323.28 1789.72 1339.49 1787.96 1346.81 1778.72Z" fill="#D0FFFF"/>
<path d="M50.4467 1064.84C55.8448 1056.72 52.6497 1045.11 43.3103 1038.89C33.971 1032.68 22.0239 1034.22 16.6258 1042.33C11.2277 1050.45 14.4228 1062.07 23.7622 1068.28C33.1016 1074.49 45.0486 1072.95 50.4467 1064.84Z" fill="#D0FFFF"/>
<path d="M89.9756 668.725C97.2989 659.48 92.9643 646.247 80.2941 639.168C67.6239 632.089 51.416 633.844 44.0927 643.088C36.7695 652.332 41.1041 665.565 53.7743 672.644C66.4445 679.724 82.6524 677.969 89.9756 668.725Z" fill="#D0FFFF"/>
<path d="M482.781 969.192C488.179 961.077 484.984 949.46 475.645 943.246C466.305 937.031 454.358 938.572 448.96 946.687C443.562 954.802 446.757 966.418 456.097 972.633C465.436 978.847 477.383 977.307 482.781 969.192Z" fill="#D0FFFF"/>
<path d="M676.499 559.768C683.823 550.524 679.488 537.291 666.818 530.212C654.148 523.132 637.94 524.887 630.616 534.131C623.293 543.376 627.628 556.609 640.298 563.688C652.968 570.767 669.176 569.012 676.499 559.768Z" fill="#D0FFFF"/>
<path d="M278.169 1771.66C283.567 1763.55 280.372 1751.93 271.032 1745.72C261.693 1739.5 249.746 1741.04 244.348 1749.16C238.95 1757.27 242.145 1768.89 251.484 1775.11C260.823 1781.32 272.77 1779.78 278.169 1771.66Z" fill="#3A506B"/>
<path d="M398.913 1473.9C406.236 1464.66 401.902 1451.42 389.231 1444.34C376.561 1437.27 360.353 1439.02 353.03 1448.26C345.707 1457.51 350.041 1470.74 362.712 1477.82C375.382 1484.9 391.59 1483.15 398.913 1473.9Z" fill="#3A506B"/>
</g>
<defs>
<clipPath id="clip0_42_371">
<rect width="1861" height="2171" fill="white"/>
</clipPath>
</defs>
</svg>
