<svg width="4540" height="4432" viewBox="0 0 4540 4432" fill="none" xmlns="http://www.w3.org/2000/svg">
<g clip-path="url(#clip0_23_350)">
<path d="M2882.18 996.742H1658.85C1630.97 996.776 1604.24 1007.87 1584.53 1027.58C1564.82 1047.29 1553.73 1074.02 1553.69 1101.9V3821.01L1539.67 3825.29L1239.57 3917.2C1225.35 3921.54 1209.99 3920.06 1196.86 3913.08C1183.73 3906.1 1173.9 3894.19 1169.54 3879.98L276.872 963.862C272.528 949.638 274.008 934.271 280.988 921.138C287.968 908.005 299.877 898.181 314.096 893.825L776.554 752.208L2117.24 341.8L2579.69 200.183C2586.73 198.017 2594.13 197.26 2601.46 197.956C2608.79 198.651 2615.91 200.786 2622.41 204.237C2628.92 207.688 2634.68 212.388 2639.37 218.069C2644.05 223.749 2647.57 230.298 2649.72 237.34L2877.9 982.721L2882.18 996.742Z" fill="#5BC0BE"/>
<path d="M3149.12 982.721L2874.12 84.3655C2869.54 69.3972 2862.06 55.4773 2852.11 43.4011C2842.15 31.325 2829.91 21.3293 2816.09 13.9853C2802.27 6.64128 2787.14 2.09274 2771.56 0.599819C2755.98 -0.893108 2740.26 0.698823 2725.29 5.28448L2075.1 204.319L734.494 614.797L84.3065 813.902C54.1022 823.178 28.8117 844.06 13.9863 871.964C-0.839076 899.869 -3.9882 932.516 5.23032 962.74L945.146 4032.95C952.635 4057.35 967.745 4078.7 988.26 4093.88C1008.77 4109.06 1033.61 4117.26 1059.13 4117.29C1070.94 4117.29 1082.69 4115.52 1093.97 4112.03L1539.67 3975.6L1553.69 3971.25V3956.6L1539.67 3960.88L1089.84 4098.64C1063.18 4106.77 1034.38 4103.99 1009.76 4090.91C985.15 4077.83 966.727 4055.53 958.536 4028.88L18.6926 958.604C14.6344 945.402 13.22 931.529 14.5304 917.78C15.8407 904.031 19.85 890.675 26.3289 878.478C32.8078 866.28 41.629 855.481 52.2871 846.698C62.9453 837.915 75.2311 831.32 88.4411 827.293L738.629 628.188L2079.24 217.78L2729.43 18.6751C2739.45 15.617 2749.87 14.0578 2760.34 14.048C2782.83 14.0985 2804.7 21.3473 2822.77 34.7326C2840.83 48.118 2854.13 66.9365 2860.73 88.4319L3134.47 982.721L3138.82 996.742H3153.4L3149.12 982.721Z" fill="#3A506B"/>
<path d="M860.007 896.117C846.496 896.108 833.343 891.768 822.479 883.735C811.614 875.702 803.61 864.398 799.64 851.482L709.348 556.528C706.921 548.605 706.079 540.282 706.87 532.033C707.66 523.785 710.068 515.773 713.955 508.455C717.842 501.138 723.133 494.658 729.524 489.385C735.916 484.112 743.283 480.15 751.206 477.726L1984.56 100.102C2000.56 95.2188 2017.84 96.8841 2032.61 104.732C2047.39 112.58 2058.44 125.969 2063.36 141.961L2153.65 436.918C2158.53 452.919 2156.86 470.202 2149.02 484.976C2141.17 499.75 2127.78 510.808 2111.79 515.723L878.439 893.348C872.466 895.181 866.254 896.114 860.007 896.117Z" fill="#66FFFF"/>
<path d="M1333 315.166C1410.43 315.166 1473.2 252.389 1473.2 174.951C1473.2 97.5125 1410.43 34.7363 1333 34.7363C1255.57 34.7363 1192.79 97.5125 1192.79 174.951C1192.79 252.389 1255.57 315.166 1333 315.166Z" fill="#66FFFF"/>
<path d="M1333 263.739C1382.03 263.739 1421.78 223.987 1421.78 174.95C1421.78 125.914 1382.03 86.1621 1333 86.1621C1283.96 86.1621 1244.22 125.914 1244.22 174.95C1244.22 223.987 1283.96 263.739 1333 263.739Z" fill="#D0FFFF"/>
<path d="M4224.55 4081.46H1855.13C1839.33 4081.45 1824.19 4075.16 1813.02 4063.99C1801.85 4052.82 1795.56 4037.67 1795.54 4021.87V1182.53C1795.56 1166.73 1801.85 1151.58 1813.02 1140.41C1824.19 1129.24 1839.33 1122.95 1855.13 1122.94H4224.55C4240.34 1122.95 4255.49 1129.24 4266.66 1140.41C4277.83 1151.58 4284.11 1166.73 4284.13 1182.53V4021.87C4284.11 4037.67 4277.83 4052.82 4266.66 4063.99C4255.49 4075.16 4240.34 4081.44 4224.55 4081.46Z" fill="#3A506B"/>
<path d="M3134.47 982.721H1658.85C1627.25 982.765 1596.97 995.337 1574.63 1017.68C1552.29 1040.02 1539.72 1070.31 1539.67 1101.9V3960.88L1553.69 3956.6V1101.9C1553.73 1074.02 1564.82 1047.29 1584.53 1027.58C1604.24 1007.87 1630.97 996.776 1658.85 996.742H3138.82L3134.47 982.721ZM4420.83 982.721H1658.85C1627.25 982.765 1596.97 995.337 1574.63 1017.68C1552.29 1040.02 1539.72 1070.31 1539.67 1101.9V4312.82C1539.72 4344.41 1552.29 4374.7 1574.63 4397.04C1596.97 4419.38 1627.25 4431.96 1658.85 4432H4420.83C4452.42 4431.96 4482.71 4419.38 4505.05 4397.04C4527.39 4374.7 4539.96 4344.41 4540 4312.82V1101.9C4539.96 1070.31 4527.39 1040.02 4505.05 1017.68C4482.71 995.337 4452.42 982.765 4420.83 982.721ZM4525.98 4312.82C4525.95 4340.7 4514.86 4367.43 4495.14 4387.14C4475.43 4406.85 4448.71 4417.94 4420.83 4417.98H1658.85C1630.97 4417.94 1604.24 4406.85 1584.53 4387.14C1564.82 4367.43 1553.73 4340.7 1553.69 4312.82V1101.9C1553.73 1074.02 1564.82 1047.29 1584.53 1027.58C1604.24 1007.87 1630.97 996.776 1658.85 996.742H4420.83C4448.71 996.776 4475.43 1007.87 4495.14 1027.58C4514.86 1047.29 4525.95 1074.02 4525.98 1101.9V4312.82Z" fill="#3A506B"/>
<path d="M3684.77 1291.19H2394.91C2378.18 1291.17 2362.14 1284.52 2350.32 1272.69C2338.49 1260.86 2331.84 1244.82 2331.82 1228.1V919.624C2331.84 902.895 2338.49 886.858 2350.32 875.029C2362.15 863.2 2378.18 856.546 2394.91 856.527H3684.77C3701.5 856.546 3717.53 863.2 3729.36 875.029C3741.19 886.858 3747.84 902.895 3747.86 919.624V1228.1C3747.84 1244.82 3741.19 1260.86 3729.36 1272.69C3717.53 1284.52 3701.5 1291.17 3684.77 1291.19Z" fill="#66FFFF"/>
<path d="M3039.84 877.56C3117.27 877.56 3180.04 814.784 3180.04 737.345C3180.04 659.907 3117.27 597.131 3039.84 597.131C2962.41 597.131 2899.64 659.907 2899.64 737.345C2899.64 814.784 2962.41 877.56 3039.84 877.56Z" fill="#66FFFF"/>
<path d="M3039.84 822.749C3087 822.749 3125.23 784.512 3125.23 737.345C3125.23 690.178 3087 651.941 3039.84 651.941C2992.67 651.941 2954.44 690.178 2954.44 737.345C2954.44 784.512 2992.67 822.749 3039.84 822.749Z" fill="#D0FFFF"/>
</g>
<defs>
<clipPath id="clip0_23_350">
<rect width="4540" height="4432" fill="white"/>
</clipPath>
</defs>
</svg>
