<svg width="4757" height="3555" viewBox="0 0 4757 3555" fill="none" xmlns="http://www.w3.org/2000/svg">
<g clip-path="url(#clip0_23_488)">
<path d="M3473.55 3377.79H3378.89L3333.85 3012.75H3473.55V3377.79Z" fill="#9E616A"/>
<path d="M3523.5 3541.76H3455.62L3443.51 3477.69L3412.48 3541.76H3232.45C3223.82 3541.76 3215.42 3539.01 3208.46 3533.89C3201.51 3528.78 3196.38 3521.58 3193.81 3513.34C3191.24 3505.1 3191.38 3496.26 3194.19 3488.1C3197 3479.95 3202.35 3472.9 3209.45 3468L3353.22 3368.72V3303.94L3504.43 3312.97L3523.5 3541.76Z" fill="#0B132B"/>
<path d="M4035.87 3258.35L3959.91 3314.82L3705.92 3048.77L3818.02 2965.42L4035.87 3258.35Z" fill="#9E616A"/>
<path d="M4173.81 3360.13L4119.34 3400.63L4071.38 3356.44L4084.72 3426.37L3940.26 3533.78C3933.33 3538.93 3924.94 3541.73 3916.31 3541.78C3907.69 3541.82 3899.27 3539.11 3892.29 3534.03C3885.31 3528.95 3880.14 3521.78 3877.53 3513.55C3874.92 3505.33 3875.01 3496.48 3877.78 3488.31L3933.9 3322.87L3895.24 3270.89L4021.97 3187.9L4173.81 3360.13Z" fill="#0B132B"/>
<path d="M3583.74 1494.37C3583.74 1494.37 3763.33 1649.5 3680.47 2091.76L3579.31 2525.1L3909.21 3072.34L3804.02 3200.3L3375.14 2607.97L3219.73 2243.45L3176.12 1594.69L3583.74 1494.37Z" fill="#0B132B"/>
<path d="M3305.39 2347.33L3294.59 2514.6L3327.64 3227.38L3483.19 3200.3L3512.92 2692.81L3305.39 2347.33Z" fill="#0B132B"/>
<path d="M1309.29 3463.61L1393.93 3463.61L1434.2 3137.16L1309.28 3137.17L1309.29 3463.61Z" fill="#FFB6B6"/>
<path d="M1287.7 3435.98L1311.52 3435.98L1404.54 3398.16L1454.39 3435.97H1454.4C1482.57 3435.98 1509.59 3447.17 1529.51 3467.09C1549.43 3487.01 1560.63 3514.02 1560.63 3542.19V3545.64L1287.7 3545.65L1287.7 3435.98Z" fill="#0B132B"/>
<path d="M1637.3 3410.28L1719.86 3428.92L1831.06 3119.36L1709.21 3091.85L1637.3 3410.28Z" fill="#FFB6B6"/>
<path d="M1622.33 3378.57L1645.57 3383.82L1744.63 3367.41L1784.93 3415.28L1784.94 3415.28C1812.42 3421.49 1836.31 3438.35 1851.35 3462.17C1866.39 3485.99 1871.36 3514.81 1865.16 3542.29L1864.4 3545.65L1598.17 3485.55L1622.33 3378.57Z" fill="#0B132B"/>
<path d="M1202.08 1467.88C1162.4 1587.56 1166.59 1717.46 1211.62 1856.89L1230.87 2641.89C1230.87 2641.89 1202.19 3156.67 1294.73 3337.82H1428.95L1495.4 2594.87L1503.74 2096.2L1791.48 2516.91L1608.21 3325.67L1773.39 3340.44L2070.79 2462.74L1703.86 1611.23L1202.08 1467.88Z" fill="#0B132B"/>
<path d="M2749.85 1126.99C2852.51 1034.5 3005.2 987.988 3133.28 1039.85C3001.9 1112.79 2900.55 1229.84 2847.17 1370.3C2826.78 1424.55 2809.75 1487 2759.6 1516.04C2728.39 1534.11 2689.56 1535 2654.58 1526.27C2619.59 1517.55 2587.51 1500.06 2555.88 1482.75L2546.88 1482.54C2587.28 1350.41 2647.19 1219.49 2749.85 1126.99Z" fill="#5BC0BE"/>
<path d="M3132.57 1042.66C3019.13 1057.32 2913.19 1107.34 2829.81 1185.63C2811.56 1202.16 2796.03 1221.47 2783.79 1242.84C2772.54 1264.04 2767.18 1287.87 2768.26 1311.85C2768.81 1334.22 2771.97 1357.04 2767.07 1379.16C2764.4 1390.45 2759.37 1401.04 2752.32 1410.25C2745.26 1419.46 2736.34 1427.07 2726.14 1432.58C2701.07 1446.99 2672.32 1451.53 2644.05 1455C2612.67 1458.84 2580.01 1462.34 2552.84 1479.94C2549.55 1482.08 2546.43 1476.84 2549.72 1474.71C2596.98 1444.09 2656.8 1455.23 2707.62 1434.79C2731.34 1425.26 2752.32 1408.51 2759.75 1383.2C2766.25 1361.07 2763.01 1337.53 2762.25 1314.88C2760.86 1291.51 2765.21 1268.15 2774.93 1246.84C2786.04 1224.92 2800.8 1205.04 2818.58 1188.07C2857.99 1149.22 2903.27 1116.81 2952.75 1092.03C3009.07 1063.43 3069.87 1044.67 3132.51 1036.57C3136.39 1036.07 3136.42 1042.17 3132.57 1042.66Z" fill="#D0FFFF"/>
<path d="M2855.18 1158.84C2843.94 1143.07 2838.67 1123.82 2840.32 1104.52C2841.97 1085.23 2850.43 1067.15 2864.18 1053.51C2866.97 1050.76 2871.37 1054.97 2868.58 1057.73C2855.75 1070.4 2847.88 1087.24 2846.38 1105.21C2844.88 1123.18 2849.85 1141.1 2860.4 1155.72C2862.69 1158.9 2857.45 1162 2855.18 1158.84Z" fill="#D0FFFF"/>
<path d="M2766.48 1300.54C2805.46 1307.44 2845.62 1299.4 2878.93 1278.02C2882.23 1275.9 2885.35 1281.13 2882.06 1283.25C2847.34 1305.44 2805.54 1313.72 2764.99 1306.44C2761.13 1305.75 2762.64 1299.85 2766.48 1300.54Z" fill="#D0FFFF"/>
<path d="M3009.57 1071.49C3012.64 1078.5 3017.41 1084.63 3023.44 1089.34C3029.48 1094.05 3036.58 1097.19 3044.13 1098.48C3048 1099.12 3046.49 1105.02 3042.64 1104.38C3034.31 1102.92 3026.46 1099.45 3019.79 1094.26C3013.11 1089.07 3007.8 1082.32 3004.34 1074.61C3003.95 1073.91 3003.84 1073.09 3004.04 1072.32C3004.23 1071.54 3004.72 1070.87 3005.39 1070.44C3006.08 1070.03 3006.91 1069.91 3007.69 1070.1C3008.48 1070.3 3009.15 1070.8 3009.57 1071.49Z" fill="#D0FFFF"/>
<path d="M3274.32 1485.92C3271.89 1485.58 3269.46 1485.25 3267 1484.95C3234.32 1480.61 3201.35 1478.94 3168.4 1479.94C3165.85 1479.98 3163.27 1480.05 3160.72 1480.16C3081.37 1483.43 3003.31 1501.39 2930.51 1533.15C2901.55 1545.81 2873.6 1560.66 2846.9 1577.56C2810.02 1600.91 2771.9 1629.16 2730.68 1638.68C2726.39 1639.72 2722.04 1640.49 2717.65 1641L2547.33 1493.54C2547.11 1493.01 2546.86 1492.52 2546.63 1491.99L2539.56 1486.41C2540.88 1485.44 2542.27 1484.47 2543.58 1483.5C2544.34 1482.93 2545.14 1482.4 2545.9 1481.84C2546.42 1481.47 2546.95 1481.11 2547.39 1480.75C2547.57 1480.62 2547.74 1480.5 2547.88 1480.42C2548.33 1480.06 2548.78 1479.77 2549.2 1479.45C2556.93 1473.98 2564.71 1468.55 2572.55 1463.16C2572.58 1463.12 2572.58 1463.12 2572.65 1463.12C2631.97 1421.51 2696.02 1387.09 2763.45 1360.57C2765.47 1359.8 2767.52 1359 2769.62 1358.3C2799.99 1347.01 2831.23 1338.22 2863.03 1332.02C2880.45 1328.68 2898.03 1326.23 2915.7 1324.67C2961.37 1320.72 3007.37 1323.98 3052.03 1334.32C3141.04 1354.96 3222.47 1403.84 3270.69 1480.06C3271.93 1482.01 3273.12 1483.93 3274.32 1485.92Z" fill="#5BC0BE"/>
<path d="M3272.07 1487.75C3172.67 1431.16 3057.96 1407.33 2944.25 1419.64C2919.72 1421.85 2895.69 1427.92 2873.06 1437.62C2851.31 1447.77 2832.68 1463.57 2819.1 1483.36C2806.07 1501.56 2794.85 1521.68 2777.62 1536.4C2768.69 1543.8 2758.3 1549.23 2747.12 1552.33C2735.94 1555.44 2724.24 1556.14 2712.77 1554.41C2684.08 1550.82 2658.39 1537.14 2633.74 1522.89C2606.36 1507.06 2578.18 1490.19 2545.88 1487.89C2541.97 1487.62 2542.63 1481.56 2546.54 1481.84C2602.72 1485.84 2643.77 1530.75 2696.66 1545.03C2721.34 1551.69 2748.17 1550.95 2769.34 1535.22C2787.86 1521.45 2799.45 1500.71 2812.48 1482.17C2825.44 1462.67 2842.98 1446.64 2863.57 1435.48C2885.64 1424.66 2909.39 1417.68 2933.81 1414.83C2988.67 1407.54 3044.34 1408.92 3098.77 1418.92C3160.96 1429.99 3220.79 1451.61 3275.69 1482.85C3279.09 1484.79 3275.44 1489.67 3272.07 1487.75Z" fill="#D0FFFF"/>
<path d="M2980.63 1413.52C2981.15 1394.16 2988.54 1375.62 3001.48 1361.21C3014.41 1346.8 3032.05 1337.45 3051.24 1334.84C3055.12 1334.32 3056.11 1340.34 3052.22 1340.85C3034.34 1343.25 3017.91 1351.96 3005.9 1365.4C2993.88 1378.85 2987.07 1396.15 2986.69 1414.18C2986.6 1418.09 2980.54 1417.42 2980.63 1413.52Z" fill="#D0FFFF"/>
<path d="M2824.49 1473.26C2851.46 1502.24 2888.36 1520 2927.84 1522.98C2931.75 1523.28 2931.09 1529.33 2927.18 1529.04C2886.11 1525.85 2847.74 1507.3 2819.75 1477.08C2817.08 1474.2 2821.84 1470.4 2824.49 1473.26Z" fill="#D0FFFF"/>
<path d="M3156.5 1436.72C3154.74 1444.16 3154.85 1451.93 3156.83 1459.33C3158.81 1466.72 3162.6 1473.5 3167.85 1479.07C3170.55 1481.92 3165.79 1485.72 3163.1 1482.89C3157.33 1476.71 3153.16 1469.21 3150.95 1461.05C3148.75 1452.89 3148.57 1444.31 3150.45 1436.06C3150.56 1435.27 3150.97 1434.55 3151.59 1434.05C3152.21 1433.55 3153 1433.3 3153.8 1433.36C3154.6 1433.45 3155.33 1433.86 3155.84 1434.49C3156.35 1435.11 3156.58 1435.92 3156.5 1436.72Z" fill="#D0FFFF"/>
<path d="M282.724 3457.69C274.728 3487.68 253.72 3512.66 228.355 3530.85C224.219 3533.83 219.974 3536.58 215.673 3539.18C214.349 3539.95 213.026 3540.77 211.647 3541.49C210.159 3542.37 208.67 3543.2 207.181 3543.97H87.9119C85.7614 3539.62 83.6661 3535.21 81.5707 3530.85C30.4554 3423.45 -5.44119 3307.56 0.679422 3189.51C3.10769 3143.73 12.728 3098.61 29.1871 3055.81C61.9407 2970.52 121.713 2896.69 203.928 2859.53C205.968 2858.59 208.118 2857.66 210.214 2856.78C209.552 2859.15 208.89 2861.46 208.229 2863.83C199.409 2895.6 193.176 2928.04 189.591 2960.81C189.26 2963.35 188.985 2965.89 188.764 2968.48C180.93 3047.53 187.886 3127.34 209.276 3203.85C209.332 3204.01 209.386 3204.23 209.442 3204.4C214.129 3221.33 219.57 3237.99 225.763 3254.41C230.616 3267.36 235.854 3280.15 241.589 3292.72C265.52 3345.49 297.611 3401.73 282.724 3457.69Z" fill="#5BC0BE"/>
<path d="M211.703 2859.26C210.545 2860.8 209.386 2862.29 208.229 2863.83C184.01 2895.93 163.444 2930.62 146.912 2967.27C146.03 2969.09 145.203 2970.9 144.486 2972.78C121.834 3023.95 107.287 3078.34 101.366 3133.99C101.302 3134.38 101.265 3134.76 101.256 3135.15C99.8774 3148.16 99.0503 3161.28 98.7194 3174.41C97.4933 3199 100.154 3223.64 106.604 3247.4C112.486 3266.81 122.792 3284.59 136.711 3299.34C138.09 3300.83 139.468 3302.32 140.957 3303.75C142.06 3304.91 143.273 3306.07 144.431 3307.17C155.569 3317.81 167.755 3327.68 178.232 3339.09C183.034 3344.21 187.371 3349.75 191.19 3355.63C197.286 3365.5 201.224 3376.55 202.745 3388.05C204.265 3399.54 203.334 3411.23 200.013 3422.35C192.514 3450.24 175.365 3473.79 157.83 3496.23C149.063 3507.47 140.02 3518.83 132.19 3530.85C129.323 3535.15 126.676 3539.51 124.25 3543.97H117.302C119.618 3539.51 122.155 3535.15 124.912 3530.85C145.038 3499.15 173.656 3471.91 188.489 3437.01C198.524 3413.47 201.557 3386.78 188.875 3363.68C185.158 3356.97 180.66 3350.71 175.475 3345.05C165.385 3333.63 153.309 3323.88 142.336 3313.57C139.579 3310.97 136.877 3308.33 134.285 3305.57C120.546 3291.61 109.943 3274.88 103.186 3256.5C95.5342 3233.15 91.9167 3208.67 92.4888 3184.11C92.4888 3168.45 93.316 3152.68 94.8599 3137.03C95.0253 3135.04 95.2459 3133 95.4665 3130.96C106.743 3032.43 144.193 2938.71 203.928 2859.53C205.031 2857.99 206.189 2856.5 207.347 2855.01C209.718 2851.92 214.074 2856.22 211.703 2859.26Z" fill="#D0FFFF"/>
<path d="M97.6919 3137.55C78.5929 3134.34 61.2559 3124.45 48.7774 3109.64C36.2988 3094.83 29.4911 3076.07 29.57 3056.7C29.5806 3055.91 29.8972 3055.16 30.4533 3054.6C31.0094 3054.04 31.7614 3053.72 32.551 3053.7C33.3406 3053.68 34.1061 3053.97 34.6861 3054.51C35.2662 3055.04 35.6155 3055.78 35.6606 3056.57C35.5538 3074.6 41.8969 3092.08 53.5451 3105.85C65.1933 3119.61 81.3793 3128.76 99.1818 3131.64C103.05 3132.27 101.538 3138.17 97.6919 3137.55Z" fill="#D0FFFF"/>
<path d="M135.181 3300.45C167.629 3277.77 190.336 3243.7 198.775 3205.02C199.608 3201.19 205.512 3202.69 204.681 3206.51C195.824 3246.74 172.121 3282.15 138.303 3305.68C135.078 3307.92 131.973 3302.68 135.181 3300.45Z" fill="#D0FFFF"/>
<path d="M145.088 2966.62C152.219 2969.4 159.93 2970.37 167.527 2969.43C175.124 2968.5 182.369 2965.69 188.613 2961.26C191.808 2958.98 194.909 2964.23 191.735 2966.49C184.814 2971.35 176.808 2974.44 168.417 2975.49C160.026 2976.54 151.505 2975.53 143.598 2972.53C142.829 2972.3 142.173 2971.8 141.763 2971.11C141.353 2970.43 141.22 2969.61 141.39 2968.83C141.592 2968.05 142.093 2967.38 142.785 2966.96C143.478 2966.55 144.305 2966.43 145.088 2966.62Z" fill="#D0FFFF"/>
<path d="M625.367 3072.46C623.437 3073.95 621.452 3075.44 619.522 3076.98C593.343 3097.02 568.835 3119.14 546.241 3143.14C544.476 3144.96 542.711 3146.84 541.002 3148.71L540.947 3148.77C487.372 3206.92 445.011 3274.47 415.998 3348.02L415.833 3348.52C415.778 3348.69 415.723 3348.8 415.668 3348.96C404.168 3378.4 394.896 3408.66 387.932 3439.49C381.205 3469.6 375.691 3501.85 365.159 3530.85C363.56 3535.32 361.795 3539.73 359.92 3543.97H114.765C115.592 3539.62 116.475 3535.21 117.357 3530.85C129.828 3466.97 149.319 3404.65 175.475 3345.05C176.357 3343.06 177.239 3341.08 178.232 3339.09C191.735 3309.64 207.613 3281.34 225.708 3254.46L225.712 3254.44L225.724 3254.42L225.742 3254.41L225.763 3254.41C235.7 3239.74 246.374 3225.59 257.745 3212.01C287.235 3176.93 322.07 3146.71 360.968 3122.47C361.189 3122.3 361.464 3122.19 361.685 3122.03C439.102 3074.01 530.856 3051.13 618.585 3070.92H618.64C620.901 3071.41 623.107 3071.91 625.367 3072.46Z" fill="#5BC0BE"/>
<path d="M625.092 3075.38C623.217 3075.88 621.342 3076.43 619.523 3076.98C580.878 3088.02 543.577 3103.32 508.304 3122.58C506.539 3123.52 504.775 3124.51 503.01 3125.5C454.264 3152.7 410.015 3187.28 371.831 3228C371.801 3228.03 371.782 3228.07 371.776 3228.11C371.335 3228.55 370.838 3229.04 370.452 3229.49C361.63 3238.97 353.138 3248.84 345.088 3258.98C329.34 3277.9 316.651 3299.16 307.482 3322C300.475 3341.04 298.002 3361.44 300.258 3381.6C300.424 3383.64 300.699 3385.63 300.975 3387.67C301.196 3389.27 301.416 3390.86 301.692 3392.52C305.331 3414.63 311.617 3436.79 309.853 3459.34C308.779 3470.9 305.271 3482.09 299.559 3492.19C293.847 3502.29 286.061 3511.07 276.713 3517.95C270.359 3522.86 263.566 3527.18 256.422 3530.85C246.206 3536.12 235.563 3540.51 224.605 3543.97H202.935C205.858 3543.15 208.725 3542.32 211.647 3541.49C222.018 3538.57 232.201 3535.01 242.14 3530.85C247.818 3528.48 253.343 3525.75 258.682 3522.69C280.849 3509.95 299.321 3490.44 303.181 3464.36C306.544 3441.53 300.038 3418.71 296.178 3396.38C295.516 3392.52 294.91 3388.71 294.579 3384.91C291.946 3365.57 293.545 3345.9 299.266 3327.24C307.2 3303.97 319.061 3282.22 334.335 3262.95C343.784 3250.41 353.869 3238.35 364.552 3226.84C365.876 3225.35 367.254 3223.86 368.688 3222.37C407.675 3181.36 452.692 3146.54 502.183 3119.11H502.238C539.038 3098.62 578.078 3082.45 618.585 3070.92H618.64C620.46 3070.37 622.335 3069.82 624.154 3069.32C627.959 3068.33 628.841 3074.34 625.092 3075.38Z" fill="#D0FFFF"/>
<path d="M366.507 3228.93C353.189 3214.87 345.302 3196.54 344.256 3177.2C343.209 3157.86 349.071 3138.79 360.794 3123.37C363.176 3120.26 368.123 3123.82 365.737 3126.93C354.794 3141.27 349.336 3159.04 350.347 3177.04C351.358 3195.05 358.773 3212.1 371.252 3225.11C373.96 3227.94 369.2 3231.75 366.507 3228.93Z" fill="#D0FFFF"/>
<path d="M298.35 3381.57C337.913 3382.99 376.561 3369.46 406.586 3343.66C409.559 3341.1 413.374 3345.85 410.404 3348.4C379.109 3375.19 338.862 3389.2 297.694 3387.62C293.77 3387.47 294.447 3381.42 298.35 3381.57Z" fill="#D0FFFF"/>
<path d="M507.27 3120.99C511.29 3127.5 516.864 3132.91 523.493 3136.74C530.122 3140.57 537.597 3142.69 545.248 3142.91C549.172 3143.02 548.491 3149.07 544.593 3148.97C536.141 3148.68 527.888 3146.33 520.555 3142.12C513.221 3137.9 507.031 3131.96 502.525 3124.81C502.044 3124.17 501.824 3123.37 501.91 3122.57C501.996 3121.78 502.382 3121.05 502.989 3120.52C503.619 3120.02 504.423 3119.79 505.225 3119.88C506.026 3119.96 506.761 3120.36 507.27 3120.99Z" fill="#D0FFFF"/>
<path d="M2516.52 954.543C2510.86 961.986 2503.64 968.098 2495.36 972.448C2487.09 976.798 2477.96 979.28 2468.62 979.721C2459.28 980.161 2449.95 978.548 2441.3 974.996C2432.65 971.444 2424.89 966.039 2418.55 959.161L2210.12 1049.8L2230.42 933.46L2425.24 865.222C2437.5 855.348 2452.96 850.313 2468.69 851.073C2484.41 851.833 2499.31 858.334 2510.56 869.344C2521.81 880.354 2528.63 895.108 2529.73 910.811C2530.83 926.514 2526.13 942.074 2516.52 954.543Z" fill="#FFB8B8"/>
<path d="M2377.43 990.868L1893.31 1206.49L1892.27 1206.12L1340.49 1009.52C1299.39 988.038 1268.06 951.663 1252.91 907.839C1237.75 864.015 1239.93 816.056 1258.99 773.783C1269.55 750.427 1284.94 729.573 1304.15 712.593C1323.35 695.613 1345.93 682.893 1370.41 675.27C1394.89 667.646 1420.7 665.292 1446.15 668.363C1471.6 671.434 1496.12 679.859 1518.08 693.086L1928.7 940.414L2326.88 888.815L2377.43 990.868Z" fill="#5BC0BE"/>
<path d="M4757 3548.44C4757 3549.3 4756.83 3550.16 4756.51 3550.95C4756.18 3551.75 4755.69 3552.47 4755.08 3553.08C4754.47 3553.69 4753.75 3554.18 4752.95 3554.51C4752.16 3554.83 4751.3 3555 4750.44 3555H6.74477C5.00449 3555 3.33555 3554.31 2.10498 3553.08C0.87442 3551.85 0.183105 3550.18 0.183105 3548.44C0.183105 3546.7 0.87442 3545.03 2.10498 3543.8C3.33555 3542.57 5.00449 3541.88 6.74477 3541.88H4750.44C4751.3 3541.88 4752.16 3542.04 4752.95 3542.37C4753.75 3542.7 4754.47 3543.18 4755.08 3543.79C4755.69 3544.4 4756.18 3545.13 4756.51 3545.93C4756.83 3546.72 4757 3547.58 4757 3548.44Z" fill="#D0FFFF"/>
<path d="M1727.8 1636.37L1239.77 1558.32C1226.97 1554.22 1215.21 1547.4 1205.29 1538.33C1195.38 1529.26 1187.55 1518.15 1182.33 1505.76C1177.12 1493.38 1174.64 1480.01 1175.08 1466.58C1175.52 1453.15 1178.86 1439.97 1184.87 1427.95L1207.01 1383.69L1198.41 918.645C1197.37 858.154 1212.29 798.457 1241.65 745.56C1271.02 692.662 1313.8 648.43 1365.69 617.314L1413.28 588.861L1437.33 527.79L1659.1 533.199L1659.75 613.295L1739.17 739.929L1739.17 740.454L1734.19 1429.71L1712.3 1500.84L1745.4 1583.58L1727.8 1636.37Z" fill="#5BC0BE"/>
<path d="M1568.53 451.851C1679.81 451.851 1770.03 361.643 1770.03 250.366C1770.03 139.09 1679.81 48.8818 1568.53 48.8818C1457.24 48.8818 1367.02 139.09 1367.02 250.366C1367.02 361.643 1457.24 451.851 1568.53 451.851Z" fill="#FFB8B8"/>
<path d="M1358.7 294.288C1352.69 268.971 1355.44 233.346 1358.84 207.854C1367.75 141.024 1404.86 77.4898 1461.26 39.8563C1471.95 31.736 1484.65 26.6872 1498 25.2542C1511.35 24.6974 1525.81 31.8382 1529.9 44.5458C1533.26 36.1587 1538.31 28.5494 1544.72 22.1875C1551.14 15.8255 1558.79 10.8459 1567.21 7.55598C1584.11 1.07963 1602.29 -1.36957 1620.31 0.402521C1655.23 3.28076 1688.72 15.5588 1717.23 35.9336C1745.74 56.3084 1768.2 84.0198 1782.22 116.127C1787.6 128.912 1802.64 81.6889 1809.46 93.7684C1815.72 106.325 1826.66 115.929 1839.92 120.528C1853.28 124.256 1858.7 179.303 1863.96 166.467C1868.04 175.953 1869.66 186.317 1868.65 196.594C1867.65 206.872 1864.06 216.727 1858.22 225.244C1852.38 233.76 1844.48 240.661 1835.25 245.302C1826.03 249.944 1815.78 252.175 1805.46 251.789C1791.86 251.28 1778.85 246.279 1765.41 244.125C1717.36 236.426 1666.38 271.269 1656.11 318.836C1652.43 305.08 1646.55 292.009 1638.71 280.126C1634.72 274.216 1629.39 269.342 1623.14 265.91C1616.89 262.479 1609.92 260.588 1602.79 260.395C1589.12 260.907 1577.1 269.845 1568.23 280.26C1559.36 290.675 1552.7 302.826 1543.76 313.185C1517.54 343.581 1482.07 414.466 1444.7 409.296C1415.21 405.216 1366.9 328.855 1358.7 294.288Z" fill="#0B132B"/>
<path d="M2786.61 1182.86C2788.02 1173.67 2786.13 1164.29 2781.28 1156.36C2776.43 1148.43 2768.93 1142.48 2760.1 1139.56L2217.45 958.845C2212.24 957.104 2206.73 956.472 2201.27 956.988L2065.26 969.849L1987.21 977.251L1843.19 990.86C1834.5 991.692 1826.32 995.385 1819.95 1001.36C1813.58 1007.34 1809.38 1015.26 1807.99 1023.88L1734.87 1480.61C1733.49 1489.51 1735.18 1498.63 1739.68 1506.44C1744.17 1514.26 1751.2 1520.31 1759.6 1523.59L2307.92 1735.22C2310.49 1736.22 2313.17 1736.94 2315.89 1737.36C2319.86 1738 2323.91 1738.03 2327.89 1737.45L2682.2 1684.94C2690.56 1683.73 2698.3 1679.86 2704.28 1673.9C2710.27 1667.95 2714.17 1660.22 2715.41 1651.87L2786.61 1182.86Z" fill="#D0FFFF"/>
<path d="M1772.03 1491.41L2320.35 1703.03C2321.15 1703.34 2322.02 1703.45 2322.87 1703.32L2677.13 1650.82C2678.18 1650.68 2679.15 1650.2 2679.9 1649.45C2680.66 1648.7 2681.14 1647.73 2681.29 1646.68L2752.53 1177.67C2752.69 1176.52 2752.45 1175.36 2751.85 1174.37C2751.25 1173.38 2750.32 1172.63 2749.23 1172.25L2745.58 1171.02L2206.54 991.58C2206.29 991.493 2206.04 991.431 2205.78 991.397C2205.36 991.32 2204.93 991.298 2204.51 991.331L1872.76 1022.72L1846.44 1025.19C1845.35 1025.31 1844.34 1025.77 1843.55 1026.52C1842.76 1027.26 1842.23 1028.24 1842.05 1029.31L1768.94 1486.02C1768.76 1487.13 1768.97 1488.28 1769.53 1489.26C1770.09 1490.24 1770.98 1491 1772.03 1491.41Z" fill="#66FFFF"/>
<path d="M1872.76 1022.72L2204.51 991.331C2204.93 991.298 2205.36 991.32 2205.78 991.397C2206.04 991.431 2206.29 991.493 2206.54 991.58L2745.58 1171.02L2603.39 1186.07L2550.18 1191.68L2398.76 1207.67C2398.31 1207.69 2397.87 1207.69 2397.43 1207.66C2397.16 1207.57 2396.89 1207.49 2396.57 1207.41L1872.76 1022.72Z" fill="#0B132B"/>
<path d="M1759.59 1523.62L2307.91 1735.24C2310.49 1736.23 2313.17 1736.93 2315.91 1737.33C2319.88 1737.99 2323.92 1738.04 2327.91 1737.48L2682.17 1684.98C2690.53 1683.76 2698.28 1679.89 2704.27 1673.92C2710.25 1667.96 2714.16 1660.23 2715.41 1651.88L2786.6 1182.86C2787.65 1175.95 2786.86 1168.88 2784.29 1162.37C2783.93 1161.5 2783.57 1160.64 2783.15 1159.82C2780.33 1153.88 2776.03 1148.76 2770.67 1144.95C2767.44 1142.63 2763.88 1140.82 2760.1 1139.56L2759.46 1139.34L2217.48 958.84C2215.26 958.134 2213 957.584 2210.71 957.197C2207.58 956.753 2204.4 956.691 2201.25 957.013L2065.26 969.83L1987.22 977.274L1843.18 990.872C1837.29 991.422 1831.59 993.303 1826.53 996.372C1826.14 996.561 1825.77 996.785 1825.42 997.04C1825.17 997.204 1824.93 997.385 1824.7 997.581C1820.28 1000.6 1816.52 1004.48 1813.65 1009C1810.78 1013.51 1808.86 1018.56 1808.01 1023.85L1734.84 1480.6C1733.46 1489.51 1735.16 1498.64 1739.65 1506.46C1744.15 1514.28 1751.19 1520.33 1759.59 1523.62ZM1817.72 1025.44C1818.61 1019.96 1821.04 1014.85 1824.72 1010.71C1825.84 1009.38 1827.08 1008.16 1828.45 1007.08C1832.17 1004.07 1836.56 1002.02 1841.26 1001.1C1842.19 1000.91 1843.12 1000.78 1844.07 1000.71L2086.6 977.795L2202.2 966.796C2202.99 966.705 2203.7 966.718 2204.43 966.677C2206.18 966.64 2207.93 966.77 2209.65 967.065C2211.24 967.271 2212.8 967.643 2214.31 968.175L2756.94 1148.9C2757.37 1149.05 2757.74 1149.2 2758.17 1149.35C2763.11 1151.18 2767.44 1154.34 2770.71 1158.47C2773.29 1161.63 2775.17 1165.3 2776.24 1169.24C2777.3 1173.17 2777.52 1177.29 2776.89 1181.32L2705.64 1650.39C2704.71 1656.64 2701.79 1662.43 2697.31 1666.9C2692.83 1671.37 2687.04 1674.28 2680.78 1675.21L2326.46 1727.7C2321.39 1728.43 2316.22 1727.84 2311.45 1725.99L1763.13 1514.43C1756.84 1511.95 1751.58 1507.41 1748.22 1501.56C1744.85 1495.7 1743.58 1488.87 1744.6 1482.2L1817.72 1025.44Z" fill="#3A506B"/>
<path d="M1823.52 1000.07C1823.81 999.241 1824.32 998.504 1825 997.942C1825.22 997.763 1825.46 997.6 1825.71 997.456C1825.94 997.368 1826.18 997.224 1826.41 997.135C1827.51 996.692 1828.73 996.672 1829.85 997.076L1841.26 1001.1L2398.82 1197.76L2529.31 1183.98L2602.33 1176.28L2756.89 1159.92L2770.71 1158.47L2773.39 1158.17C2774.55 1158.06 2775.71 1158.37 2776.67 1159.02C2777.63 1159.68 2778.33 1160.65 2778.64 1161.77C2778.72 1162.03 2778.77 1162.3 2778.79 1162.56C2778.9 1163.62 2778.67 1164.69 2778.12 1165.61C2777.58 1166.53 2776.75 1167.24 2775.76 1167.65C2775.32 1167.83 2774.86 1167.95 2774.39 1168.01L2755.59 1169.98L2603.39 1186.07L2550.18 1191.68L2398.76 1207.67C2398.31 1207.69 2397.87 1207.69 2397.43 1207.66C2397.16 1207.57 2396.89 1207.49 2396.57 1207.41L1828.45 1007.08L1826.52 1006.4C1826.08 1006.25 1825.67 1006.02 1825.31 1005.73C1824.45 1005.09 1823.81 1004.21 1823.49 1003.19C1823.17 1002.17 1823.18 1001.08 1823.52 1000.07Z" fill="#3A506B"/>
<path d="M2317.4 1738.77C2316.12 1738.56 2314.97 1737.86 2314.2 1736.81C2313.43 1735.76 2313.11 1734.45 2313.3 1733.17L2393.35 1202.03C2393.55 1200.74 2394.25 1199.58 2395.3 1198.8C2396.35 1198.03 2397.67 1197.7 2398.96 1197.89L2399 1197.9C2400.29 1198.11 2401.44 1198.81 2402.2 1199.86C2402.97 1200.91 2403.29 1202.22 2403.1 1203.5L2323.05 1734.63C2322.86 1735.93 2322.16 1737.09 2321.1 1737.86C2320.05 1738.64 2318.74 1738.97 2317.44 1738.77L2317.4 1738.77Z" fill="#3A506B"/>
<path d="M2520.3 1705.07L2467.06 1710.69L2529.33 1183.96C2529.33 1183.96 2600.44 1171.09 2602.34 1176.25C2603.51 1179.33 2520.81 1701.69 2520.3 1705.07Z" fill="#3A506B"/>
<path d="M1826.53 1006.39L1825.1 1246.59L2250.38 1408.62L2403.1 1203.5L1826.53 1006.39Z" fill="#3A506B"/>
<path d="M2770.72 1158.47C2767.17 1154.01 2762.38 1150.68 2756.96 1148.9L2214.34 968.182C2212.82 967.67 2211.25 967.288 2209.66 967.043C2207.93 966.746 2206.18 966.614 2204.42 966.651L2205.3 961.152L2210.73 957.22L2339.59 863.938L2769.91 995.804L2770.65 1144.95L2770.72 1158.47Z" fill="#3A506B"/>
<path d="M1848.21 1392C1848.82 1392.06 1849.42 1392.18 1850 1392.37L2016.49 1447.05C2018.58 1447.73 2020.31 1449.22 2021.3 1451.18C2022.29 1453.13 2022.46 1455.4 2021.77 1457.49C2021.09 1459.57 2019.61 1461.3 2017.65 1462.29C2015.69 1463.28 2013.42 1463.45 2011.34 1462.77L1844.85 1408.09C1842.91 1407.46 1841.28 1406.13 1840.26 1404.37C1839.25 1402.61 1838.91 1400.53 1839.33 1398.54C1839.75 1396.55 1840.88 1394.78 1842.52 1393.57C1844.16 1392.37 1846.18 1391.81 1848.21 1392Z" fill="#D0FFFF"/>
<path d="M2519.94 2399.66C2556.49 2399.66 2586.11 2370.03 2586.11 2333.49C2586.11 2296.95 2556.49 2267.33 2519.94 2267.33C2483.4 2267.33 2453.78 2296.95 2453.78 2333.49C2453.78 2370.03 2483.4 2399.66 2519.94 2399.66Z" fill="#5BC0BE"/>
<path d="M832.641 2642.25C869.185 2642.25 898.81 2612.63 898.81 2576.09C898.81 2539.55 869.185 2509.92 832.641 2509.92C796.097 2509.92 766.473 2539.55 766.473 2576.09C766.473 2612.63 796.097 2642.25 832.641 2642.25Z" fill="#5BC0BE"/>
<path d="M2211.16 453.404C2247.7 453.404 2277.33 423.783 2277.33 387.243C2277.33 350.703 2247.7 321.081 2211.16 321.081C2174.61 321.081 2144.99 350.703 2144.99 387.243C2144.99 423.783 2174.61 453.404 2211.16 453.404Z" fill="#5BC0BE"/>
<path d="M2319.72 1489.3C2311.15 1493.03 2301.86 1494.83 2292.51 1494.58C2283.16 1494.32 2273.98 1492.03 2265.62 1487.84C2257.26 1483.66 2249.92 1477.7 2244.11 1470.37C2238.3 1463.04 2234.17 1454.53 2232.01 1445.43L2005.87 1422.59L2080.47 1331.03L2283.78 1366.76C2299.31 1364.14 2315.25 1367.31 2328.6 1375.66C2341.94 1384.01 2351.76 1396.97 2356.19 1412.07C2360.62 1427.18 2359.35 1443.38 2352.63 1457.62C2345.91 1471.85 2334.2 1483.12 2319.72 1489.3Z" fill="#FFB8B8"/>
<path d="M2180.63 1452.98L1652.89 1404.36L1652.16 1403.53L1267 962.253C1241.65 923.423 1232.11 876.373 1240.32 830.737C1248.54 785.101 1273.89 744.331 1311.19 716.775C1331.82 701.566 1355.45 690.9 1380.5 685.479C1405.56 680.058 1431.48 680.004 1456.56 685.322C1481.64 690.639 1505.3 701.207 1526 716.33C1546.7 731.453 1563.96 750.787 1576.65 773.061L1813.88 1189.57L2186.44 1339.25L2180.63 1452.98Z" fill="#5BC0BE"/>
<path d="M3505.24 604.367C3492.13 508.246 3475.69 405.046 3407.89 335.658C3386.38 313.641 3360.63 296.209 3332.19 284.412C3303.76 272.614 3273.23 266.697 3242.45 267.015C3211.66 267.334 3181.26 273.882 3153.08 286.265C3124.9 298.648 3099.51 316.61 3078.46 339.067C3029.1 391.714 3007.31 465.638 3005.31 537.771C3003.32 609.905 3019.38 681.236 3037.21 751.161C3131.53 753.045 3225.16 734.619 3311.73 697.133C3333.38 687.738 3354.68 677.116 3377.55 671.295C3400.42 665.474 3416.73 680.121 3438 690.335L3449.68 667.975C3459.24 685.765 3488.84 680.492 3499.58 663.387C3510.32 646.282 3507.96 624.376 3505.24 604.367Z" fill="#0B132B"/>
<path d="M3131.35 1140.87L2746.05 1149.11C2740.13 1138.89 2731.37 1130.6 2720.83 1125.26C2710.28 1119.92 2698.42 1117.76 2686.67 1119.04C2674.93 1120.32 2663.8 1124.99 2654.66 1132.48C2645.52 1139.96 2638.75 1149.94 2635.18 1161.2C2631.61 1172.47 2631.38 1184.52 2634.54 1195.91C2637.7 1207.3 2644.09 1217.52 2652.95 1225.34C2661.82 1233.15 2672.76 1238.23 2684.45 1239.94C2696.14 1241.65 2708.08 1239.93 2718.81 1234.98C2769.91 1237.88 3169.7 1294.62 3193.55 1258.06C3217.76 1220.94 3346.98 1089.97 3346.98 1089.97L3247.66 948.586L3131.35 1140.87Z" fill="#9E616A"/>
<path d="M3225.24 699.467C3325.21 699.467 3406.26 618.427 3406.26 518.46C3406.26 418.492 3325.21 337.452 3225.24 337.452C3125.26 337.452 3044.21 418.492 3044.21 518.46C3044.21 618.427 3125.26 699.467 3225.24 699.467Z" fill="#9E616A"/>
<path d="M3515.18 866.736C3493.85 824.283 3483.48 771.838 3438 758.075C3407.29 748.781 3283.07 762.709 3255.08 778.397C3208.52 804.493 3250.72 853.393 3223.25 899.154C3193.39 948.9 3112.24 1048.73 3082.38 1098.48C3061.85 1132.68 3131 1233.06 3119.9 1271.37C3108.8 1309.68 3108.26 1352.68 3127.17 1387.8C3144.1 1419.23 3119.61 1447.04 3136.63 1478.42C3154.33 1511.06 3176.05 1633.09 3159.58 1666.37L3148.55 1699.45C3257.98 1705.88 3350 1575.15 3458.76 1561.38C3485.77 1557.96 3513.82 1553.49 3536.08 1537.81C3568.87 1514.72 3581.83 1472.81 3589.93 1433.54C3628.92 1241.55 3602.61 1042.05 3515.18 866.736Z" fill="#3A506B"/>
<path d="M3679.26 1314.99C3664.01 1273.39 3636.42 1091.49 3636.42 1091.49L3463.69 1086.43L3548.14 1294.68L3317.7 1617.24C3317.7 1617.24 3318.13 1617.94 3318.91 1619.21C3306.79 1617.26 3294.37 1619.02 3283.27 1624.25C3272.17 1629.48 3262.91 1637.94 3256.7 1648.52C3250.49 1659.1 3247.61 1671.31 3248.45 1683.55C3249.29 1695.79 3253.81 1707.49 3261.41 1717.12C3269.02 1726.76 3279.35 1733.87 3291.06 1737.53C3302.77 1741.19 3315.31 1741.23 3327.05 1737.65C3338.79 1734.07 3349.17 1727.03 3356.83 1717.45C3364.5 1707.87 3369.1 1696.2 3370.02 1683.96C3370.87 1684.45 3371.86 1684.63 3372.82 1684.46C3373.79 1684.29 3374.66 1683.8 3375.3 1683.06C3400.94 1650.88 3694.5 1356.59 3679.26 1314.99Z" fill="#9E616A"/>
<path d="M3696.82 1200.12C3680.96 1133.21 3664.99 1065.94 3638.26 1002.59C3611.53 939.243 3573.27 879.407 3519.45 836.608C3502.25 822.925 3483.01 810.848 3461.44 806.594C3439.87 802.339 3415.57 807.101 3400.42 823.031C3376.18 848.523 3383.47 889.442 3392.36 923.475C3418.58 1023.82 3444.79 1124.17 3471.01 1224.52C3546.71 1216.49 3622.42 1208.47 3698.12 1200.44L3696.82 1200.12Z" fill="#3A506B"/>
<path d="M3447.05 543.566C3440.39 499.778 3433.42 455.624 3417.76 414.393C3402.1 373.163 3376.85 334.545 3340.64 311.188C3283.3 274.209 3209.06 281.341 3144.78 302.612C3095.06 319.063 3046.53 344.066 3011.47 384.263C2976.41 424.46 2956.72 481.817 2969.76 534.376C3038.33 518.176 3106.91 501.976 3175.48 485.775L3167.98 491.079C3190.49 502.306 3210.16 518.513 3225.47 538.473C3240.79 558.432 3251.36 581.618 3256.37 606.27C3261.27 631.223 3260.57 656.953 3254.31 681.599C3248.05 706.246 3236.39 729.193 3220.17 748.781C3266.94 732.192 3313.7 715.603 3360.47 699.015C3389.34 688.775 3420.24 676.977 3437.35 650.714C3457.2 620.264 3452.59 579.905 3447.05 543.566Z" fill="#0B132B"/>
</g>
<defs>
<clipPath id="clip0_23_488">
<rect width="4757" height="3555" fill="white"/>
</clipPath>
</defs>
</svg>
