<svg width="2318" height="1579" viewBox="0 0 2318 1579" fill="none" xmlns="http://www.w3.org/2000/svg">
<g clip-path="url(#clip0_38_294)">
<path d="M1408.82 885.243C1412.77 885.243 1416.56 886.816 1419.36 889.614C1422.16 892.413 1423.73 896.209 1423.73 900.167V1044.54H1709.7C1713.65 1044.54 1717.44 1046.11 1720.24 1048.91C1723.03 1051.71 1724.6 1055.51 1724.6 1059.47C1724.6 1063.42 1723.03 1067.22 1720.24 1070.02C1717.44 1072.82 1713.65 1074.39 1709.7 1074.39H1423.73V1573.67H1393.91V900.167C1393.91 896.209 1395.48 892.413 1398.28 889.614C1401.07 886.816 1404.86 885.243 1408.82 885.243Z" fill="#3A506B"/>
<path d="M612.998 1570.28L559.24 1571.77C551.074 1572.19 542.996 1569.92 536.238 1565.31C530.401 1560.97 527.723 1555.09 528.897 1549.19L539.475 1495.97C541.469 1485.93 553.759 1478.34 568.695 1477.93L598.383 1477.11C613.32 1476.69 626.009 1483.59 628.554 1493.51L642.05 1546.06C643.547 1551.89 641.197 1557.9 635.608 1562.57C629.115 1567.54 621.174 1570.25 612.998 1570.28Z" fill="#1C2541"/>
<path d="M939.98 1568.76L886.223 1570.25C878.057 1570.67 869.978 1568.4 863.221 1563.79C857.383 1559.45 854.705 1553.57 855.879 1547.67L866.458 1494.45C868.451 1484.41 880.742 1476.82 895.678 1476.41L925.366 1475.58C940.302 1475.17 952.992 1482.07 955.536 1491.99L969.033 1544.54C970.53 1550.37 968.18 1556.38 962.591 1561.05C956.098 1566.02 948.156 1568.73 939.98 1568.76Z" fill="#1C2541"/>
<path d="M426.33 1116.95C423.874 1115.89 421.853 1114.03 420.602 1111.66C419.35 1109.29 418.942 1106.57 419.447 1103.94C419.951 1101.31 421.337 1098.94 423.375 1097.2C425.412 1095.47 427.981 1094.48 430.654 1094.41L1041.81 1077.52C1043.35 1077.47 1044.88 1077.74 1046.32 1078.29C1047.76 1078.84 1049.08 1079.67 1050.2 1080.73C1051.32 1081.79 1052.22 1083.06 1052.85 1084.47C1053.48 1085.87 1053.83 1087.39 1053.87 1088.93C1053.95 1092.05 1052.8 1095.07 1050.66 1097.33C1048.52 1099.6 1045.57 1100.92 1042.46 1101.01L431.302 1117.9C429.596 1117.95 427.899 1117.63 426.33 1116.95Z" fill="#1C2541"/>
<path d="M651.879 914.416L477.182 919.245L493.469 1509.69L668.166 1504.87L651.879 914.416Z" fill="#3A506B"/>
<path d="M656.31 903.808L622.728 995.385L622.758 1412.61L663.678 1424.36L656.31 903.808Z" fill="#3A506B"/>
<path d="M563.619 760.108C530.936 761.038 506 817.659 506.6 839.754L507.703 879.756L626.046 876.484L624.943 836.483C624.323 814.388 596.304 759.231 563.619 760.108Z" fill="#1C2541"/>
<path d="M479.448 1163.76C473.342 1163.93 467.421 1161.66 462.984 1157.45C458.547 1153.25 455.956 1147.46 455.781 1141.35L453.985 1076.25C453.816 1070.13 456.081 1064.2 460.281 1059.76C464.481 1055.31 470.272 1052.72 476.38 1052.55C482.489 1052.38 488.414 1054.65 492.852 1058.86C497.291 1063.06 499.879 1068.86 500.048 1074.97L501.844 1140.07C502.005 1146.18 499.738 1152.11 495.54 1156.55C491.341 1161 485.554 1163.59 479.448 1163.76Z" fill="#1C2541"/>
<path d="M523.78 920.645L522.953 877.622L534.224 877.343L535.051 920.227L545.267 1545.27L533.994 1545.58" fill="#1C2541"/>
<path d="M671.91 1021.25L469.323 1026.85C449.973 1003.23 448.216 902.595 488.598 883.442L504.434 856.523L626.527 850.557L640.796 878.899C660.884 896.01 671.242 996.018 671.91 1021.25Z" fill="#3A506B"/>
<path d="M595.66 972.986L544.429 974.402C534.543 974.676 526.138 961.836 525.695 945.785C525.252 929.734 532.937 916.45 542.823 916.176L594.054 914.76C603.94 914.487 612.345 927.326 612.788 943.378C613.231 959.429 605.546 972.713 595.66 972.986Z" fill="#66FFFF"/>
<path d="M496.452 1263.32L390.849 1337.99L372.4 1506.36L495.592 1465.16L496.452 1263.32Z" fill="#3A506B"/>
<path d="M989.108 907.185L814.411 912.014L830.698 1502.46L1005.39 1497.63L989.108 907.185Z" fill="#3A506B"/>
<path d="M818.595 905.78L854.54 996.454L865.326 1413.54L824.723 1426.34L818.595 905.78Z" fill="#3A506B"/>
<path d="M1076.47 743.256C1089.12 743.256 1099.37 729.494 1099.37 712.519C1099.37 695.543 1089.12 681.782 1076.47 681.782C1063.83 681.782 1053.57 695.543 1053.57 712.519C1053.57 729.494 1063.83 743.256 1076.47 743.256Z" fill="#3A506B"/>
<path d="M897.439 752.972C864.756 753.901 839.819 810.523 840.419 832.618L841.522 872.619L959.865 869.348L958.762 829.346C958.143 807.252 930.123 752.094 897.439 752.972Z" fill="#1C2541"/>
<path d="M931.278 934.112L930.451 891.089L941.722 890.807L942.548 933.694L952.765 1558.74L941.491 1559.05" fill="#1C2541"/>
<path d="M1005.73 1014.12L803.142 1019.72C799.61 998.342 804.18 898.604 822.417 876.304L838.253 849.386L960.347 843.419L974.616 871.762C1010.66 874.703 1023.27 972.713 1005.73 1014.12Z" fill="#3A506B"/>
<path d="M929.727 974.833L878.496 976.249C868.61 976.523 860.149 961.668 859.638 943.14C859.127 924.613 866.756 909.313 876.642 909.04L927.873 907.623C937.759 907.35 946.219 922.205 946.731 940.732C947.242 959.26 939.613 974.56 929.727 974.833Z" fill="#66FFFF"/>
<path d="M997.739 1220.15L1099.83 1299.57L1110.58 1468.62L989.399 1421.82L997.739 1220.15Z" fill="#3A506B"/>
<path d="M969.229 437.2C859.686 437.2 733.793 315.51 622.409 373.328C285.168 548.385 331.591 255.454 234.705 146.51L237.885 140.124C311.233 420.205 377.599 866.505 623.874 365.899C685.565 240.498 888.037 434.333 1007.22 428.615L1007.42 436.292C994.838 436.9 982.106 437.202 969.229 437.2Z" fill="#D0FFFF"/>
<path d="M1232.15 454.42C1144.83 520.629 971.076 499.712 917.156 613.124C753.901 956.503 614.234 694.931 471.293 666.644L469.977 659.63C613.07 671.511 766.557 653.077 913.843 606.317C1046.95 564.064 1165.7 501.208 1257.26 424.616L1262.05 430.611C1252.38 438.703 1242.42 446.639 1232.15 454.42Z" fill="#D0FFFF"/>
<path d="M282.262 439.345C294.908 439.345 305.16 425.583 305.16 408.608C305.16 391.632 294.908 377.871 282.262 377.871C269.616 377.871 259.364 391.632 259.364 408.608C259.364 425.583 269.616 439.345 282.262 439.345Z" fill="#3A506B"/>
<path d="M992.443 189.703C1005.09 189.703 1015.34 175.942 1015.34 158.966C1015.34 141.99 1005.09 128.229 992.443 128.229C979.797 128.229 969.545 141.99 969.545 158.966C969.545 175.942 979.797 189.703 992.443 189.703Z" fill="#3A506B"/>
<path d="M491.897 563.4C481.428 570.383 470.714 553.764 481.384 547.092C491.852 540.11 502.566 556.729 491.897 563.4Z" fill="#3A506B"/>
<path d="M879.515 17.9882C869.046 24.9706 858.332 8.35198 869.002 1.67967C879.47 -5.30229 890.184 11.3163 879.515 17.9882Z" fill="#3A506B"/>
<path d="M1107.96 341.36L1101.3 339.898L1102.76 333.228L1098.32 332.254L1096.86 338.924L1090.2 337.464L1089.23 341.909L1095.89 343.371L1094.43 350.038L1098.87 351.012L1100.33 344.343L1106.99 345.805L1107.96 341.36Z" fill="#3A506B"/>
<path d="M497.492 117.873C513.514 117.873 526.502 104.871 526.502 88.8322C526.502 72.7935 513.514 59.7915 497.492 59.7915C481.471 59.7915 468.483 72.7935 468.483 88.8322C468.483 104.871 481.471 117.873 497.492 117.873Z" fill="#FF6584"/>
<path d="M709.682 52.0733C676.998 53.0026 652.062 109.624 652.662 131.719L653.765 171.721L772.108 168.449L771.005 128.448C770.385 106.353 742.366 51.1957 709.682 52.0733Z" fill="#1C2541"/>
<path d="M780.149 1566.8L726.392 1568.28C718.226 1568.7 710.148 1566.44 703.39 1561.83C697.552 1557.48 694.874 1551.6 696.048 1545.7L706.627 1492.48C708.62 1482.44 720.911 1474.85 735.847 1474.44L765.535 1473.62C780.472 1473.21 793.161 1480.11 795.706 1490.02L809.201 1542.57C810.699 1548.4 808.349 1554.42 802.76 1559.08C796.267 1564.05 788.326 1566.76 780.149 1566.8Z" fill="#1C2541"/>
<path d="M804.121 306.723L629.424 311.552L662.347 1505.08L837.044 1500.25L804.121 306.723Z" fill="#3A506B"/>
<path d="M734.219 884.46L733.392 841.438L744.663 841.158L745.489 884.042L755.706 1509.08L744.432 1509.4" fill="#1C2541"/>
<path d="M838.516 415.956L601.809 422.499C597.682 397.525 603.021 280.99 624.33 254.935L630.17 223.833L793.61 219.314L802.162 249.627C825.632 269.62 837.734 386.471 838.516 415.956Z" fill="#3A506B"/>
<path d="M798.777 222.985L630.115 227.647C623.89 227.819 618.749 224.547 618.634 220.338C618.618 219.732 618.707 219.128 618.895 218.552L645.093 137.757C646.215 134.297 650.681 131.756 655.893 131.612L767.745 128.521C772.957 128.377 777.556 130.667 778.867 134.059L809.479 213.284C811.044 217.336 807.429 221.552 801.402 222.702C800.536 222.866 799.658 222.961 798.777 222.985Z" fill="#3A506B"/>
<path d="M646.753 878.972C645.23 878.319 643.792 877.486 642.468 876.489C640.57 875.157 639.003 873.407 637.885 871.375C636.767 869.342 636.129 867.08 636.019 864.763L629.891 642.589C629.638 633.391 638.634 625.655 649.943 625.342L800.933 621.167C812.244 620.852 821.65 628.083 821.905 637.28L828.033 859.456C828.051 861.776 827.538 864.069 826.535 866.16C825.531 868.251 824.062 870.085 822.241 871.52C818.207 874.808 813.181 876.635 807.979 876.702L656.992 880.875C653.481 880.992 649.987 880.343 646.753 878.972Z" fill="#1C2541"/>
<path d="M743.393 208.686L692.162 210.102C682.276 210.375 673.917 199.194 673.53 185.181C673.144 171.168 680.874 159.542 690.76 159.268L741.991 157.852C751.877 157.579 760.236 168.76 760.623 182.773C761.009 196.787 753.279 208.413 743.393 208.686Z" fill="#66FFFF"/>
<path d="M1954.38 1526.42H1894.74V1092.59C1944.62 1089.01 1982.11 1073.72 1982.11 1055.4C1982.11 1034.42 1932.96 1017.41 1872.33 1017.41C1811.7 1017.41 1762.55 1034.42 1762.55 1055.4C1762.55 1073.9 1800.77 1089.3 1851.37 1092.69V1526.42H1791.74C1785.99 1526.42 1780.47 1528.7 1776.41 1532.77C1772.34 1536.85 1770.05 1542.37 1770.05 1548.12C1770.05 1553.88 1772.34 1559.4 1776.41 1563.47C1780.47 1567.55 1785.99 1569.83 1791.74 1569.83H1954.38C1960.13 1569.83 1965.64 1567.55 1969.71 1563.47C1973.78 1559.4 1976.06 1553.88 1976.06 1548.12C1976.06 1542.37 1973.78 1536.85 1969.71 1532.77C1965.64 1528.7 1960.13 1526.42 1954.38 1526.42Z" fill="#3A506B"/>
<path d="M1834.67 1306.17L1815.08 1327.54L1723.42 1262.08L1752.33 1230.54L1834.67 1306.17Z" fill="#A0616A"/>
<path d="M1784.58 1362.58C1784.78 1367.35 1785.91 1372.05 1787.93 1376.38C1789.95 1380.72 1792.8 1384.61 1796.33 1387.83L1797.2 1388.63L1822.89 1360.61L1860.35 1319.73L1832.69 1294.32L1827.7 1299.78L1827.18 1300.34L1802.29 1312.12L1797.02 1314.63L1796.11 1315.05L1794.13 1336.4V1336.42C1790.88 1339.92 1788.37 1344.04 1786.73 1348.54C1785.09 1353.03 1784.36 1357.8 1784.58 1362.58Z" fill="#3A506B"/>
<path d="M1936.16 1519.35L1908.44 1527.78L1862.76 1424.75L1903.68 1412.31L1936.16 1519.35Z" fill="#A0616A"/>
<path d="M1861.65 1570.14L1861.99 1571.29L1951.38 1544.1L1940.47 1508.15L1933.41 1510.3L1932.67 1510.52L1899.44 1507.47L1898.45 1507.38L1885.88 1524.75C1876.65 1527.56 1868.92 1533.91 1864.38 1542.42C1859.83 1550.94 1858.85 1560.91 1861.65 1570.14Z" fill="#3A506B"/>
<path d="M1707.57 979.918C1707.57 979.918 1530.58 1150.98 1642.47 1203.93H1677.05C1684.57 1179.47 1696.13 1156.44 1711.24 1135.8C1714.51 1131.52 1726.75 1132.39 1730.15 1128.22C1750.9 1102.75 1773.4 1080.88 1788.94 1081.74L1785.22 1199.94L1779.21 1242.1C1776.05 1263.89 1865.21 1454.19 1865.21 1454.19L1921.25 1432.14C1921.25 1432.14 1862.86 1275.4 1862.18 1252.81L1908.97 1004.36L1707.57 979.918Z" fill="#3A506B"/>
<path d="M1692.81 988.355C1693.71 989.643 1694.89 990.713 1696.26 991.487C1698.52 992.763 1700.96 993.671 1703.5 994.177C1743.35 1003.23 1873.53 1022 1907.32 1013.05C1911.47 1011.96 1914.18 1010.44 1915.06 1008.43C1917.89 1002.09 1917.53 975.286 1915.86 942.923C1915.56 936.86 1908.88 930.295 1908.48 923.951C1908.2 919.193 1914.2 914.716 1913.88 909.877C1911.67 877.153 1908.82 843.807 1906.92 822.727C1905.71 809.175 1904.89 800.703 1904.89 800.703L1925.45 670.951L1924.49 669.365L1923.4 668.823L1857.12 635.978L1853.51 626.743C1852.47 624.084 1850.65 621.8 1848.29 620.186C1845.94 618.572 1843.15 617.702 1840.3 617.689L1796.64 617.508C1794.37 617.496 1792.14 618.025 1790.12 619.051C1788.1 620.078 1786.35 621.572 1785.02 623.41L1773.19 639.813L1694.98 690.003L1695.28 690.927L1731.98 802.731L1732.16 811.444V811.464L1733.52 881.53L1729.73 891.026L1734 906.605C1734 906.605 1732.04 924.814 1721.51 938.345C1711.96 950.632 1699.81 963.44 1694.32 973.84V973.86C1691.27 979.602 1690.24 984.581 1692.81 988.355Z" fill="#66FFFF"/>
<path d="M1633.97 1193.77L1643.43 1205.74C1643.43 1205.74 1730.44 1266.67 1733.43 1272.37L1747.18 1285.39L1780.45 1249.79L1763.14 1228.08C1749.3 1210.71 1731.41 1197 1711.04 1188.15L1684.53 1164.6L1633.97 1193.77Z" fill="#3A506B"/>
<path d="M1947.37 1028.77L1931.53 875.247L1927.35 812.061L1971.69 804.034C1971.69 804.034 1969.94 849.213 1975.75 874.704C1981.48 899.858 1976.51 1025.4 1976.15 1028.76C1979.41 1031.67 1981.71 1035.51 1982.74 1039.76C1983.77 1044.01 1983.49 1048.47 1981.93 1052.56C1980.37 1056.64 1977.61 1060.16 1974.01 1062.64C1970.41 1065.12 1966.15 1066.45 1961.78 1066.46C1957.41 1066.46 1953.14 1065.13 1949.54 1062.65C1945.94 1060.18 1943.18 1056.66 1941.62 1052.58C1940.06 1048.49 1939.77 1044.03 1940.8 1039.78C1941.83 1035.53 1944.12 1031.69 1947.37 1028.77Z" fill="#A0616A"/>
<path d="M1894.56 796.266L1906.92 822.727L1911.23 831.942L1922.84 892.813L1928.64 898.976L1933.63 918.872L1935.98 918.39L1978.29 909.616L1990.63 907.067C1993.41 902.43 1994.5 896.975 1993.73 891.623C1992.95 886.271 1990.36 881.351 1986.38 877.695C1985.53 876.932 1984.83 876.19 1984.85 875.487C1985.55 833.146 1982.97 755.833 1959.6 724.012C1952.18 713.914 1947.73 703.856 1941.25 696.829C1941.23 696.809 1941.23 696.789 1941.21 696.789L1925.45 670.951L1924.49 669.365L1923.4 668.823L1894.56 796.266Z" fill="#66FFFF"/>
<path d="M1821.88 606.633C1853.96 606.633 1879.97 580.597 1879.97 548.481C1879.97 516.365 1853.96 490.329 1821.88 490.329C1789.8 490.329 1763.79 516.365 1763.79 548.481C1763.79 580.597 1789.8 606.633 1821.88 606.633Z" fill="#A0616A"/>
<path d="M1890.86 535.969C1892.56 526.197 1893.89 513.528 1889.01 502.266C1884.89 492.788 1874.59 483.902 1863.14 485.101C1863.68 482.961 1863.62 480.713 1862.96 478.606C1862.31 476.499 1861.08 474.615 1859.42 473.164C1855.69 470.234 1851.34 468.188 1846.71 467.183C1835.95 464.016 1824.8 460.733 1813.28 460.672C1800.36 460.601 1788.92 465.032 1781.89 472.845L1781.72 473.098L1779.62 478.128C1779.34 478.802 1778.91 479.408 1778.38 479.903C1777.84 480.399 1777.2 480.771 1776.5 480.997C1775.81 481.226 1775.07 481.299 1774.34 481.21C1773.61 481.121 1772.91 480.872 1772.29 480.48C1771.61 480.061 1770.83 479.827 1770.04 479.801C1769.24 479.775 1768.44 479.958 1767.74 480.332C1767.03 480.707 1766.44 481.259 1766.01 481.935C1765.58 482.611 1765.33 483.387 1765.3 484.186L1765.19 486.333L1762.17 485.13C1761.42 484.824 1760.59 484.726 1759.79 484.845C1758.98 484.965 1758.22 485.298 1757.58 485.809C1756.95 486.321 1756.46 486.993 1756.17 487.757C1755.88 488.52 1755.8 489.347 1755.94 490.151L1756.34 492.705C1755.69 492.587 1755.03 492.601 1754.39 492.746C1753.74 492.891 1753.14 493.164 1752.6 493.549C1751.84 494.112 1751.27 494.905 1750.98 495.812C1750.69 496.719 1750.7 497.694 1751 498.596C1753.34 505.275 1757.34 511.251 1762.62 515.961C1764.99 518.104 1767.64 519.91 1770.5 521.327C1771.1 521.627 1771.71 521.911 1772.36 522.18C1795.51 532.117 1820.28 537.733 1845.44 538.754C1843.06 543.298 1841.53 548.237 1840.9 553.331C1840.56 556.221 1841.01 559.15 1842.22 561.801C1843.42 564.452 1845.32 566.723 1847.72 568.367C1848.76 568.963 1849.85 569.464 1850.98 569.864C1852.06 570.263 1853.11 570.748 1854.11 571.314C1855.58 572.204 1856.79 573.467 1857.62 574.975C1858.44 576.483 1858.86 578.182 1858.82 579.901C1858.77 581.62 1858.28 583.298 1857.38 584.765C1856.49 586.232 1855.22 587.436 1853.71 588.255C1853.71 588.255 1858.03 593.538 1858.73 593.448C1861.48 592.823 1863.97 591.349 1865.84 589.234C1878.42 577.006 1886.84 559.095 1890.86 535.969Z" fill="#3A506B"/>
<path d="M2145.17 1434.88L2147.7 1378.05C2174.02 1363.96 2203.37 1356.52 2233.22 1356.38C2192.14 1389.99 2197.28 1454.79 2169.43 1500C2160.64 1514.03 2148.8 1525.9 2134.8 1534.73C2120.8 1543.56 2105 1549.13 2088.56 1551.01L2054.19 1572.08C2049.47 1545.76 2050.51 1518.73 2057.24 1492.85C2063.96 1466.97 2076.21 1442.86 2093.14 1422.17C2102.75 1410.66 2113.77 1400.41 2125.94 1391.66C2134.18 1413.39 2145.17 1434.88 2145.17 1434.88Z" fill="#D0FFFF"/>
<path d="M2318 1574.79C2318 1575.34 2317.89 1575.89 2317.68 1576.4C2317.47 1576.91 2317.16 1577.38 2316.77 1577.77C2316.38 1578.16 2315.91 1578.47 2315.4 1578.68C2314.89 1578.89 2314.34 1579 2313.79 1579H4.21019C3.09358 1579 2.02269 1578.56 1.23313 1577.77C0.443566 1576.98 0 1575.9 0 1574.79C0 1573.67 0.443566 1572.6 1.23313 1571.81C2.02269 1571.01 3.09358 1570.57 4.21019 1570.57H2313.79C2314.34 1570.57 2314.89 1570.68 2315.4 1570.89C2315.91 1571.1 2316.38 1571.41 2316.77 1571.8C2317.16 1572.19 2317.47 1572.66 2317.68 1573.17C2317.89 1573.68 2318 1574.23 2318 1574.79Z" fill="#3A506B"/>
<path d="M993.435 1149.34C987.329 1149.51 981.408 1147.24 976.971 1143.03C972.534 1138.83 969.943 1133.04 969.768 1126.92L967.972 1061.83C967.811 1055.72 970.079 1049.79 974.279 1045.35C978.478 1040.92 984.265 1038.33 990.368 1038.16C996.471 1037.99 1002.39 1040.26 1006.83 1044.45C1011.27 1048.65 1013.86 1054.44 1014.03 1060.55L1015.83 1125.65C1015.99 1131.76 1013.72 1137.69 1009.53 1142.13C1005.33 1146.57 999.541 1149.17 993.435 1149.34Z" fill="#1C2541"/>
<path d="M2009.53 1387.27C1974.53 1387.27 1936.17 1385.94 1894.44 1383.3C1678.64 1369.58 1399.11 1321.88 1107.35 1249C815.581 1176.12 546.437 1086.75 349.497 997.365C253.561 953.822 179.931 912.605 130.655 874.858C78.4833 834.896 55.6628 800.063 62.8245 771.33C76.7787 715.354 200.337 703.107 301.532 702.691L301.566 710.832C162.598 711.403 80.6143 733.589 70.7155 773.302C58.1061 823.882 160.943 902.846 352.855 989.951C549.363 1079.14 818.011 1168.33 1109.31 1241.1C1400.62 1313.87 1679.63 1361.48 1894.96 1375.17C2105.24 1388.54 2233.09 1367.2 2245.7 1316.62C2256.17 1274.62 2187.15 1212.76 2051.38 1142.42L2055.11 1135.19C2153.77 1186.3 2268.29 1259.61 2253.59 1318.59C2246.43 1347.32 2209.93 1367.34 2145.12 1378.08C2108.18 1384.2 2062.8 1387.27 2009.53 1387.27Z" fill="#3A506B"/>
<path d="M151.953 1333.94C124.18 1333.94 106.124 1327.03 98.1327 1313.3C82.3732 1286.22 108.767 1238.69 176.58 1172.06L182.277 1177.87C119.286 1239.77 91.8975 1286.41 105.158 1309.2C113.549 1323.62 138.522 1328.78 177.392 1324.14C215.978 1319.52 267.115 1305.78 329.381 1283.28C457.568 1236.97 618.393 1158.85 782.229 1063.32C946.06 967.783 1093.27 866.273 1196.75 777.491C1216.63 760.435 1234.67 744.027 1250.37 728.726C1270.98 709.13 1289.99 687.918 1307.23 665.292C1330.44 633.742 1338.27 609.445 1329.88 595.027C1315.87 570.946 1257 573.211 1164.11 601.412L1161.75 593.621C1261.41 563.369 1320.34 562.461 1336.91 590.93C1347.2 608.618 1339.42 635.262 1313.77 670.12C1296.28 693.104 1276.97 714.653 1256.04 734.558C1240.22 749.98 1222.05 766.503 1202.05 783.672C1098.2 872.765 950.564 974.577 786.322 1070.35C622.076 1166.13 460.777 1244.47 332.142 1290.94C269.296 1313.65 217.555 1327.53 178.355 1332.22C169.596 1333.31 160.78 1333.89 151.953 1333.94Z" fill="#3A506B"/>
<path d="M1636.13 999.712C1616.03 999.311 1508.08 996.21 1490.38 996.972C1489.38 993.463 1455.82 1036.51 1455 1036.78C1454.46 1037.36 1454.06 1038.05 1453.85 1038.82C1453.63 1039.58 1453.6 1040.38 1453.76 1041.16C1453.92 1041.93 1454.27 1042.66 1454.77 1043.27C1455.27 1043.88 1455.92 1044.36 1456.64 1044.67C1458.62 1045.87 1632.65 1042.65 1634.76 1043.07C1635.67 1043.05 1636.56 1042.78 1637.32 1042.28C1638.09 1041.79 1638.7 1041.08 1639.08 1040.25L1640.24 1037.64C1640.36 1033.18 1641.82 1010.38 1640.51 1006.48C1640.83 1005.75 1640.97 1004.95 1640.9 1004.15C1640.84 1003.35 1640.58 1002.58 1640.14 1001.91C1639.71 1001.24 1639.12 1000.69 1638.41 1000.31C1637.71 999.922 1636.93 999.718 1636.13 999.712Z" fill="#3A506B"/>
<path opacity="0.17" d="M1640.24 1037.64C1639.22 1040.1 1637.91 1043.18 1634.76 1043.07L1458.48 1045.05C1457.65 1045.04 1456.83 1044.82 1456.11 1044.4C1455.39 1043.98 1454.78 1043.39 1454.36 1042.67C1453.93 1041.95 1453.7 1041.14 1453.67 1040.3C1453.65 1039.47 1453.85 1038.64 1454.24 1037.91L1640.24 1037.64Z" fill="#060B19"/>
<path d="M1491.2 996.444C1489.31 993.159 1442.18 759.724 1438.25 757.772L1406.07 718.369L1403.19 716.204C1399.2 714.005 1389.6 715.492 1390.47 721.606C1398.03 757.886 1446.65 964.514 1447.71 996.728L1453.56 1037.77C1453.67 1038.47 1453.92 1039.14 1454.3 1039.73C1454.67 1040.33 1455.17 1040.84 1455.76 1041.23C1456.35 1041.62 1457.01 1041.88 1457.71 1042C1458.4 1042.12 1459.11 1042.09 1459.8 1041.92C1461.47 1041.74 1463.08 1041.12 1464.44 1040.13C1465.81 1039.14 1466.9 1037.82 1467.6 1036.28C1468.04 1034.83 1493.41 997.285 1491.2 996.444Z" fill="#3A506B"/>
<path opacity="0.17" d="M1406.06 718.37L1467.6 1036.29C1465.54 1041.5 1455.91 1045.15 1453.67 1038.31C1453.63 1038.3 1390.54 721.802 1390.47 721.613C1389.8 713.996 1402.37 713.754 1406.06 718.37Z" fill="#060B19"/>
<path d="M1407.92 731.371L1439.17 774.982L1474.25 941.767L1457.94 956.007L1407.92 731.371Z" fill="#66FFFF"/>
<path d="M1615.96 1022.2L1624.6 1022.55C1624.74 1020.02 1625.16 1017.51 1625.85 1015.06C1627.15 1008.88 1628.32 1001.52 1622.92 1001.55C1619.26 1001.2 1618.02 1005.84 1617.37 1010.89C1617.2 1014.69 1616.73 1018.47 1615.96 1022.2Z" fill="#3A506B"/>
<path d="M1566.35 1010.56L1572.18 1010.78L1575 1010.89C1574.95 1007.79 1576.38 1001.42 1572.88 999.841C1572.33 999.602 1571.73 999.482 1571.12 999.489C1567.84 999.299 1566.87 1001.8 1566.57 1004.67C1566.38 1006.41 1566.46 1008.25 1566.41 1009.69C1566.41 1009.99 1566.38 1010.29 1566.35 1010.56Z" fill="#3A506B"/>
<path d="M1549.09 1009.85L1554.94 1010.1L1557.73 1010.21C1557.68 1006.65 1559.55 998.892 1553.86 998.784C1548.6 998.485 1549.28 1005.19 1549.14 1008.99C1549.14 1009.28 1549.11 1009.58 1549.09 1009.85Z" fill="#3A506B"/>
<path d="M1531.82 1009.18L1537.65 1009.39L1540.47 1009.5C1540.41 1005.97 1542.28 998.213 1536.59 998.105C1531.33 997.779 1532.01 1004.48 1531.87 1008.31C1531.87 1008.61 1531.85 1008.9 1531.82 1009.18Z" fill="#3A506B"/>
<path d="M1514.55 1008.47L1520.41 1008.71L1523.2 1008.82C1523.15 1005.27 1525.02 997.535 1519.32 997.399C1514.06 997.101 1514.74 1003.8 1514.61 1007.6C1514.61 1007.9 1514.58 1008.2 1514.55 1008.47Z" fill="#3A506B"/>
<path d="M1497.29 1007.79L1503.11 1008.01L1505.93 1008.12C1505.88 1004.86 1507.45 998.051 1503.28 996.884H1503.25C1502.86 996.769 1502.46 996.714 1502.06 996.721C1501.56 996.677 1501.07 996.723 1500.59 996.857H1500.57C1496.93 997.807 1497.45 1003.5 1497.34 1006.92C1497.34 1007.22 1497.31 1007.52 1497.29 1007.79Z" fill="#3A506B"/>
<path d="M1598.53 1005.95L1607.17 1006.3C1607.17 1005.97 1607.17 1005.62 1607.2 1005.21C1607.42 1003.15 1607.45 1001.07 1607.31 999.001C1607.01 996.721 1606.04 994.93 1603.3 994.876C1600.51 994.713 1599.39 996.504 1598.96 998.811C1598.86 999.203 1598.79 999.602 1598.74 1000V1000.03C1598.53 1002.15 1598.66 1004.43 1598.53 1005.95Z" fill="#3A506B"/>
<path d="M1581.26 1005.24L1589.91 1005.59C1590.09 1003.27 1590.15 1000.93 1590.07 998.593C1589.83 996.205 1588.88 994.252 1586.03 994.197C1583.16 994.007 1582.05 995.961 1581.61 998.376C1581.21 1000.71 1581.42 1003.5 1581.26 1005.24Z" fill="#3A506B"/>
<path d="M1563.99 1004.56L1566.57 1004.67L1572.64 1004.92C1572.61 1003.61 1572.86 1001.71 1572.88 999.841C1572.91 999.28 1572.89 998.718 1572.83 998.159C1572.61 995.636 1571.72 993.546 1568.76 993.492C1565.76 993.329 1564.7 995.418 1564.32 997.969C1563.94 1000.25 1564.16 1002.88 1563.99 1004.56Z" fill="#3A506B"/>
<path d="M1598.69 1021.52L1607.34 1021.85C1607.31 1018.32 1609.15 1010.56 1603.46 1010.45C1597.77 1010.1 1599.02 1017.97 1598.69 1021.52Z" fill="#3A506B"/>
<path d="M1581.42 1020.82L1590.07 1021.17C1590.04 1017.61 1591.89 1009.85 1586.19 1009.75C1580.5 1009.42 1581.75 1017.29 1581.42 1020.82Z" fill="#3A506B"/>
<path d="M1564.16 1020.14L1572.8 1020.46C1572.78 1017.94 1573.73 1013.27 1572.18 1010.78C1571.84 1010.22 1571.36 1009.77 1570.79 1009.47C1570.22 1009.17 1569.57 1009.03 1568.93 1009.07C1568.04 1008.97 1567.15 1009.19 1566.41 1009.69C1563.64 1011.51 1564.43 1017.26 1564.16 1020.14Z" fill="#3A506B"/>
<path d="M1546.89 1019.43L1555.54 1019.79C1555.51 1017.26 1556.43 1012.62 1554.94 1010.1C1554.6 1009.54 1554.12 1009.08 1553.54 1008.77C1552.96 1008.47 1552.31 1008.32 1551.66 1008.36C1550.77 1008.26 1549.88 1008.49 1549.14 1008.99C1546.38 1010.86 1547.16 1016.58 1546.89 1019.43Z" fill="#3A506B"/>
<path d="M1529.62 1018.75L1538.27 1019.08C1538.24 1016.56 1539.19 1011.89 1537.65 1009.39C1537.31 1008.84 1536.83 1008.39 1536.26 1008.09C1535.68 1007.79 1535.04 1007.65 1534.39 1007.68C1533.51 1007.59 1532.61 1007.81 1531.87 1008.31C1529.11 1010.13 1529.89 1015.88 1529.62 1018.75Z" fill="#3A506B"/>
<path d="M1512.36 1018.05L1521 1018.4C1520.98 1015.88 1521.9 1011.24 1520.41 1008.71C1520.07 1008.15 1519.59 1007.69 1519.01 1007.38C1518.43 1007.08 1517.78 1006.94 1517.13 1006.98C1516.24 1006.88 1515.35 1007.1 1514.61 1007.6C1511.84 1009.47 1512.63 1015.2 1512.36 1018.05Z" fill="#3A506B"/>
<path d="M1495.09 1017.37L1503.74 1017.7C1503.71 1015.17 1504.63 1010.53 1503.11 1008.01C1502.78 1007.45 1502.3 1007 1501.73 1006.7C1501.15 1006.4 1500.51 1006.26 1499.86 1006.3C1498.97 1006.21 1498.08 1006.43 1497.34 1006.92C1494.58 1008.77 1495.36 1014.49 1495.09 1017.37Z" fill="#3A506B"/>
<path d="M1592.74 992.287L1658.65 852.758L1683.56 794.554L1644.4 772.231C1644.4 772.231 1631.06 815.428 1617.12 837.538C1603.37 859.355 1566.38 979.417 1565.6 982.701C1561.56 984.367 1558.13 987.222 1555.74 990.888C1553.36 994.553 1552.14 998.857 1552.26 1003.23C1552.37 1007.6 1553.8 1011.84 1556.37 1015.37C1558.94 1018.91 1562.53 1021.58 1566.65 1023.04C1570.77 1024.49 1575.23 1024.66 1579.45 1023.52C1583.67 1022.38 1587.44 1019.99 1590.27 1016.66C1593.1 1013.32 1594.85 1009.21 1595.29 1004.86C1595.73 1000.51 1594.84 996.122 1592.74 992.287Z" fill="#A0616A"/>
<path d="M1592.34 863.104L1642.18 893.205L1653.49 876.102L1661.02 872.215L1692.17 818.658L1719.72 790.564L1756.11 674.103L1708.76 681.215L1708.7 681.235C1700.26 685.714 1692.72 693.722 1682.37 700.78C1649.77 723.018 1621.67 795.078 1608.27 835.257C1608.05 835.916 1607.15 836.376 1606.11 836.825C1601.14 838.95 1597.06 842.725 1594.55 847.512C1592.04 852.3 1591.26 857.807 1592.34 863.104Z" fill="#66FFFF"/>
</g>
<defs>
<clipPath id="clip0_38_294">
<rect width="2318" height="1579" fill="white"/>
</clipPath>
</defs>
</svg>
