<svg width="5936" height="3624" viewBox="0 0 5936 3624" fill="none" xmlns="http://www.w3.org/2000/svg">
<g clip-path="url(#clip0_23_361)">
<path d="M3045.16 2930.61L970.011 3464.96C899.62 3483 824.947 3472.38 762.374 3435.44C699.801 3398.49 654.438 3338.24 636.236 3267.89L8.69455 830.895C-9.34644 760.506 1.27066 685.836 38.2166 623.265C75.1626 560.694 135.42 515.333 205.77 497.132L2136.35 0.0078125L2630.45 221.2L3242.23 2596.84C3260.27 2667.23 3249.66 2741.9 3212.71 2804.47C3175.77 2867.04 3115.51 2912.41 3045.16 2930.61Z" fill="#5BC0BE"/>
<path d="M225.41 573.539C175.312 586.499 132.4 618.801 106.09 663.359C79.7792 707.916 72.218 761.09 85.0648 811.216L712.646 3248.22C725.607 3298.31 757.91 3341.22 802.469 3367.53C847.029 3393.84 900.205 3401.4 950.332 3388.56L3025.48 2854.22C3075.57 2841.26 3118.49 2808.95 3144.8 2764.4C3171.11 2719.84 3178.67 2666.66 3165.82 2616.54L2563.52 277.69L2129.27 83.293L225.41 573.539Z" fill="#D0FFFF"/>
<path d="M2625.18 233.794L2304.03 316.493C2280.58 322.529 2255.7 319.005 2234.85 306.696C2214 294.387 2198.9 274.301 2192.86 250.857L2131.78 13.663C2131.51 12.6251 2131.55 11.5334 2131.87 10.5127C2132.2 9.49201 2132.8 8.58357 2133.62 7.89144C2134.44 7.19931 2135.44 6.75149 2136.5 6.59907C2137.56 6.44665 2138.64 6.59579 2139.62 7.02958L2626.08 223.055C2627.16 223.537 2628.07 224.343 2628.67 225.362C2629.27 226.381 2629.54 227.562 2629.44 228.742C2629.35 229.923 2628.88 231.043 2628.12 231.948C2627.36 232.853 2626.33 233.498 2625.18 233.794Z" fill="#5BC0BE"/>
<path d="M2456.23 2314.91L1511.44 2558.22C1499.75 2561.16 1487.36 2559.35 1476.99 2553.19C1466.63 2547.03 1459.12 2537.02 1456.11 2525.34C1453.1 2513.66 1454.84 2501.26 1460.94 2490.86C1467.05 2480.46 1477.02 2472.89 1488.68 2469.82L2433.46 2226.52C2439.28 2224.98 2445.34 2224.62 2451.3 2225.43C2457.26 2226.25 2463 2228.24 2468.19 2231.28C2473.38 2234.33 2477.92 2238.37 2481.54 2243.17C2485.16 2247.97 2487.8 2253.44 2489.3 2259.27C2490.8 2265.1 2491.13 2271.16 2490.28 2277.11C2489.43 2283.07 2487.41 2288.8 2484.33 2293.97C2481.26 2299.14 2477.19 2303.65 2472.37 2307.25C2467.55 2310.84 2462.06 2313.45 2456.23 2314.91Z" fill="#D0FFFF"/>
<path d="M2676.96 2417.13L1549.85 2707.37C1544.03 2708.9 1537.97 2709.27 1532.01 2708.45C1526.05 2707.63 1520.31 2705.65 1515.12 2702.6C1509.93 2699.56 1505.4 2695.52 1501.78 2690.72C1498.15 2685.91 1495.52 2680.44 1494.02 2674.62C1492.52 2668.79 1492.18 2662.73 1493.04 2656.77C1493.89 2650.82 1495.91 2645.09 1498.98 2639.92C1502.06 2634.75 1506.12 2630.24 1510.94 2626.64C1515.77 2623.05 1521.25 2620.44 1527.09 2618.97L2654.2 2328.74C2665.89 2325.79 2678.28 2327.6 2688.65 2333.76C2699.02 2339.92 2706.52 2349.94 2709.53 2361.62C2712.54 2373.3 2710.8 2385.69 2704.7 2396.09C2698.59 2406.5 2688.62 2414.06 2676.96 2417.13Z" fill="#D0FFFF"/>
<path d="M1125.83 2851.21C1214.93 2851.21 1287.16 2778.99 1287.16 2689.9C1287.16 2600.8 1214.93 2528.58 1125.83 2528.58C1036.74 2528.58 964.511 2600.8 964.511 2689.9C964.511 2778.99 1036.74 2851.21 1125.83 2851.21Z" fill="#66FFFF"/>
<path d="M2355.76 1892.75L1100.99 2215.73C1064.72 2225.02 1026.26 2219.55 994.023 2200.51C961.79 2181.48 938.424 2150.43 929.052 2114.19L666.108 1092.72C656.825 1056.46 662.303 1018 681.338 985.778C700.374 953.553 731.413 930.193 767.649 920.822L2022.42 597.838C2058.68 588.546 2097.15 594.019 2129.38 613.054C2161.61 632.09 2184.98 663.134 2194.35 699.376L2457.3 1720.85C2466.59 1757.11 2461.11 1795.56 2442.07 1827.79C2423.04 1860.01 2392 1883.37 2355.76 1892.75Z" fill="#D0FFFF"/>
<path d="M2355.76 1892.75L1100.99 2215.73C1064.72 2225.02 1026.26 2219.55 994.023 2200.51C961.79 2181.48 938.424 2150.43 929.052 2114.19L666.108 1092.72C656.825 1056.46 662.303 1018 681.338 985.778C700.374 953.553 731.413 930.193 767.649 920.822L2022.42 597.838C2058.68 588.546 2097.15 594.019 2129.38 613.054C2161.61 632.09 2184.98 663.134 2194.35 699.376L2457.3 1720.85C2466.59 1757.11 2461.11 1795.56 2442.07 1827.79C2423.04 1860.01 2392 1883.37 2355.76 1892.75ZM771.786 936.878C739.814 945.156 712.43 965.775 695.641 994.215C678.852 1022.65 674.028 1056.59 682.228 1088.58L945.181 2110.05C953.458 2142.03 974.079 2169.41 1002.52 2186.2C1030.96 2202.99 1064.9 2207.81 1096.89 2199.61L2351.63 1876.66C2383.61 1868.38 2410.99 1847.76 2427.78 1819.32C2444.57 1790.88 2449.39 1756.94 2441.19 1724.95L2178.26 703.481C2169.99 671.51 2149.36 644.127 2120.92 627.338C2092.48 610.55 2058.55 605.726 2026.55 613.926L771.786 936.878Z" fill="#3A506B"/>
<path d="M1958.76 941.27L1325.51 1104.28C1319.97 1105.82 1314.06 1105.21 1308.96 1102.56C1303.86 1099.91 1299.95 1095.43 1298.03 1090.01C1297.14 1087.18 1296.83 1084.2 1297.13 1081.24C1297.43 1078.29 1298.32 1075.43 1299.76 1072.83C1301.2 1070.24 1303.16 1067.96 1305.51 1066.15C1307.85 1064.33 1310.55 1063.01 1313.42 1062.27L1958.04 896.342C1984.09 909.537 1977.23 936.523 1958.77 941.278L1958.76 941.27Z" fill="#5BC0BE"/>
<path d="M1987.33 1052.31L1354.08 1215.31C1348.55 1216.86 1342.63 1216.25 1337.53 1213.6C1332.43 1210.95 1328.52 1206.47 1326.6 1201.05C1325.71 1198.22 1325.4 1195.24 1325.7 1192.28C1326 1189.33 1326.89 1186.47 1328.33 1183.87C1329.77 1181.27 1331.73 1179 1334.08 1177.18C1336.43 1175.37 1339.12 1174.05 1341.99 1173.31L1986.62 1007.38C2012.66 1020.58 2005.8 1047.56 1987.34 1052.32L1987.33 1052.31Z" fill="#5BC0BE"/>
<path d="M1233.47 1313.83L1040.21 1363.56C1037.08 1364.36 1033.83 1364.54 1030.63 1364.09C1027.44 1363.64 1024.36 1362.56 1021.58 1360.92C1018.8 1359.28 1016.37 1357.11 1014.44 1354.53C1012.5 1351.95 1011.08 1349.01 1010.28 1345.88L951.568 1117.87C950.763 1114.75 950.581 1111.5 951.034 1108.3C951.486 1105.1 952.563 1102.03 954.205 1099.25C955.846 1096.47 958.019 1094.04 960.599 1092.1C963.179 1090.16 966.116 1088.75 969.242 1087.95L1162.51 1038.2C1168.82 1036.59 1175.51 1037.54 1181.12 1040.85C1186.73 1044.17 1190.8 1049.57 1192.43 1055.88L1251.14 1283.94C1251.95 1287.06 1252.13 1290.32 1251.68 1293.51C1251.23 1296.71 1250.15 1299.78 1248.51 1302.56C1246.87 1305.34 1244.69 1307.77 1242.11 1309.71C1239.53 1311.65 1236.6 1313.06 1233.47 1313.86V1313.83Z" fill="#66FFFF"/>
<path d="M2044.05 1280.25L1077.58 1529.02C1072.04 1530.56 1066.13 1529.95 1061.03 1527.3C1055.92 1524.65 1052.02 1520.17 1050.1 1514.75C1049.2 1511.92 1048.9 1508.94 1049.19 1505.99C1049.49 1503.03 1050.39 1500.17 1051.83 1497.57C1053.27 1494.98 1055.22 1492.7 1057.57 1490.89C1059.92 1489.07 1062.62 1487.76 1065.49 1487.02L2043.34 1235.31C2069.38 1248.51 2062.52 1275.49 2044.05 1280.25Z" fill="#5BC0BE"/>
<path d="M2072.67 1391.34L1106.18 1640.12C1100.64 1641.67 1094.73 1641.05 1089.63 1638.41C1084.53 1635.76 1080.62 1631.27 1078.7 1625.86C1077.81 1623.03 1077.5 1620.04 1077.8 1617.09C1078.1 1614.14 1078.99 1611.27 1080.43 1608.68C1081.87 1606.08 1083.83 1603.81 1086.18 1601.99C1088.52 1600.18 1091.22 1598.86 1094.09 1598.12L2071.94 1346.41C2097.99 1359.61 2091.13 1386.59 2072.66 1391.35L2072.67 1391.34Z" fill="#5BC0BE"/>
<path d="M2101.24 1502.39L1134.76 1751.16C1129.22 1752.71 1123.31 1752.09 1118.21 1749.45C1113.11 1746.8 1109.2 1742.31 1107.28 1736.9C1106.39 1734.07 1106.08 1731.08 1106.38 1728.13C1106.68 1725.17 1107.57 1722.31 1109.01 1719.72C1110.45 1717.12 1112.41 1714.85 1114.75 1713.03C1117.1 1711.22 1119.8 1709.9 1122.67 1709.16L2100.51 1457.45C2126.56 1470.65 2119.7 1497.63 2101.24 1502.39Z" fill="#5BC0BE"/>
<path d="M2129.85 1613.48L1163.36 1862.26C1157.83 1863.8 1151.91 1863.19 1146.81 1860.54C1141.71 1857.89 1137.81 1853.41 1135.88 1847.99C1134.99 1845.16 1134.68 1842.18 1134.98 1839.22C1135.28 1836.27 1136.17 1833.41 1137.61 1830.81C1139.06 1828.22 1141.01 1825.94 1143.36 1824.13C1145.71 1822.31 1148.4 1820.99 1151.28 1820.25L2129.12 1568.55C2155.16 1581.74 2148.31 1608.73 2129.85 1613.48Z" fill="#5BC0BE"/>
<path d="M2158.43 1724.53L1191.95 1973.3C1186.41 1974.84 1180.5 1974.23 1175.4 1971.58C1170.3 1968.93 1166.39 1964.45 1164.47 1959.03C1163.58 1956.2 1163.27 1953.22 1163.57 1950.26C1163.87 1947.31 1164.76 1944.45 1166.2 1941.85C1167.64 1939.26 1169.6 1936.98 1171.95 1935.17C1174.29 1933.35 1176.99 1932.03 1179.86 1931.29L2157.71 1679.59C2183.75 1692.79 2176.89 1719.77 2158.43 1724.53Z" fill="#5BC0BE"/>
<path d="M1137.74 2746.44C1134.23 2747.35 1130.51 2747.1 1127.16 2745.71L1126.95 2745.62L1083.01 2726.99C1080.97 2726.13 1079.12 2724.87 1077.57 2723.29C1076.02 2721.71 1074.8 2719.84 1073.97 2717.79C1073.14 2715.74 1072.73 2713.54 1072.75 2711.33C1072.77 2709.12 1073.23 2706.93 1074.09 2704.89C1074.96 2702.86 1076.22 2701.01 1077.8 2699.46C1079.38 2697.91 1081.25 2696.69 1083.3 2695.86C1085.35 2695.03 1087.54 2694.62 1089.76 2694.64C1091.97 2694.66 1094.16 2695.12 1096.19 2695.98L1124.67 2708.09L1161.98 2620.31C1163.73 2616.2 1167.04 2612.95 1171.18 2611.28C1175.32 2609.61 1179.96 2609.66 1184.07 2611.4L1183.85 2611.97L1184.08 2611.4C1188.19 2613.15 1191.44 2616.46 1193.11 2620.6C1194.78 2624.74 1194.73 2629.38 1192.99 2633.49L1149.09 2736.7C1148.07 2739.08 1146.52 2741.19 1144.55 2742.88C1142.58 2744.56 1140.26 2745.76 1137.75 2746.4L1137.74 2746.44Z" fill="#D0FFFF"/>
<path d="M5082.16 3571.73L2978.7 3162.87C2907.38 3148.93 2844.5 3107.26 2803.87 3047.01C2763.23 2986.76 2748.16 2912.86 2761.95 2841.51L3242.14 371.242C3256.09 299.927 3297.75 237.057 3358 196.423C3418.24 155.789 3492.14 140.71 3563.49 154.495L5520.43 534.867L5871.62 946.878L5403.52 3354.96C5389.58 3426.28 5347.92 3489.15 5287.67 3529.79C5227.42 3570.43 5153.52 3585.51 5082.16 3571.73Z" fill="#3A506B"/>
<path d="M3548.44 231.95C3497.63 222.134 3445 232.872 3402.1 261.808C3359.2 290.743 3329.53 335.514 3319.6 386.298L2839.4 2856.57C2829.59 2907.37 2840.33 2960 2869.26 3002.9C2898.2 3045.79 2942.97 3075.46 2993.76 3085.4L5097.23 3494.25C5148.03 3504.07 5200.66 3493.33 5243.56 3464.39C5286.46 3435.46 5316.13 3390.69 5326.06 3339.9L5786.91 969.142L5478.28 607.056L3548.44 231.95Z" fill="#D0FFFF"/>
<path d="M5103.15 1279.57L4145.47 1093.42C4133.59 1091.11 4123.11 1084.18 4116.34 1074.14C4109.57 1064.1 4107.06 1051.79 4109.37 1039.91C4111.68 1028.03 4118.62 1017.55 4128.65 1010.78C4138.69 1004.01 4151 1001.5 4162.89 1003.81L5120.59 1189.97C5132.47 1192.28 5142.95 1199.21 5149.72 1209.25C5156.49 1219.28 5159 1231.59 5156.69 1243.48C5154.38 1255.36 5147.44 1265.84 5137.41 1272.61C5127.37 1279.38 5115.06 1281.88 5103.17 1279.57L5103.15 1279.57Z" fill="#66FFFF"/>
<path d="M5258.57 1466.7L4116.07 1244.63C4104.19 1242.32 4093.71 1235.39 4086.94 1225.35C4080.17 1215.32 4077.67 1203 4079.98 1191.12C4082.29 1179.24 4089.22 1168.76 4099.26 1161.99C4109.3 1155.22 4121.61 1152.72 4133.49 1155.03L5275.99 1377.1C5287.88 1379.41 5298.35 1386.34 5305.12 1396.38C5311.89 1406.41 5314.4 1418.73 5312.09 1430.61C5309.78 1442.49 5302.84 1452.97 5292.81 1459.74C5282.77 1466.51 5270.46 1469.01 5258.57 1466.7Z" fill="#66FFFF"/>
<path d="M4988.86 1867.57L4031.2 1681.43C4019.32 1679.12 4007 1681.63 3996.97 1688.39C3986.93 1695.16 3980 1705.64 3977.69 1717.52C3975.38 1729.4 3977.88 1741.72 3984.65 1751.75C3991.42 1761.78 4001.9 1768.72 4013.78 1771.03L4971.44 1957.17C4983.25 1959.31 4995.42 1956.7 5005.33 1949.93C5015.23 1943.15 5022.07 1932.75 5024.36 1920.97C5026.65 1909.19 5024.21 1896.98 5017.57 1886.98C5010.92 1876.99 5000.61 1870.02 4988.86 1867.57Z" fill="#D0FFFF"/>
<path d="M5144.29 2054.73L4001.8 1832.66C3995.88 1831.43 3989.78 1831.38 3983.85 1832.53C3977.91 1833.68 3972.26 1835.99 3967.23 1839.34C3962.2 1842.68 3957.88 1847 3954.52 1852.03C3951.17 1857.06 3948.85 1862.7 3947.7 1868.64C3946.54 1874.57 3946.58 1880.67 3947.81 1886.59C3949.03 1892.51 3951.42 1898.13 3954.83 1903.12C3958.24 1908.1 3962.61 1912.36 3967.69 1915.65C3972.76 1918.94 3978.44 1921.18 3984.38 1922.26L5126.86 2144.32C5132.78 2145.56 5138.88 2145.6 5144.82 2144.45C5150.75 2143.31 5156.4 2140.99 5161.43 2137.65C5166.47 2134.3 5170.79 2129.99 5174.14 2124.96C5177.49 2119.93 5179.81 2114.28 5180.97 2108.35C5182.12 2102.41 5182.08 2096.31 5180.86 2090.39C5179.63 2084.47 5177.24 2078.86 5173.83 2073.87C5170.42 2068.88 5166.05 2064.62 5160.98 2061.33C5155.9 2058.05 5150.23 2055.8 5144.29 2054.73Z" fill="#D0FFFF"/>
<path d="M4839.7 2634.84L3882.02 2448.69C3870.14 2446.38 3859.66 2439.44 3852.89 2429.41C3846.12 2419.37 3843.62 2407.06 3845.93 2395.18C3848.24 2383.3 3855.17 2372.82 3865.21 2366.05C3875.24 2359.28 3887.56 2356.77 3899.44 2359.08L4857.14 2545.24C4869.03 2547.54 4879.51 2554.48 4886.27 2564.52C4893.04 2574.55 4895.55 2586.86 4893.24 2598.75C4890.93 2610.63 4883.99 2621.11 4873.96 2627.88C4863.92 2634.65 4851.61 2637.15 4839.73 2634.84L4839.7 2634.84Z" fill="#D0FFFF"/>
<path d="M4995.13 2821.96L3852.63 2599.89C3840.75 2597.58 3830.27 2590.65 3823.5 2580.61C3816.73 2570.58 3814.22 2558.26 3816.53 2546.38C3818.84 2534.5 3825.78 2524.02 3835.81 2517.25C3845.85 2510.48 3858.16 2507.98 3870.05 2510.29L5012.55 2732.36C5024.43 2734.67 5034.91 2741.6 5041.68 2751.64C5048.45 2761.67 5050.95 2773.99 5048.64 2785.87C5046.33 2797.75 5039.4 2808.23 5029.36 2815C5019.33 2821.77 5007.01 2824.27 4995.13 2821.96Z" fill="#D0FFFF"/>
<path d="M3709.89 1205.06C3797.35 1222.06 3882.03 1164.95 3899.03 1077.49C3916.03 990.033 3858.92 905.354 3771.46 888.355C3684 871.355 3599.32 928.472 3582.31 1015.93C3565.31 1103.38 3622.43 1188.06 3709.89 1205.06Z" fill="#66FFFF"/>
<path d="M3713.25 1104.06C3709.69 1103.38 3706.44 1101.55 3704.01 1098.86L3703.85 1098.69L3672.17 1062.98C3669.28 1059.63 3667.82 1055.27 3668.12 1050.85C3668.42 1046.43 3670.44 1042.3 3673.76 1039.37C3677.08 1036.43 3681.42 1034.92 3685.84 1035.16C3690.27 1035.4 3694.42 1037.37 3697.4 1040.65L3717.92 1063.82L3789.32 1000.58C3790.97 999.113 3792.9 997.987 3794.99 997.266C3797.08 996.545 3799.3 996.243 3801.51 996.378C3803.71 996.512 3805.87 997.08 3807.86 998.05C3809.85 999.019 3811.63 1000.37 3813.09 1002.03L3812.65 1002.43L3813.11 1002.02C3816.07 1005.36 3817.58 1009.75 3817.31 1014.2C3817.04 1018.66 3815.01 1022.83 3811.66 1025.79L3727.66 1100.15C3725.72 1101.86 3723.41 1103.1 3720.91 1103.78C3718.41 1104.45 3715.79 1104.54 3713.25 1104.04L3713.25 1104.06Z" fill="#D0FFFF"/>
<path d="M3783.59 1758.26C3779.56 1779.06 3771.46 1798.86 3759.77 1816.54C3748.09 1834.21 3733.03 1849.4 3715.47 1861.26C3697.91 1873.11 3678.18 1881.38 3657.42 1885.61C3636.66 1889.84 3615.27 1889.94 3594.47 1885.9C3593.1 1885.66 3591.75 1885.34 3590.42 1884.94C3559.44 1878.09 3531.17 1862.26 3509.15 1839.42C3487.12 1816.58 3472.32 1787.76 3466.59 1756.55C3460.87 1725.34 3464.48 1693.14 3476.96 1663.97C3489.45 1634.8 3510.26 1609.96 3536.79 1592.56C3563.33 1575.16 3594.4 1565.97 3626.13 1566.15C3657.86 1566.32 3688.83 1575.84 3715.17 1593.53C3741.52 1611.22 3762.06 1636.28 3774.23 1665.58C3786.4 1694.88 3789.65 1727.12 3783.59 1758.26Z" fill="#66FFFF"/>
<path d="M3446.45 2560.32C3533.91 2577.32 3618.59 2520.21 3635.59 2432.75C3652.59 2345.29 3595.47 2260.62 3508.01 2243.62C3420.55 2226.62 3335.87 2283.73 3318.87 2371.19C3301.87 2458.65 3358.99 2543.32 3446.45 2560.32Z" fill="#66FFFF"/>
<path d="M5861.46 955.976L5535.92 892.7C5512.15 888.081 5491.2 874.21 5477.66 854.14C5464.12 834.069 5459.11 809.442 5463.73 785.677L5510.47 545.248C5510.67 544.196 5511.17 543.223 5511.9 542.44C5512.63 541.658 5513.57 541.097 5514.61 540.823C5515.65 540.55 5516.74 540.574 5517.76 540.892C5518.79 541.211 5519.7 541.812 5520.4 542.625L5866.88 946.64C5867.65 947.539 5868.13 948.656 5868.23 949.835C5868.34 951.014 5868.08 952.197 5867.48 953.221C5866.89 954.244 5865.99 955.057 5864.91 955.546C5863.83 956.036 5862.63 956.178 5861.46 955.953L5861.46 955.976Z" fill="#D0FFFF"/>
<path d="M3931.81 3359.92C3921.78 3376.35 3905.64 3388.13 3886.93 3392.66C3868.22 3397.19 3848.48 3394.11 3832.05 3384.09L2985.18 2867.55C2968.75 2857.53 2956.97 2841.39 2952.44 2822.68C2947.9 2803.97 2950.99 2784.23 2961.01 2767.8C2971.04 2751.36 2987.18 2739.58 3005.89 2735.05C3024.6 2730.52 3044.34 2733.6 3060.78 2743.63L3907.63 3260.16C3924.07 3270.18 3935.84 3286.33 3940.38 3305.03C3944.91 3323.74 3941.83 3343.48 3931.81 3359.92Z" fill="#060B19"/>
<path d="M3084.94 2843.42C3025.14 2941.46 2937.61 3019.57 2833.42 3067.87C2729.22 3116.16 2613.05 3132.48 2499.58 3114.75C2386.11 3097.03 2280.45 3046.05 2195.95 2968.28C2111.46 2890.5 2051.92 2789.42 2024.88 2677.81C1997.84 2566.2 2004.5 2449.08 2044.02 2341.25C2083.54 2233.43 2154.15 2139.74 2246.92 2072.05C2339.69 2004.35 2450.44 1965.68 2565.19 1960.93C2679.93 1956.18 2793.51 1985.56 2891.56 2045.35C2956.66 2085.06 3013.31 2137.2 3058.26 2198.79C3103.21 2260.38 3135.59 2330.23 3153.55 2404.34C3171.5 2478.45 3174.69 2555.36 3162.92 2630.7C3151.14 2706.04 3124.65 2778.32 3084.94 2843.42ZM2217.43 2314.26C2172.58 2387.79 2150.54 2472.97 2154.11 2559.03C2157.67 2645.08 2186.67 2728.15 2237.45 2797.72C2288.22 2867.3 2358.49 2920.25 2439.36 2949.89C2520.23 2979.54 2608.08 2984.53 2691.79 2964.25C2775.5 2943.96 2851.32 2899.31 2909.65 2835.94C2967.99 2772.57 3006.22 2693.33 3019.51 2608.23C3032.81 2523.13 3020.57 2436 2984.34 2357.86C2948.12 2279.72 2889.53 2214.07 2816 2169.22C2717.39 2109.08 2598.93 2090.58 2486.68 2117.78C2374.42 2144.98 2277.57 2215.65 2217.43 2314.26Z" fill="#060B19"/>
<path opacity="0.5" d="M2435.67 2962.17C2671.61 3043.4 2928.73 2918 3009.96 2682.08C3091.2 2446.15 2965.8 2189.05 2729.86 2107.81C2493.93 2026.57 2236.81 2151.97 2155.58 2387.9C2074.34 2623.82 2199.74 2880.93 2435.67 2962.17Z" fill="#66FFFF"/>
</g>
<defs>
<clipPath id="clip0_23_361">
<rect width="5936" height="3624" fill="white"/>
</clipPath>
</defs>
</svg>
