<svg width="3489" height="4203" viewBox="0 0 3489 4203" fill="none" xmlns="http://www.w3.org/2000/svg">
<g clip-path="url(#clip0_24_764)">
<path d="M24.9429 2010.24C37.7627 2031.65 55.1209 2049.98 75.7948 2063.96C96.4686 2077.93 119.955 2087.2 144.601 2091.12C169.246 2095.04 194.45 2093.5 218.438 2086.62C242.426 2079.75 264.614 2067.69 283.439 2051.31L809.63 2353.08L790.019 2038.5L293.346 1800.17C263.731 1770.37 224.213 1752.46 182.281 1749.85C140.348 1747.24 98.914 1760.1 65.8298 1785.99C32.7457 1811.89 10.31 1849.02 2.77429 1890.35C-4.76141 1931.68 3.12637 1974.33 24.9429 2010.24Z" fill="#FFB8B8"/>
<path d="M1548.32 3219.11C1392.23 3437.55 1397.82 3803.01 1441.36 4203H2179.34L2211.43 4128.14L2254.21 4203H2949.41C2949.41 4203 2895.93 3187.02 2799.67 3154.94C2703.41 3122.85 1548.32 3219.11 1548.32 3219.11Z" fill="#0B132B"/>
<path d="M2179.34 936.822C2386.08 936.822 2553.68 769.239 2553.68 562.514C2553.68 355.79 2386.08 188.207 2179.34 188.207C1972.6 188.207 1805 355.79 1805 562.514C1805 769.239 1972.6 936.822 2179.34 936.822Z" fill="#FFB8B8"/>
<path d="M2449.9 1033.94L2523.1 1174.23L3029.43 1399.92L2896.33 2687.81L2840.32 2821.18L2870.58 2937L2797.61 3022.47C2870.86 3088.74 2880.16 3158.11 2840.32 3229.87L2607.15 3283.27C2607.15 3283.27 1310.71 3398.55 1419.97 3197.72C1539.35 2978.28 1569.75 2330.23 1306.21 1983.93C1082.47 1689.93 1254.24 1308.43 1254.24 1308.43L1784.97 1149.83L1980.18 1033.94L2449.9 1033.94Z" fill="#1C2541"/>
<path d="M2345.53 14.2133C2347.29 10.4917 2350.12 7.3808 2353.66 5.2801C2357.2 3.1794 2361.29 2.18479 2365.4 2.42407C2194.02 -7.82647 2013.51 12.1466 1870.13 106.58C1835.4 129.458 1802.65 156.747 1764.85 173.343C1763.07 174.145 1761.52 175.394 1760.36 176.97C1759.2 178.545 1758.47 180.394 1758.24 182.335C1758 184.277 1758.28 186.246 1759.03 188.051C1759.78 189.856 1760.99 191.436 1762.53 192.637L1766.68 195.892C1768.32 197.176 1769.58 198.885 1770.31 200.833C1771.05 202.78 1771.23 204.892 1770.85 206.938C1770.47 208.984 1769.53 210.886 1768.14 212.437C1766.76 213.989 1764.97 215.13 1762.98 215.737C1760.9 216.369 1759.05 217.582 1757.64 219.232C1756.23 220.882 1755.32 222.9 1755.02 225.048C1754.72 227.197 1755.04 229.387 1755.95 231.36C1756.85 233.333 1758.3 235.007 1760.12 236.185L1791.93 256.745C1793.54 257.763 1794.86 259.166 1795.78 260.827C1796.69 262.487 1797.18 264.352 1797.19 266.25C1797.2 268.148 1796.74 270.018 1795.84 271.689C1794.94 273.359 1793.63 274.777 1792.04 275.812C1789.34 277.476 1786.51 278.911 1783.58 280.101C1781.75 280.787 1780.13 281.932 1778.88 283.425C1777.62 284.919 1776.77 286.71 1776.41 288.627C1776.05 290.544 1776.19 292.522 1776.81 294.37C1777.44 296.218 1778.53 297.874 1779.98 299.178C1793.76 311.442 1804.32 326.89 1810.76 344.174C1821.36 371.744 1823.27 401.77 1825.06 431.254C1836.02 388.712 1882.45 363.669 1926.31 361.125C1970.17 358.58 2012.95 373.051 2055.63 383.453C2148.6 406.043 2245.16 409.758 2339.59 394.375C2307.52 458.721 2334.57 535.471 2361.79 602.012L2449.9 564.25C2570.9 495.951 2486.61 784.867 2441.38 824.53C2533.74 856.55 2775.5 501.156 2697.73 366.347C2657.27 296.221 2685.99 205.775 2606.45 139.266C2567.47 98.2317 2489.64 116.47 2449.9 82.3656C2434.26 68.9427 2458.1 33.0315 2436.6 25.2053C2429.46 22.6058 2346.71 11.5934 2345.53 14.2133Z" fill="#0B132B"/>
<path d="M1711.46 1186.06C1642.77 1490.99 1466.59 2202.96 1287.85 2351.86C1276.52 2362.56 1262.93 2370.59 1248.08 2375.34C619.811 2528.39 418.502 2138 418.502 2138C418.502 2138 586.87 2055.96 591.14 1895.59L930.682 2000.94L1226.67 1334.9L1270.22 1294.27L1270.47 1294.03L1711.46 1186.06Z" fill="#1C2541"/>
<path d="M3051.03 4001.94C3069.02 3984.65 3083 3963.62 3091.98 3940.34C3100.97 3917.06 3104.74 3892.09 3103.03 3867.2C3101.32 3842.31 3094.17 3818.09 3082.09 3796.26C3070.01 3774.42 3053.29 3755.5 3033.1 3740.83L3209.23 3160.42L2907.03 3250.06L2786.11 3787.49C2763.71 3823.03 2755.12 3865.55 2761.98 3907C2768.83 3948.45 2790.66 3985.94 2823.31 4012.37C2855.97 4038.81 2897.18 4052.35 2939.15 4050.42C2981.12 4048.5 3020.93 4031.25 3051.03 4001.94Z" fill="#FFB8B8"/>
<path d="M2889.83 1367.45L3029.43 1399.92C3029.43 1399.92 3606.42 2522.46 3467.38 2736.35C3328.34 2950.24 3158 3658.37 3158 3658.37C3158 3658.37 2906.07 3608.29 2809.82 3479.96L2986.09 2640.1L2804.27 1934.26L2889.83 1367.45Z" fill="#1C2541"/>
<path d="M241.446 3034.38L246.459 1226.47C246.602 1189.88 261.255 1154.84 287.203 1129.03C313.152 1103.23 348.276 1088.77 384.871 1088.83L1750.36 1092.62C1786.95 1092.76 1821.99 1107.41 1847.8 1133.36C1873.6 1159.31 1888.06 1194.43 1888 1231.02L1882.99 3038.93C1882.85 3075.53 1868.19 3110.57 1842.25 3136.37C1816.3 3162.17 1781.17 3176.63 1744.58 3176.57L379.093 3172.79C342.498 3172.64 307.454 3157.99 281.65 3132.04C255.845 3106.1 241.386 3070.98 241.446 3034.38Z" fill="#3A506B"/>
<path d="M347.702 2488.61L350.924 1326.32C351.058 1292.05 364.78 1259.23 389.082 1235.06C413.383 1210.9 446.279 1197.36 480.552 1197.42L1654.07 1200.67C1688.34 1200.8 1721.16 1214.52 1745.33 1238.82C1769.5 1263.12 1783.04 1296.02 1782.99 1330.29L1778.53 2939.08C1778.39 2973.35 1764.67 3006.17 1740.37 3030.34C1716.06 3054.5 1683.17 3068.04 1648.89 3067.98L921.923 3065.97C769.261 3065.38 623.068 3004.25 515.418 2896.01C407.768 2787.78 347.452 2641.26 347.702 2488.61Z" fill="#D0FFFF"/>
<path d="M1519.6 1707.96H604.561C590 1707.96 576.035 1702.18 565.739 1691.89C555.443 1681.59 549.658 1667.63 549.658 1653.07C549.658 1638.51 555.443 1624.54 565.739 1614.25C576.035 1603.95 590 1598.17 604.561 1598.17H1519.6C1534.17 1598.17 1548.13 1603.95 1558.43 1614.25C1568.72 1624.54 1574.51 1638.51 1574.51 1653.07C1574.51 1667.63 1568.72 1681.59 1558.43 1691.89C1548.13 1702.18 1534.17 1707.96 1519.6 1707.96Z" fill="#66FFFF"/>
<path d="M805.87 1454.82H604.561C590 1454.82 576.035 1449.04 565.739 1438.74C555.443 1428.45 549.658 1414.48 549.658 1399.92C549.658 1385.36 555.443 1371.4 565.739 1361.1C576.035 1350.81 590 1345.03 604.561 1345.03H805.87C820.431 1345.03 834.396 1350.81 844.692 1361.1C854.989 1371.4 860.773 1385.36 860.773 1399.92C860.773 1414.48 854.989 1428.45 844.692 1438.74C834.396 1449.04 820.431 1454.82 805.87 1454.82Z" fill="#66FFFF"/>
<path d="M1519.6 1961.11H604.561C590 1961.11 576.035 1955.32 565.739 1945.03C555.443 1934.73 549.658 1920.77 549.658 1906.21C549.658 1891.65 555.443 1877.68 565.739 1867.39C576.035 1857.09 590 1851.31 604.561 1851.31H1519.6C1534.17 1851.31 1548.13 1857.09 1558.43 1867.39C1568.72 1877.68 1574.51 1891.65 1574.51 1906.21C1574.51 1920.77 1568.72 1934.73 1558.43 1945.03C1548.13 1955.32 1534.17 1961.11 1519.6 1961.11Z" fill="#66FFFF"/>
<path d="M1519.6 2214.25H604.561C590 2214.25 576.035 2208.46 565.739 2198.17C555.443 2187.87 549.658 2173.91 549.658 2159.35C549.658 2144.79 555.443 2130.83 565.739 2120.53C576.035 2110.24 590 2104.45 604.561 2104.45H1519.6C1534.17 2104.45 1548.13 2110.24 1558.43 2120.53C1568.72 2130.83 1574.51 2144.79 1574.51 2159.35C1574.51 2173.91 1568.72 2187.87 1558.43 2198.17C1548.13 2208.46 1534.17 2214.25 1519.6 2214.25Z" fill="#66FFFF"/>
<path d="M1445.56 2881.27C1566.22 2881.27 1664.02 2783.47 1664.02 2662.83C1664.02 2542.18 1566.22 2444.39 1445.56 2444.39C1324.91 2444.39 1227.11 2542.18 1227.11 2662.83C1227.11 2783.47 1324.91 2881.27 1445.56 2881.27Z" fill="#66FFFF"/>
<path d="M1415.76 2776.51C1411.99 2776.51 1408.27 2775.64 1404.9 2773.95C1401.52 2772.26 1398.59 2769.81 1396.32 2766.79L1336.73 2687.33C1334.81 2684.78 1333.41 2681.87 1332.61 2678.78C1331.82 2675.69 1331.64 2672.47 1332.09 2669.31C1332.54 2666.15 1333.61 2663.1 1335.24 2660.36C1336.86 2657.61 1339.01 2655.21 1341.57 2653.29C1344.12 2651.38 1347.03 2649.98 1350.13 2649.19C1353.22 2648.4 1356.44 2648.23 1359.6 2648.68C1362.76 2649.13 1365.8 2650.2 1368.55 2651.83C1371.29 2653.46 1373.69 2655.62 1375.61 2658.18L1414.6 2710.16L1514.74 2559.95C1516.51 2557.29 1518.78 2555 1521.43 2553.21C1524.09 2551.43 1527.07 2550.18 1530.2 2549.55C1533.34 2548.92 1536.56 2548.91 1539.7 2549.53C1542.84 2550.15 1545.82 2551.38 1548.48 2553.15C1551.14 2554.92 1553.43 2557.21 1555.21 2559.86C1556.98 2562.52 1558.22 2565.5 1558.84 2568.64C1559.46 2571.78 1559.46 2575.01 1558.83 2578.14C1558.2 2581.28 1556.96 2584.26 1555.18 2586.91L1435.98 2765.69C1433.83 2768.93 1430.93 2771.6 1427.53 2773.48C1424.13 2775.36 1420.32 2776.4 1416.44 2776.51C1416.21 2776.51 1415.99 2776.51 1415.76 2776.51Z" fill="#D0FFFF"/>
<path d="M979.729 667.947C1037 667.947 1083.43 621.521 1083.43 564.25C1083.43 506.98 1037 460.554 979.729 460.554C922.454 460.554 876.024 506.98 876.024 564.25C876.024 621.521 922.454 667.947 979.729 667.947Z" fill="#D0FFFF"/>
<path d="M601.511 3650.75C658.785 3650.75 705.215 3604.33 705.215 3547.06C705.215 3489.79 658.785 3443.36 601.511 3443.36C544.236 3443.36 497.806 3489.79 497.806 3547.06C497.806 3604.33 544.236 3650.75 601.511 3650.75Z" fill="#D0FFFF"/>
<path d="M2986.72 1070.53C3044 1070.53 3090.43 1024.11 3090.43 966.837C3090.43 909.567 3044 863.141 2986.72 863.141C2929.45 863.141 2883.02 909.567 2883.02 966.837C2883.02 1024.11 2929.45 1070.53 2986.72 1070.53Z" fill="#D0FFFF"/>
</g>
<defs>
<clipPath id="clip0_24_764">
<rect width="3489" height="4203" fill="white"/>
</clipPath>
</defs>
</svg>
