<svg width="1806" height="957" viewBox="0 0 1806 957" fill="none" xmlns="http://www.w3.org/2000/svg">
<path d="M210.564 903.668C160.899 871.302 124.788 813.123 132.179 754.306C176.899 800.738 236.601 829.855 300.722 836.506C325.461 838.981 353.233 839.159 370.801 856.751C381.733 867.697 386.377 883.695 386.616 899.163C386.855 914.631 383.138 929.855 379.446 944.878L380.353 948.632C321.113 946.443 260.228 936.034 210.564 903.668Z" fill="#D0FFFF"/>
<path d="M133.423 754.294C152.001 799.708 184.416 838.113 226.065 864.056C234.932 869.8 244.648 874.11 254.857 876.828C264.888 879.155 275.358 878.753 285.181 875.664C294.397 872.968 303.513 869.143 313.224 868.735C318.198 868.6 323.145 869.517 327.739 871.428C332.334 873.338 336.473 876.198 339.884 879.821C348.62 888.625 353.671 900.043 358.223 911.381C363.276 923.969 368.326 937.124 378.618 946.448C379.866 947.577 378.04 949.446 376.795 948.318C358.887 932.097 356.916 906.071 342.841 887.252C336.273 878.471 327.019 871.615 315.705 871.326C305.812 871.072 296.409 875.008 287.101 877.819C277.563 880.972 267.397 881.742 257.493 880.062C247.179 877.872 237.312 873.943 228.316 868.443C207.865 856.384 189.437 841.184 173.707 823.401C155.643 803.204 141.166 780.066 130.904 754.988C130.269 753.436 132.792 752.751 133.423 754.294Z" fill="#D0FFFF"/>
<path d="M212.162 856.492C206.861 862.889 199.458 867.193 191.277 868.636C183.095 870.079 174.667 868.566 167.497 864.369C166.05 863.514 167.309 861.224 168.759 862.08C175.428 866.001 183.279 867.409 190.895 866.05C198.511 864.691 205.39 860.654 210.291 854.668C211.358 853.369 213.222 855.2 212.162 856.492Z" fill="#D0FFFF"/>
<path d="M280.687 877.647C279.255 860.724 271.497 844.963 258.96 833.507C257.717 832.373 259.543 830.504 260.784 831.636C273.808 843.582 281.848 860.001 283.3 877.614C283.437 879.293 280.824 879.317 280.687 877.647Z" fill="#D0FFFF"/>
<path d="M158.929 802.111C161.496 800.063 163.514 797.41 164.802 794.389C166.09 791.369 166.608 788.076 166.309 784.806C166.15 783.13 168.764 783.108 168.921 784.773C169.235 788.387 168.659 792.023 167.243 795.364C165.827 798.704 163.615 801.646 160.8 803.934C160.552 804.172 160.224 804.307 159.881 804.312C159.538 804.316 159.206 804.189 158.952 803.958C158.706 803.715 158.565 803.385 158.561 803.039C158.556 802.693 158.689 802.359 158.929 802.111Z" fill="#D0FFFF"/>
<path d="M301.589 646.672C301.717 647.716 301.846 648.76 301.994 649.814C303.797 663.84 306.737 677.696 310.784 691.246C311.08 692.298 311.396 693.36 311.722 694.402C321.82 726.942 337.871 757.325 359.06 784.006C367.502 794.615 376.738 804.566 386.689 813.774C400.433 826.49 416.347 839.183 424.837 855.224C425.742 856.888 426.542 858.606 427.235 860.368L384.862 947.233C384.667 947.382 384.491 947.542 384.295 947.692L382.762 951.238C382.215 950.798 381.658 950.331 381.112 949.892C380.794 949.639 380.485 949.366 380.167 949.113C379.958 948.938 379.749 948.762 379.551 948.616C379.481 948.558 379.412 948.499 379.362 948.45C379.163 948.305 378.994 948.148 378.815 948.011C375.693 945.409 372.584 942.78 369.487 940.125C369.468 940.115 369.468 940.115 369.457 940.086C345.915 919.794 323.861 897.358 305.913 872.288C305.373 871.534 304.813 870.771 304.293 869.977C296.265 858.631 289.178 846.649 283.103 834.149C279.799 827.294 276.843 820.276 274.248 813.122C267.579 794.624 263.86 775.192 263.229 755.539C261.977 716.359 273.269 677.216 299.559 648.822C300.232 648.096 300.896 647.388 301.589 646.672Z" fill="#D0FFFF"/>
<path d="M302.596 647.405C290.087 694.851 292.846 745.032 310.481 790.821C314.102 800.746 319.266 810.038 325.78 818.354C332.389 826.251 340.991 832.234 350.693 835.682C359.675 839.078 369.256 841.512 377.256 847.033C381.309 849.92 384.706 853.631 387.224 857.922C389.742 862.214 391.325 866.989 391.868 871.936C393.542 884.225 390.701 896.383 387.509 908.176C383.965 921.269 380.077 934.813 382.681 948.454C382.997 950.107 380.413 950.5 380.098 948.85C375.567 925.117 389.663 903.15 389.754 879.649C389.797 868.683 386.536 857.638 377.677 850.595C369.93 844.437 360.053 841.918 350.928 838.558C341.414 835.333 332.834 829.828 325.938 822.523C319.021 814.565 313.508 805.487 309.637 795.679C300.568 773.738 295.006 750.507 293.153 726.838C290.89 699.836 293.261 672.645 300.166 646.443C300.594 644.822 303.021 645.794 302.596 647.405Z" fill="#D0FFFF"/>
<path d="M303.935 776.411C295.851 778.327 287.349 777.307 279.948 773.533C272.546 769.759 266.728 763.477 263.53 755.809C262.889 754.255 265.273 753.185 265.916 754.741C268.88 761.887 274.3 767.738 281.2 771.238C288.099 774.738 296.022 775.657 303.539 773.828C305.173 773.433 305.559 776.018 303.935 776.411Z" fill="#D0FFFF"/>
<path d="M345.911 834.559C354.956 820.185 358.251 802.93 355.139 786.235C354.829 784.581 357.412 784.187 357.721 785.839C360.928 803.219 357.462 821.168 348.017 836.106C347.116 837.529 345.015 835.975 345.911 834.559Z" fill="#D0FFFF"/>
<path d="M294.173 700.941C297.455 700.852 300.664 699.948 303.511 698.312C306.358 696.676 308.754 694.359 310.483 691.568C311.366 690.134 313.466 691.69 312.589 693.114C310.664 696.189 308.014 698.745 304.873 700.56C301.732 702.374 298.194 703.392 294.568 703.524C294.227 703.565 293.884 703.475 293.607 703.272C293.331 703.068 293.142 702.768 293.079 702.43C293.028 702.088 293.115 701.74 293.32 701.461C293.524 701.182 293.831 700.995 294.173 700.941Z" fill="#D0FFFF"/>
<path d="M1726.21 903.668C1775.88 871.302 1811.99 813.123 1804.6 754.306C1759.88 800.738 1700.18 829.855 1636.05 836.506C1611.32 838.981 1583.54 839.159 1565.98 856.751C1555.04 867.697 1550.4 883.695 1550.16 899.163C1549.92 914.631 1553.64 929.855 1557.33 944.878L1556.42 948.632C1615.66 946.443 1676.55 936.034 1726.21 903.668Z" fill="#D0FFFF"/>
<path d="M1803.35 754.294C1784.77 799.708 1752.36 838.113 1710.71 864.056C1701.84 869.8 1692.13 874.11 1681.92 876.828C1671.89 879.155 1661.42 878.753 1651.59 875.664C1642.38 872.968 1633.26 869.143 1623.55 868.735C1618.58 868.6 1613.63 869.517 1609.04 871.428C1604.44 873.338 1600.3 876.198 1596.89 879.821C1588.16 888.625 1583.1 900.043 1578.55 911.381C1573.5 923.969 1568.45 937.124 1558.16 946.448C1556.91 947.577 1558.74 949.446 1559.98 948.318C1577.89 932.097 1579.86 906.071 1593.93 887.252C1600.5 878.471 1609.76 871.615 1621.07 871.326C1630.96 871.072 1640.37 875.008 1649.67 877.819C1659.21 880.972 1669.38 881.742 1679.28 880.062C1689.6 877.872 1699.46 873.943 1708.46 868.443C1728.91 856.384 1747.34 841.184 1763.07 823.401C1781.13 803.204 1795.61 780.066 1805.87 754.988C1806.51 753.436 1803.98 752.751 1803.35 754.294Z" fill="#D0FFFF"/>
<path d="M1724.61 856.492C1729.91 862.889 1737.32 867.193 1745.5 868.636C1753.68 870.079 1762.11 868.566 1769.28 864.369C1770.73 863.514 1769.47 861.224 1768.02 862.08C1761.35 866.001 1753.5 867.409 1745.88 866.05C1738.26 864.691 1731.39 860.654 1726.48 854.668C1725.42 853.369 1723.55 855.2 1724.61 856.492Z" fill="#D0FFFF"/>
<path d="M1656.09 877.647C1657.52 860.724 1665.28 844.963 1677.82 833.507C1679.06 832.373 1677.23 830.504 1675.99 831.636C1662.97 843.582 1654.93 860.001 1653.48 877.614C1653.34 879.293 1655.95 879.317 1656.09 877.647Z" fill="#D0FFFF"/>
<path d="M1777.85 802.111C1775.28 800.063 1773.26 797.41 1771.97 794.389C1770.69 791.369 1770.17 788.076 1770.47 784.806C1770.63 783.13 1768.01 783.108 1767.85 784.773C1767.54 788.387 1768.12 792.023 1769.53 795.364C1770.95 798.704 1773.16 801.646 1775.98 803.934C1776.22 804.172 1776.55 804.307 1776.89 804.312C1777.24 804.316 1777.57 804.189 1777.82 803.958C1778.07 803.715 1778.21 803.385 1778.21 803.039C1778.22 802.693 1778.09 802.359 1777.85 802.111Z" fill="#D0FFFF"/>
<path d="M1635.19 646.672C1635.06 647.716 1634.93 648.76 1634.78 649.814C1632.98 663.84 1630.04 677.696 1625.99 691.246C1625.7 692.298 1625.38 693.36 1625.05 694.402C1614.96 726.942 1598.9 757.325 1577.72 784.006C1569.27 794.615 1560.04 804.566 1550.09 813.774C1536.34 826.49 1520.43 839.183 1511.94 855.224C1511.03 856.888 1510.23 858.606 1509.54 860.368L1551.91 947.233C1552.11 947.382 1552.29 947.542 1552.48 947.692L1554.01 951.237C1554.56 950.798 1555.12 950.331 1555.66 949.892C1555.98 949.639 1556.29 949.366 1556.61 949.113C1556.82 948.938 1557.03 948.762 1557.23 948.616C1557.29 948.558 1557.36 948.499 1557.41 948.45C1557.61 948.304 1557.78 948.148 1557.96 948.011C1561.08 945.409 1564.19 942.78 1567.29 940.125C1567.31 940.115 1567.31 940.115 1567.32 940.086C1590.86 919.794 1612.92 897.358 1630.86 872.288C1631.4 871.534 1631.96 870.771 1632.48 869.976C1640.51 858.631 1647.6 846.649 1653.67 834.149C1656.98 827.294 1659.93 820.276 1662.53 813.122C1669.2 794.624 1672.92 775.192 1673.55 755.539C1674.8 716.359 1663.51 677.216 1637.22 648.822C1636.54 648.096 1635.88 647.388 1635.19 646.672Z" fill="#D0FFFF"/>
<path d="M1634.18 647.405C1646.69 694.851 1643.93 745.032 1626.29 790.821C1622.67 800.746 1617.51 810.038 1611 818.354C1604.39 826.251 1595.79 832.234 1586.08 835.682C1577.1 839.078 1567.52 841.512 1559.52 847.033C1555.47 849.92 1552.07 853.631 1549.55 857.922C1547.03 862.214 1545.45 866.989 1544.91 871.936C1543.23 884.225 1546.08 896.383 1549.27 908.176C1552.81 921.269 1556.7 934.813 1554.09 948.454C1553.78 950.107 1556.36 950.5 1556.68 948.85C1561.21 925.117 1547.11 903.15 1547.02 879.649C1546.98 868.683 1550.24 857.638 1559.1 850.595C1566.85 844.437 1576.72 841.918 1585.85 838.558C1595.36 835.333 1603.94 829.828 1610.84 822.523C1617.75 814.565 1623.27 805.487 1627.14 795.679C1636.21 773.738 1641.77 750.507 1643.62 726.838C1645.89 699.836 1643.51 672.645 1636.61 646.443C1636.18 644.822 1633.75 645.794 1634.18 647.405Z" fill="#D0FFFF"/>
<path d="M1632.84 776.411C1640.93 778.327 1649.43 777.307 1656.83 773.533C1664.23 769.759 1670.05 763.477 1673.25 755.809C1673.89 754.255 1671.5 753.185 1670.86 754.741C1667.9 761.887 1662.48 767.738 1655.58 771.238C1648.68 774.738 1640.75 775.657 1633.24 773.828C1631.6 773.433 1631.22 776.018 1632.84 776.411Z" fill="#D0FFFF"/>
<path d="M1590.86 834.559C1581.82 820.185 1578.52 802.93 1581.64 786.235C1581.95 784.581 1579.36 784.187 1579.05 785.839C1575.85 803.219 1579.31 821.168 1588.76 836.106C1589.66 837.529 1591.76 835.975 1590.86 834.559Z" fill="#D0FFFF"/>
<path d="M1642.6 700.941C1639.32 700.852 1636.11 699.948 1633.27 698.312C1630.42 696.676 1628.02 694.359 1626.29 691.568C1625.41 690.134 1623.31 691.69 1624.19 693.114C1626.11 696.189 1628.76 698.745 1631.9 700.56C1635.04 702.374 1638.58 703.392 1642.21 703.524C1642.55 703.565 1642.89 703.475 1643.17 703.272C1643.45 703.068 1643.63 702.768 1643.7 702.43C1643.75 702.088 1643.66 701.74 1643.46 701.461C1643.25 701.182 1642.95 700.995 1642.6 700.941Z" fill="#D0FFFF"/>
<path d="M308.382 618.246C306.503 617.115 304.895 615.586 303.671 613.766C302.447 611.946 301.636 609.88 301.297 607.714C300.958 605.547 301.097 603.332 301.707 601.225C302.316 599.119 303.38 597.171 304.823 595.52L278.405 549.216L306.05 551.002L326.899 594.699C329.512 597.308 331.078 600.784 331.299 604.47C331.52 608.156 330.382 611.795 328.099 614.697C325.817 617.6 322.549 619.564 318.915 620.218C315.281 620.872 311.533 620.17 308.382 618.246Z" fill="#FFB6B6"/>
<path d="M105.012 933.909H123.303L132.004 863.362L105.01 863.364L105.012 933.909Z" fill="#FFB6B6"/>
<path d="M100.347 927.938L136.366 927.937C142.454 927.937 148.294 930.355 152.598 934.66C156.903 938.965 159.322 944.803 159.322 950.89V951.636L100.348 951.638L100.347 927.938Z" fill="#3A506B"/>
<path d="M230.328 933.909H248.617L257.318 863.362L230.324 863.364L230.328 933.909Z" fill="#FFB6B6"/>
<path d="M225.662 927.938L261.681 927.937C267.768 927.937 273.608 930.355 277.913 934.66C282.217 938.965 284.636 944.803 284.636 950.89V951.636L225.663 951.638L225.662 927.938Z" fill="#3A506B"/>
<path d="M277.358 551.206C277.358 551.206 282.388 622.846 272.48 658.926C262.572 695.006 260.803 913.196 260.803 913.196H227.592L198.807 616.193L132.447 914.243L100.814 912.068L118.162 560.855L277.358 551.206Z" fill="#3A506B"/>
<path d="M131.885 309.71L157.274 291.183L199.818 300.446L211.334 327.81L231.177 337.649C237.702 340.884 243.344 345.655 247.618 351.551C251.892 357.448 254.67 364.294 255.713 371.502L284.063 567.268L118.162 560.855L98.0771 330.302C97.8673 327.894 98.1428 325.468 98.8872 323.168C99.6316 320.868 100.83 318.741 102.411 316.912C103.992 315.083 105.924 313.59 108.092 312.521C110.261 311.453 112.621 310.83 115.035 310.689L131.885 309.71Z" fill="#1C2541"/>
<path d="M241.675 352.941L256.998 373.596L323.737 577.15L292.453 589.675L242.361 494.824L241.675 352.941Z" fill="#1C2541"/>
<path d="M186.132 281.51C206.597 281.51 223.186 264.92 223.186 244.456C223.186 223.991 206.597 207.401 186.132 207.401C165.668 207.401 149.078 223.991 149.078 244.456C149.078 264.92 165.668 281.51 186.132 281.51Z" fill="#FFB9B9"/>
<path opacity="0.1" d="M105.353 396.906L165.821 481.007L233.411 525.082L105.353 396.906Z" fill="#060B19"/>
<path d="M166.495 271.243C163.917 266.097 161.266 260.496 162.251 254.825C163.236 249.155 169.744 244.214 174.766 247.025C176.849 239.495 186.073 236.199 193.838 237.069C201.603 237.938 208.752 241.683 216.398 243.291C224.044 244.899 233.33 243.623 237.462 236.993L227.575 236.821L237.871 224.879L225.936 223.986C230.07 219.524 228.971 211.944 224.969 207.363C220.967 202.783 214.894 200.616 208.968 199.245C197.137 196.518 184.874 196.236 172.931 198.417C167.3 199.285 161.874 201.173 156.921 203.988C152.256 206.834 148.402 210.831 145.728 215.596C142.844 220.972 141.285 226.959 141.181 233.059C141.004 241.23 142.882 249.314 146.641 256.571C150.4 263.828 155.92 270.025 162.696 274.595" fill="#3A506B"/>
<path d="M1546.13 952.59H396.217C384.375 952.576 373.021 947.866 364.648 939.493C356.274 931.119 351.564 919.766 351.55 907.924V44.6656C351.564 32.8235 356.274 21.4703 364.648 13.0968C373.021 4.72333 384.375 0.0132947 396.217 0H1546.13C1557.98 0.0135049 1569.33 4.72364 1577.7 13.0971C1586.08 21.4706 1590.79 32.8237 1590.8 44.6656V907.924C1590.79 919.766 1586.08 931.119 1577.7 939.492C1569.33 947.866 1557.98 952.576 1546.13 952.59Z" fill="#5BC0BE"/>
<path d="M1256.72 396.361H1079.21C1070.44 396.361 1062.03 392.876 1055.83 386.673C1049.62 380.47 1046.14 372.057 1046.14 363.285C1046.14 354.512 1049.62 346.099 1055.83 339.896C1062.03 333.693 1070.44 330.208 1079.21 330.208H1256.72C1265.5 330.208 1273.91 333.693 1280.11 339.896C1286.31 346.099 1289.8 354.512 1289.8 363.285C1289.8 372.057 1286.31 380.47 1280.11 386.673C1273.91 392.876 1265.5 396.361 1256.72 396.361Z" fill="#D0FFFF"/>
<path d="M1101.26 486.768H1059.37C1056.15 486.768 1053.07 485.491 1050.79 483.216C1048.52 480.942 1047.24 477.857 1047.24 474.641C1047.24 471.424 1048.52 468.339 1050.79 466.065C1053.07 463.79 1056.15 462.513 1059.37 462.513H1101.26C1104.48 462.513 1107.57 463.79 1109.84 466.065C1112.11 468.339 1113.39 471.424 1113.39 474.641C1113.39 477.857 1112.11 480.942 1109.84 483.216C1107.57 485.491 1104.48 486.768 1101.26 486.768Z" fill="#D0FFFF"/>
<path d="M1275.46 486.768H1233.57C1230.35 486.768 1227.27 485.491 1224.99 483.216C1222.72 480.942 1221.44 477.857 1221.44 474.641C1221.44 471.424 1222.72 468.339 1224.99 466.065C1227.27 463.79 1230.35 462.513 1233.57 462.513H1275.46C1278.68 462.513 1281.77 463.79 1284.04 466.065C1286.31 468.339 1287.59 471.424 1287.59 474.641C1287.59 477.857 1286.31 480.942 1284.04 483.216C1281.77 485.491 1278.68 486.768 1275.46 486.768Z" fill="#D0FFFF"/>
<path d="M1187.26 486.768H1145.37C1142.15 486.768 1139.06 485.491 1136.79 483.216C1134.52 480.942 1133.24 477.857 1133.24 474.641C1133.24 471.424 1134.52 468.339 1136.79 466.065C1139.06 463.79 1142.15 462.513 1145.37 462.513H1187.26C1190.48 462.513 1193.56 463.79 1195.84 466.065C1198.11 468.339 1199.39 471.424 1199.39 474.641C1199.39 477.857 1198.11 480.942 1195.84 483.216C1193.56 485.491 1190.48 486.768 1187.26 486.768Z" fill="#D0FFFF"/>
<path d="M1101.26 533.075H1059.37C1056.15 533.075 1053.07 531.797 1050.79 529.523C1048.52 527.248 1047.24 524.163 1047.24 520.947C1047.24 517.73 1048.52 514.646 1050.79 512.371C1053.07 510.097 1056.15 508.819 1059.37 508.819H1101.26C1104.48 508.819 1107.57 510.097 1109.84 512.371C1112.11 514.646 1113.39 517.73 1113.39 520.947C1113.39 524.163 1112.11 527.248 1109.84 529.523C1107.57 531.797 1104.48 533.075 1101.26 533.075Z" fill="#D0FFFF"/>
<path d="M1275.46 533.075H1233.57C1230.35 533.075 1227.27 531.797 1224.99 529.523C1222.72 527.248 1221.44 524.163 1221.44 520.947C1221.44 517.73 1222.72 514.646 1224.99 512.371C1227.27 510.097 1230.35 508.819 1233.57 508.819H1275.46C1278.68 508.819 1281.77 510.097 1284.04 512.371C1286.31 514.646 1287.59 517.73 1287.59 520.947C1287.59 524.163 1286.31 527.248 1284.04 529.523C1281.77 531.797 1278.68 533.075 1275.46 533.075Z" fill="#D0FFFF"/>
<path d="M1187.26 533.075H1145.37C1142.15 533.075 1139.06 531.797 1136.79 529.523C1134.52 527.248 1133.24 524.163 1133.24 520.947C1133.24 517.73 1134.52 514.646 1136.79 512.371C1139.06 510.097 1142.15 508.819 1145.37 508.819H1187.26C1190.48 508.819 1193.56 510.097 1195.84 512.371C1198.11 514.646 1199.39 517.73 1199.39 520.947C1199.39 524.163 1198.11 527.248 1195.84 529.523C1193.56 531.797 1190.48 533.075 1187.26 533.075Z" fill="#D0FFFF"/>
<path d="M1101.26 579.381H1059.37C1056.15 579.381 1053.07 578.104 1050.79 575.829C1048.52 573.555 1047.24 570.47 1047.24 567.253C1047.24 564.037 1048.52 560.952 1050.79 558.678C1053.07 556.403 1056.15 555.125 1059.37 555.125H1101.26C1104.48 555.125 1107.57 556.403 1109.84 558.678C1112.11 560.952 1113.39 564.037 1113.39 567.253C1113.39 570.47 1112.11 573.555 1109.84 575.829C1107.57 578.104 1104.48 579.381 1101.26 579.381Z" fill="#D0FFFF"/>
<path d="M1275.46 579.381H1233.57C1230.35 579.381 1227.27 578.104 1224.99 575.829C1222.72 573.555 1221.44 570.47 1221.44 567.253C1221.44 564.037 1222.72 560.952 1224.99 558.678C1227.27 556.403 1230.35 555.125 1233.57 555.125H1275.46C1278.68 555.125 1281.77 556.403 1284.04 558.678C1286.31 560.952 1287.59 564.037 1287.59 567.253C1287.59 570.47 1286.31 573.555 1284.04 575.829C1281.77 578.104 1278.68 579.381 1275.46 579.381Z" fill="#D0FFFF"/>
<path d="M1187.26 579.381H1145.37C1142.15 579.381 1139.06 578.104 1136.79 575.829C1134.52 573.555 1133.24 570.47 1133.24 567.253C1133.24 564.037 1134.52 560.952 1136.79 558.678C1139.06 556.403 1142.15 555.125 1145.37 555.125H1187.26C1190.48 555.125 1193.56 556.403 1195.84 558.678C1198.11 560.952 1199.39 564.037 1199.39 567.253C1199.39 570.47 1198.11 573.555 1195.84 575.829C1193.56 578.104 1190.48 579.381 1187.26 579.381Z" fill="#D0FFFF"/>
<path d="M1101.26 625.687H1059.37C1056.15 625.687 1053.07 624.41 1050.79 622.135C1048.52 619.861 1047.24 616.776 1047.24 613.56C1047.24 610.343 1048.52 607.258 1050.79 604.984C1053.07 602.709 1056.15 601.432 1059.37 601.432H1101.26C1104.48 601.432 1107.57 602.709 1109.84 604.984C1112.11 607.258 1113.39 610.343 1113.39 613.56C1113.39 616.776 1112.11 619.861 1109.84 622.135C1107.57 624.41 1104.48 625.687 1101.26 625.687Z" fill="#D0FFFF"/>
<path d="M1275.46 625.687H1233.57C1230.35 625.687 1227.27 624.41 1224.99 622.135C1222.72 619.861 1221.44 616.776 1221.44 613.56C1221.44 610.343 1222.72 607.258 1224.99 604.984C1227.27 602.709 1230.35 601.432 1233.57 601.432H1275.46C1278.68 601.432 1281.77 602.709 1284.04 604.984C1286.31 607.258 1287.59 610.343 1287.59 613.56C1287.59 616.776 1286.31 619.861 1284.04 622.135C1281.77 624.41 1278.68 625.687 1275.46 625.687Z" fill="#D0FFFF"/>
<path d="M1187.26 625.687H1145.37C1142.15 625.687 1139.06 624.41 1136.79 622.135C1134.52 619.861 1133.24 616.776 1133.24 613.56C1133.24 610.343 1134.52 607.258 1136.79 604.984C1139.06 602.709 1142.15 601.432 1145.37 601.432H1187.26C1190.48 601.432 1193.56 602.709 1195.84 604.984C1198.11 607.258 1199.39 610.343 1199.39 613.56C1199.39 616.776 1198.11 619.861 1195.84 622.135C1193.56 624.41 1190.48 625.687 1187.26 625.687Z" fill="#D0FFFF"/>
<path d="M817.914 577.176C880.023 577.176 930.372 526.826 930.372 464.717C930.372 402.608 880.023 352.259 817.914 352.259C755.804 352.259 705.455 402.608 705.455 464.717C705.455 526.826 755.804 577.176 817.914 577.176Z" fill="#3A506B"/>
<path d="M817.914 602.534C809.145 602.524 800.737 599.036 794.537 592.836C788.336 586.635 784.848 578.227 784.838 569.458V359.977C784.834 355.631 785.687 351.327 787.348 347.311C789.009 343.295 791.444 339.645 794.516 336.571C797.588 333.497 801.235 331.058 805.25 329.394C809.265 327.73 813.568 326.874 817.914 326.874C822.26 326.874 826.563 327.73 830.578 329.394C834.592 331.058 838.24 333.497 841.312 336.571C844.383 339.645 846.819 343.295 848.48 347.311C850.14 351.327 850.993 355.631 850.99 359.977V569.458C850.98 578.227 847.492 586.635 841.291 592.835C835.09 599.036 826.683 602.524 817.914 602.534Z" fill="#D0FFFF"/>
<path d="M1111.71 382.158H1080.84C1079.67 382.158 1078.55 381.693 1077.72 380.866C1076.89 380.039 1076.43 378.917 1076.43 377.748C1076.43 376.578 1076.89 375.456 1077.72 374.629C1078.55 373.802 1079.67 373.338 1080.84 373.338H1111.71C1112.88 373.338 1114 373.802 1114.83 374.629C1115.65 375.456 1116.12 376.578 1116.12 377.748C1116.12 378.917 1115.65 380.039 1114.83 380.866C1114 381.693 1112.88 382.158 1111.71 382.158Z" fill="#5BC0BE"/>
<path d="M1160.22 383.26H1129.35C1128.18 383.26 1127.06 382.796 1126.23 381.969C1125.4 381.141 1124.94 380.02 1124.94 378.85C1124.94 377.68 1125.4 376.559 1126.23 375.732C1127.06 374.905 1128.18 374.44 1129.35 374.44H1160.22C1161.39 374.44 1162.51 374.905 1163.34 375.732C1164.17 376.559 1164.63 377.68 1164.63 378.85C1164.63 380.02 1164.17 381.141 1163.34 381.969C1162.51 382.796 1161.39 383.26 1160.22 383.26Z" fill="#5BC0BE"/>
<path d="M1208.73 384.363H1177.86C1176.69 384.363 1175.57 383.898 1174.74 383.071C1173.92 382.244 1173.45 381.122 1173.45 379.952C1173.45 378.783 1173.92 377.661 1174.74 376.834C1175.57 376.007 1176.69 375.542 1177.86 375.542H1208.73C1209.9 375.542 1211.02 376.007 1211.85 376.834C1212.68 377.661 1213.14 378.783 1213.14 379.952C1213.14 381.122 1212.68 382.244 1211.85 383.071C1211.02 383.898 1209.9 384.363 1208.73 384.363Z" fill="#5BC0BE"/>
<path d="M1257.24 385.466H1226.37C1225.2 385.466 1224.08 385.001 1223.25 384.174C1222.43 383.347 1221.96 382.225 1221.96 381.055C1221.96 379.886 1222.43 378.764 1223.25 377.937C1224.08 377.11 1225.2 376.645 1226.37 376.645H1257.24C1258.41 376.645 1259.53 377.11 1260.36 377.937C1261.19 378.764 1261.65 379.886 1261.65 381.055C1261.65 382.225 1261.19 383.347 1260.36 384.174C1259.53 385.001 1258.41 385.466 1257.24 385.466Z" fill="#5BC0BE"/>
<path d="M498.178 816.424C498.176 821.884 499.259 827.29 501.363 832.329C503.468 837.367 506.553 841.937 510.439 845.773H492.223C486.849 845.773 481.527 844.714 476.562 842.658C471.597 840.601 467.086 837.587 463.285 833.787C459.485 829.987 456.471 825.475 454.414 820.51C452.358 815.545 451.299 810.223 451.299 804.849V141.384C451.299 136.01 452.358 130.688 454.414 125.723C456.471 120.758 459.485 116.246 463.285 112.446C467.086 108.646 471.597 105.632 476.562 103.575C481.527 101.518 486.849 100.46 492.223 100.46H518.73C512.479 104.096 507.291 109.308 503.684 115.577C500.078 121.845 498.179 128.95 498.178 136.182L498.178 816.424Z" fill="#3A506B"/>
<path d="M1722.18 957H2.17635C1.59857 956.998 1.04504 956.765 0.637072 956.352C0.229108 955.939 0 955.379 0 954.795C0 954.211 0.229108 953.651 0.637072 953.238C1.04504 952.825 1.59857 952.592 2.17635 952.59H1722.18C1722.76 952.59 1723.32 952.822 1723.72 953.236C1724.13 953.649 1724.36 954.21 1724.36 954.795C1724.36 955.38 1724.13 955.941 1723.72 956.354C1723.32 956.768 1722.76 957 1722.18 957Z" fill="#3A506B"/>
<path d="M493.768 294.33C479.833 290.427 465.845 286.811 451.806 283.481C403.798 272.021 355.128 263.538 306.074 258.079C297.759 255.889 288.916 257.073 281.469 261.372C274.023 265.671 268.577 272.738 266.316 281.034L241.818 371.441C239.568 379.775 240.718 388.66 245.013 396.147C249.309 403.634 256.399 409.111 264.729 411.375L265.059 411.441C297.474 415.124 330.197 420.24 362.743 426.767C365.655 427.34 368.544 427.935 371.454 428.553C381.884 430.714 392.284 433.022 402.655 435.477C407.198 436.535 411.718 437.638 416.26 438.762C428.477 441.805 440.7 445.047 452.932 448.487C466.537 452.323 480.149 456.417 493.768 460.769C495.247 461.21 496.724 461.673 498.179 462.158V295.587C496.724 295.146 495.247 294.727 493.768 294.33Z" fill="#D0FFFF"/>
<path d="M493.768 294.33C479.833 290.427 465.845 286.811 451.806 283.481C403.798 272.021 355.128 263.538 306.074 258.079C297.759 255.889 288.916 257.073 281.469 261.372C274.023 265.671 268.577 272.738 266.316 281.034L241.818 371.441C239.568 379.775 240.718 388.66 245.013 396.147C249.309 403.634 256.399 409.111 264.729 411.375L265.059 411.441C297.474 415.124 330.197 420.24 362.743 426.767C365.655 427.34 368.544 427.935 371.454 428.553C381.884 430.714 392.284 433.022 402.655 435.477C407.198 436.535 411.718 437.638 416.26 438.762C428.477 441.805 440.7 445.047 452.932 448.487C466.537 452.323 480.149 456.417 493.768 460.769C495.247 461.21 496.724 461.673 498.179 462.158V457.505C496.701 457.042 495.224 456.579 493.768 456.116C481.244 452.125 468.735 448.369 456.239 444.848C451.564 443.503 446.889 442.202 442.214 440.945C433.791 438.674 425.39 436.498 417.011 434.418C412.557 433.293 408.11 432.213 403.67 431.177C403.339 431.088 402.986 431.022 402.655 430.934C395.091 429.148 387.513 427.443 379.921 425.818C377.011 425.201 374.1 424.584 371.189 423.988C336.084 416.711 300.715 411.044 265.72 407.075C258.562 405.082 252.482 400.342 248.802 393.887C245.123 387.432 244.142 379.785 246.074 372.61L270.572 282.18C272.531 274.985 277.265 268.861 283.735 265.153C290.205 261.445 297.882 260.455 305.081 262.401L305.411 262.445C353.843 267.823 401.901 276.159 449.315 287.406C449.799 287.538 450.285 287.649 450.769 287.759C465.148 291.199 479.48 294.918 493.768 298.917C495.224 299.314 496.701 299.732 498.178 300.173V295.587C496.724 295.146 495.247 294.727 493.768 294.33Z" fill="#66FFFF"/>
<path d="M498.179 297.88V459.82C496.701 459.335 495.247 458.872 493.768 458.409C480.737 454.242 467.661 450.317 454.541 446.634C441.949 443.062 429.314 439.703 416.636 436.557C412.138 435.454 407.661 434.374 403.162 433.315C402.986 432.522 402.809 431.728 402.655 430.934C401.839 427.141 401.201 423.304 400.715 419.446C400.494 417.968 400.34 416.491 400.185 414.991C397.865 391.367 401.099 367.528 409.629 345.376C418.159 323.224 431.749 303.373 449.315 287.406C449.954 286.789 450.616 286.193 451.278 285.62C465.522 289.016 479.686 292.691 493.768 296.645C495.247 297.02 496.724 297.439 498.179 297.88Z" fill="#66FFFF"/>
<path d="M351.741 364.186L290.418 356.954C288.26 356.699 286.074 356.871 283.983 357.462C281.893 358.052 279.939 359.048 278.233 360.393C276.528 361.738 275.104 363.407 274.043 365.302C272.982 367.198 272.304 369.284 272.05 371.441C271.795 373.598 271.967 375.785 272.558 377.875C273.148 379.966 274.144 381.92 275.489 383.626C276.835 385.331 278.503 386.755 280.398 387.816C282.294 388.877 284.38 389.554 286.537 389.809L347.859 397.042C352.21 397.545 356.584 396.302 360.02 393.585C363.456 390.868 365.674 386.9 366.188 382.55C366.702 378.2 365.469 373.824 362.761 370.381C360.053 366.939 356.089 364.711 351.741 364.186ZM361.84 382.047C361.456 385.239 359.822 388.148 357.296 390.136C354.77 392.124 351.559 393.03 348.366 392.654L287.043 385.421C283.859 385.033 280.958 383.399 278.976 380.877C276.994 378.355 276.092 375.15 276.468 371.964C276.845 368.778 278.468 365.872 280.984 363.881C283.499 361.889 286.701 360.977 289.888 361.342L351.211 368.574C354.403 368.961 357.312 370.594 359.304 373.119C361.295 375.643 362.207 378.853 361.84 382.047Z" fill="#66FFFF"/>
<path d="M498.178 335.807V412.61C496.762 413.46 495.288 414.211 493.768 414.859C485.854 418.392 477.079 419.536 468.523 418.149C459.967 416.763 452.003 412.906 445.61 407.053C444.993 406.502 444.375 405.906 443.779 405.289C443.184 404.694 442.611 404.054 442.06 403.415C435.403 395.769 431.556 386.08 431.154 375.951C430.752 365.821 433.82 355.858 439.85 347.709C445.88 339.56 454.511 333.713 464.316 331.136C474.12 328.559 484.51 329.406 493.768 333.536C495.278 334.213 496.75 334.971 498.178 335.807Z" fill="#D0FFFF"/>
<path d="M493.768 391.397C476.415 395.013 459.179 399.019 442.06 403.415C435.666 405.047 429.293 406.737 422.942 408.486C415.357 410.581 407.771 412.75 400.185 414.991C390.506 417.858 380.84 420.857 371.189 423.988C368.388 424.914 365.566 425.84 362.743 426.766C335.908 435.719 309.249 445.642 283.03 456.469C274.687 458.554 267.505 463.851 263.049 471.207C258.593 478.562 257.223 487.38 259.238 495.741L281.355 586.766C283.402 595.15 288.691 602.38 296.061 606.869C303.432 611.358 312.282 612.741 320.671 610.713L320.98 610.603C364.095 592.918 408.223 577.809 453.13 565.355C466.537 561.628 480.083 558.115 493.768 554.815C495.247 554.462 496.701 554.109 498.179 553.778V390.493C496.701 390.758 495.247 391.066 493.768 391.397Z" fill="#D0FFFF"/>
<path d="M493.768 391.397C476.415 395.013 459.179 399.019 442.06 403.415C435.666 405.047 429.293 406.737 422.942 408.486C415.357 410.581 407.771 412.75 400.185 414.991C390.506 417.858 380.84 420.857 371.189 423.988C368.388 424.914 365.566 425.84 362.743 426.766C335.908 435.719 309.249 445.642 283.03 456.469C274.687 458.554 267.505 463.851 263.049 471.207C258.593 478.562 257.223 487.38 259.238 495.741L281.355 586.766C283.402 595.15 288.691 602.38 296.061 606.869C303.432 611.358 312.282 612.741 320.671 610.713L320.98 610.603C364.095 592.918 408.223 577.809 453.13 565.355C466.537 561.628 480.083 558.115 493.768 554.815C495.247 554.462 496.701 554.109 498.179 553.778V549.236C496.701 549.589 495.247 549.942 493.768 550.294C492.666 550.559 491.542 550.824 490.439 551.088C477.474 554.242 464.647 557.579 451.96 561.099C451.63 561.187 451.278 561.298 450.946 561.386C406.266 573.812 362.36 588.869 319.458 606.48C312.223 608.175 304.612 606.947 298.278 603.062C291.944 599.176 287.399 592.948 285.633 585.73L263.538 494.705C261.784 487.456 262.977 479.809 266.854 473.439C270.732 467.068 276.977 462.496 284.221 460.725L284.552 460.614C313.108 448.795 342.17 438.078 371.454 428.553C374.276 427.626 377.099 426.722 379.921 425.818C386.845 423.635 393.777 421.511 400.715 419.446C408.036 417.263 415.349 415.161 422.655 413.139C423.14 413.007 423.626 412.875 424.111 412.742C431.256 410.78 438.422 408.883 445.61 407.053C461.553 402.996 477.605 399.269 493.768 395.874C495.224 395.565 496.701 395.256 498.178 394.969V390.493C496.701 390.758 495.247 391.066 493.768 391.397Z" fill="#66FFFF"/>
<path d="M498.178 392.72V551.507C496.723 551.837 495.246 552.168 493.768 552.521C479.965 555.873 466.22 559.445 452.534 563.238C451.983 562.62 451.453 562.003 450.946 561.385C436.658 544.66 426.159 525.04 420.172 503.873C414.185 482.706 412.85 460.493 416.26 438.762C416.371 438.034 416.503 437.284 416.636 436.556C416.746 435.851 416.878 435.123 417.01 434.418C418.372 427.197 420.258 420.085 422.654 413.139C422.942 412.301 423.228 411.463 423.537 410.625C430.262 408.773 437.01 406.994 443.779 405.289C460.34 401.011 477.003 397.123 493.768 393.624C495.224 393.293 496.701 393.006 498.178 392.72Z" fill="#66FFFF"/>
<path d="M395.71 536.557C394.056 532.496 390.86 529.256 386.821 527.549C382.782 525.842 378.231 525.806 374.166 527.45L316.944 550.647C312.886 552.301 309.651 555.498 307.948 559.535C306.245 563.573 306.213 568.121 307.861 572.182C309.509 576.242 312.7 579.483 316.735 581.192C320.77 582.901 325.318 582.939 329.381 581.298L386.603 558.101C390.661 556.443 393.897 553.246 395.604 549.209C397.31 545.171 397.348 540.622 395.71 536.557ZM384.949 553.999L327.727 577.219C324.746 578.424 321.408 578.397 318.446 577.143C315.485 575.889 313.142 573.511 311.932 570.531C310.723 567.551 310.745 564.213 311.995 561.25C313.245 558.287 315.62 555.94 318.598 554.727L375.82 531.53C378.8 530.319 382.138 530.342 385.101 531.592C388.064 532.843 390.409 535.22 391.619 538.2C392.83 541.179 392.807 544.518 391.556 547.481C390.306 550.444 387.929 552.789 384.949 553.999Z" fill="#66FFFF"/>
<path d="M498.179 433.272V519.732C496.725 520.103 495.253 520.397 493.769 520.614C484.916 521.855 475.895 520.404 467.877 516.45C459.86 512.496 453.217 506.222 448.813 498.443C444.409 490.664 442.446 481.74 443.181 472.831C443.915 463.922 447.313 455.439 452.932 448.487C453.439 447.847 453.968 447.23 454.541 446.634C455.07 446.017 455.644 445.422 456.239 444.848C461.115 440.026 467.039 436.395 473.548 434.237C480.058 432.08 486.978 431.455 493.769 432.412C495.254 432.611 496.727 432.898 498.179 433.272Z" fill="#D0FFFF"/>
<path d="M493.769 282.842V502.93C495.247 502.445 496.724 501.982 498.179 501.541V284.848C496.702 284.165 495.247 283.503 493.769 282.842ZM493.769 282.842V502.93C495.247 502.445 496.724 501.982 498.179 501.541V284.848C496.702 284.165 495.247 283.503 493.769 282.842ZM493.769 282.842V502.93C495.247 502.445 496.724 501.982 498.179 501.541V284.848C496.702 284.165 495.247 283.503 493.769 282.842ZM493.769 298.917V552.522C495.247 552.169 496.724 551.838 498.179 551.507V300.174C496.702 299.733 495.224 299.314 493.769 298.917ZM493.769 298.917V552.522C495.247 552.169 496.724 551.838 498.179 551.507V300.174C496.702 299.733 495.224 299.314 493.769 298.917ZM493.769 298.917V552.522C495.247 552.169 496.724 551.838 498.179 551.507V300.174C496.702 299.733 495.224 299.314 493.769 298.917ZM493.769 298.917V552.522C495.247 552.169 496.724 551.838 498.179 551.507V300.174C496.702 299.733 495.224 299.314 493.769 298.917ZM493.769 298.917V554.815C495.247 554.462 496.702 554.109 498.179 553.779V300.174C496.702 299.733 495.224 299.314 493.769 298.917ZM1455.73 90.4056H539.546C527.412 90.4257 515.78 95.2551 507.199 103.836C498.618 112.416 493.789 124.048 493.769 136.183V816.424C493.789 828.557 498.62 840.186 507.201 848.763C515.782 857.34 527.414 862.165 539.546 862.18H1455.73C1467.86 862.165 1479.49 857.339 1488.07 848.762C1496.64 840.184 1501.47 828.555 1501.48 816.424V136.183C1501.47 124.049 1496.65 112.414 1488.07 103.832C1479.5 95.2503 1467.86 90.4216 1455.73 90.4056ZM1497.07 816.424C1497.06 827.386 1492.7 837.896 1484.95 845.647C1477.2 853.398 1466.69 857.758 1455.73 857.769H539.546C528.582 857.759 518.069 853.401 510.314 845.65C502.559 837.899 498.195 827.389 498.179 816.424V136.183C498.195 125.217 502.559 114.704 510.313 106.95C518.068 99.1957 528.58 94.8321 539.546 94.8157H1455.73C1466.7 94.8283 1477.21 99.1914 1484.96 106.947C1492.71 114.703 1497.07 125.217 1497.07 136.183V816.424ZM493.769 298.917V550.295C495.247 549.942 496.702 549.589 498.179 549.236V300.174C496.702 299.733 495.224 299.314 493.769 298.917ZM493.769 298.917V552.522C495.247 552.169 496.724 551.838 498.179 551.507V300.174C496.702 299.733 495.224 299.314 493.769 298.917ZM493.769 298.917V552.522C495.247 552.169 496.724 551.838 498.179 551.507V300.174C496.702 299.733 495.224 299.314 493.769 298.917ZM493.769 298.917V552.522C495.247 552.169 496.724 551.838 498.179 551.507V300.174C496.702 299.733 495.224 299.314 493.769 298.917ZM493.769 282.842V502.93C495.247 502.445 496.724 501.982 498.179 501.541V284.848C496.702 284.165 495.247 283.503 493.769 282.842ZM493.769 282.842V502.93C495.247 502.445 496.724 501.982 498.179 501.541V284.848C496.702 284.165 495.247 283.503 493.769 282.842Z" fill="#3A506B"/>
<path d="M297.354 515.707C296.49 513.692 295.194 511.89 293.558 510.43C291.922 508.969 289.986 507.885 287.886 507.253C285.786 506.622 283.572 506.459 281.402 506.775C279.232 507.092 277.158 507.88 275.325 509.085L233.052 476.604L231.055 504.235L271.504 530.843C273.732 533.788 276.963 535.812 280.584 536.534C284.206 537.255 287.966 536.623 291.152 534.757C294.339 532.892 296.73 529.922 297.873 526.411C299.016 522.9 298.832 519.092 297.354 515.707Z" fill="#FFB6B6"/>
<path d="M127.01 319.683L113.1 313.109C113.1 313.109 90.691 319.413 101.578 349.045L167.464 471.787L247.902 518.882L272.978 496.66L192.482 432.969L127.01 319.683Z" fill="#1C2541"/>
</svg>
