<svg width="232" height="201" viewBox="0 0 232 201" fill="none" xmlns="http://www.w3.org/2000/svg">
<g clip-path="url(#clip0_6_425)">
<path d="M96.5049 174.178L99.0388 165.926C95.99 162.57 92.1682 160.01 87.9053 158.466C92.0702 165.366 88.0344 174.368 89.7162 182.25C90.2595 184.704 91.3482 187.005 92.9016 188.981C94.455 190.958 96.4332 192.559 98.6896 193.667L102.535 198.431C104.551 194.909 105.779 190.992 106.135 186.95C106.491 182.908 105.967 178.836 104.598 175.016C103.809 172.88 102.754 170.853 101.458 168.981C99.1734 171.667 96.5049 174.178 96.5049 174.178Z" fill="#D0FFFF"/>
<path d="M82.572 175.232L81.1596 166.716C76.9343 165.073 72.3717 164.485 67.8679 165.005C74.673 169.323 75.0751 179.18 80.0957 185.485C81.6766 187.439 83.6771 189.013 85.9488 190.089C88.2206 191.165 90.7054 191.716 93.2191 191.701L98.7856 194.251C99.0192 190.2 98.3716 186.146 96.8876 182.369C95.4037 178.592 93.1185 175.182 90.1896 172.373C88.5309 170.813 86.6824 169.469 84.6877 168.372C83.8406 171.795 82.572 175.232 82.572 175.232Z" fill="#D0FFFF"/>
<path d="M165.505 196.314L161.601 196.313L159.745 181.259L165.505 181.259L165.505 196.314Z" fill="#FFB6B6"/>
<path d="M166.5 200.097L153.915 200.096V199.937C153.915 198.638 154.431 197.392 155.35 196.474C156.268 195.555 157.514 195.039 158.813 195.039H158.814L161.112 193.295L165.402 195.039L166.5 195.039L166.5 200.097Z" fill="#3A506B"/>
<path d="M228.554 182.077L225.892 184.932L213.613 176.026L217.541 171.812L228.554 182.077Z" fill="#FFB6B6"/>
<path d="M232 183.928L223.419 193.135L223.303 193.026C222.352 192.14 221.793 190.913 221.747 189.615C221.701 188.317 222.173 187.053 223.059 186.103L223.351 183.232L227.551 181.283L228.3 180.48L232 183.928Z" fill="#3A506B"/>
<path d="M222.778 173.616L218.653 182.244L193.32 165.471L189.635 160.45L177.551 143.986L172.639 151.78L169.221 159.928C168.107 160.654 167.168 161.619 166.473 162.752C165.777 163.886 165.342 165.16 165.199 166.482L165.042 167.924L167.202 187.34L158.993 189.861L154.279 163.778L155.82 158.127L157.406 150.193L165.395 125.123H186.772L199.034 151.222L199.93 156.54L203.406 160.53L222.778 173.616Z" fill="#3A506B"/>
<path d="M178.352 84.1065L181.951 86.8468L186.291 88.1804C186.291 88.1804 188.085 113.418 189.702 115.035C191.318 116.651 189.86 116.695 190.185 118.795C190.51 120.895 191.299 125.2 191.299 125.2C180.387 130.976 170.979 131.131 163.423 124.372C163.326 123.954 163.375 123.515 163.562 123.129C163.749 122.742 164.062 122.431 164.45 122.247C165.856 121.501 163.153 118.018 164.302 117.436C165.452 116.853 163.835 111.801 163.835 111.801L164.896 101.261L164.058 99.5758L166.103 89.2658L169.65 87.9701L171.068 84.5555L178.352 84.1065Z" fill="#1C2541"/>
<path d="M180.606 128.962C180.59 128.506 180.674 128.053 180.853 127.633C181.031 127.213 181.299 126.837 181.638 126.532C181.977 126.227 182.379 126 182.815 125.868C183.251 125.735 183.711 125.699 184.163 125.763L189.235 115.906L192.06 120.926L186.811 129.517C186.653 130.269 186.225 130.936 185.607 131.393C184.99 131.849 184.227 132.064 183.462 131.995C182.697 131.927 181.984 131.58 181.458 131.021C180.932 130.462 180.629 129.73 180.606 128.962Z" fill="#FFB6B6"/>
<path d="M189.147 126.551L200.025 109.691L199.989 109.614C199.948 109.525 197.485 104.205 195.098 99.3319C194.731 98.5815 194.365 97.8417 194.01 97.1332C193.857 96.8275 193.706 96.5281 193.558 96.2352C192.555 94.2588 191.679 92.6253 191.156 91.8494C190 90.095 188.278 88.789 186.277 88.148L186.227 88.1351L186.179 88.1551C185.2 88.5682 184.391 89.3024 183.886 90.2368C183.38 91.1712 183.208 92.25 183.398 93.2953C184.342 98.337 186.444 103.09 189.539 107.18L191.303 109.505L185.175 122.828L189.147 126.551Z" fill="#1C2541"/>
<path d="M151.741 61.9257C152.041 62.2696 152.262 62.675 152.387 63.1134C152.513 63.5517 152.542 64.0123 152.47 64.4628C152.399 64.9132 152.23 65.3425 151.974 65.7205C151.719 66.0984 151.384 66.4158 150.993 66.6503L153.261 77.5018L147.904 75.3811L146.572 65.4015C146.222 64.7182 146.134 63.9302 146.326 63.1867C146.518 62.4432 146.976 61.7959 147.613 61.3675C148.25 60.9391 149.022 60.7593 149.783 60.8622C150.544 60.965 151.241 61.3435 151.741 61.9257Z" fill="#FFB6B6"/>
<path d="M146.625 69.1773L148.791 89.1242L148.868 89.1618C148.931 89.1929 151.675 90.5389 155.044 92.1419C155.612 92.4123 155.53 93.5836 156.124 93.8636C156.533 94.0564 157.614 93.3567 158.027 93.55C161.709 95.2718 165.432 96.9461 166.916 97.3997C168.919 98.0344 171.079 97.9648 173.037 97.2027L173.084 97.181L173.109 97.1352C173.609 96.198 173.775 95.1183 173.579 94.0741C173.384 93.0299 172.838 92.0835 172.032 91.3911C168.124 88.0686 163.498 85.6998 158.518 84.4718L155.684 83.7765L152.055 69.5673L146.625 69.1773Z" fill="#1C2541"/>
<path d="M174.515 82.9764C178.446 82.9764 181.633 79.7894 181.633 75.8582C181.633 71.9269 178.446 68.74 174.515 68.74C170.584 68.74 167.397 71.9269 167.397 75.8582C167.397 79.7894 170.584 82.9764 174.515 82.9764Z" fill="#FFB6B6"/>
<path d="M167.448 71.0884C168.033 69.3854 170.947 68.2041 175.672 68.0399C180.396 67.8756 181.594 73.4428 181.594 73.4428C184.748 76.0011 178.226 82.8504 177.911 82.6037L178.053 81.3169C178.288 79.1854 179.286 77.5223 178.016 75.3009L176.797 75.3149C175.223 75.6176 173.649 75.9203 172.075 76.223L173.938 74.5821L173.886 74.5008C173.093 74.9137 172.23 75.1756 171.342 75.2732C170.34 75.3321 169.245 74.9334 168.765 74.0521C168.637 73.8099 168.559 73.5444 168.535 73.2714C167.184 73.8111 166.567 75.4764 166.567 75.4764C166.567 75.4764 166.863 72.7914 167.448 71.0884Z" fill="#3A506B"/>
<path d="M28.6791 71.5159C28.5825 71.3933 28.4785 71.2767 28.3677 71.1669C28.3948 71.1296 28.4219 71.089 28.4489 71.0517L28.6791 71.5159Z" fill="#3A506B"/>
<path d="M30.0635 100.144C28.8991 102.213 26.5737 103.367 24.2686 103.932C21.6795 104.61 18.953 104.558 16.3921 103.78C16.0671 103.675 15.7422 103.553 15.4274 103.418C15.5787 103.016 15.6987 102.603 15.7862 102.182C15.904 101.613 15.963 101.034 15.9622 100.453C15.7057 100.953 15.3735 101.411 14.9772 101.81C14.6715 102.131 14.3243 102.41 13.9448 102.639C12.7677 101.925 11.7485 100.978 10.9492 99.8568C11 99.7315 11.0508 99.6063 11.0982 99.4811C11.344 98.8269 11.5386 98.1547 11.6804 97.4705C11.8727 96.5452 11.9691 95.6026 11.9681 94.6576C11.5507 95.4719 11.0095 96.2164 10.3636 96.8645C10.17 97.0717 9.96433 97.2673 9.74762 97.4501C9.41203 96.431 9.2823 95.3552 9.36597 94.2855C9.44964 93.2157 9.74505 92.1733 10.235 91.2186C11.5754 88.7409 14.175 87.2685 16.4902 85.6675C18.8089 84.0664 21.1275 81.9001 21.3238 79.0873C21.4558 77.1884 20.5758 75.2861 20.9278 73.4177C21.0758 72.6298 21.4373 71.8976 21.9727 71.301C22.5082 70.7043 23.1971 70.266 23.9644 70.0338C24.7318 69.8017 25.5481 69.7845 26.3245 69.9843C27.101 70.1841 27.8077 70.5931 28.3677 71.1668C27.0543 73.0284 25.7478 74.9544 25.2164 77.1681C24.6748 79.4224 25.1182 82.066 26.8953 83.5587C27.5045 84.0732 28.2526 84.4388 28.7231 85.0819C29.3493 85.9349 29.3527 87.0722 29.4542 88.1215C29.6573 90.1626 30.3241 92.1258 30.6829 94.1465C31.0451 96.1639 31.0654 98.3539 30.0635 100.144Z" fill="#3A506B"/>
<path d="M6.19409 184.084L9.2834 186.47L19.96 175.691L15.4004 172.168L6.19409 184.084Z" fill="#A0616A"/>
<path d="M6.32558 181.751L11.4341 185.233L9.81747 187.325L11.9826 194.119C12.0896 194.455 12.0865 194.816 11.9738 195.149C11.8611 195.483 11.6447 195.772 11.3562 195.974C11.0677 196.176 10.7222 196.28 10.3701 196.272C10.018 196.264 9.67782 196.143 9.39916 195.928L3.58538 191.436L4.18241 188.592L2.19202 190.359L0 188.665L6.32558 181.751Z" fill="#3A506B"/>
<path d="M21.8672 77.5291C21.8667 78.7361 22.1626 79.9247 22.7288 80.9907C23.2949 82.0566 24.1141 82.9673 25.1144 83.6428C26.1147 84.3182 27.2655 84.7378 28.4658 84.8647C29.6662 84.9916 30.8793 84.8218 31.9987 84.3704C33.1181 83.919 34.1095 83.1997 34.8861 82.2757C35.6626 81.3516 36.2004 80.2511 36.4523 79.0707C36.7042 77.8903 36.6625 76.6661 36.3308 75.5055C35.9991 74.345 35.3876 73.2836 34.55 72.4146L34.5146 72.3793C34.4556 72.3173 34.3966 72.2554 34.3347 72.1964L34.3336 72.1961L34.3326 72.1955L34.332 72.1945L34.3318 72.1934C34.2551 72.1226 34.1784 72.0518 34.0987 71.984C32.801 70.8455 30.9769 69.6097 29.1158 69.6097C25.0426 69.6097 21.8672 73.4558 21.8672 77.5291Z" fill="#3A506B"/>
<path d="M63.8964 73.7424C63.9317 74.1356 63.8804 74.5319 63.746 74.9032C63.6116 75.2744 63.3974 75.6118 63.1185 75.8913C62.8397 76.1709 62.5029 76.3859 62.132 76.5212C61.761 76.6566 61.3649 76.7089 60.9715 76.6746L42.7123 93.1608L39.5701 88.1981L58.5064 73.5532C58.6078 72.8962 58.9468 72.2992 59.459 71.8754C59.9712 71.4515 60.621 71.2303 61.2854 71.2537C61.9498 71.277 62.5826 71.5432 63.0638 72.0019C63.545 72.4606 63.8413 73.0798 63.8964 73.7424Z" fill="#A0616A"/>
<path d="M34.9084 98.137C34.9084 98.137 35.5877 99.3917 37.9084 97.4543C39.7663 95.9032 48.6671 89.1693 50.5847 86.41C51.0225 86.5834 51.5057 86.6063 51.958 86.475C52.4103 86.3437 52.806 86.0656 53.0828 85.6846L47.8289 81.0833C46.2569 81.2642 46.2906 82.3202 46.4543 82.9198L42.4912 84.7154L32.2571 91.2557L34.4012 97.2387L34.9084 98.137Z" fill="#66FFFF"/>
<path d="M24.994 109.697L24.6113 111.52L24.2864 118.242L38.5933 119.029L38.1491 108.689L36.7623 106.41L24.994 109.697Z" fill="#A0616A"/>
<path d="M31.0575 85.4183C34.4724 85.4183 37.2407 82.65 37.2407 79.2351C37.2407 75.8202 34.4724 73.0519 31.0575 73.0519C27.6426 73.0519 24.8743 75.8202 24.8743 79.2351C24.8743 82.65 27.6426 85.4183 31.0575 85.4183Z" fill="#A0616A"/>
<path d="M20.08 102.042L20.042 96.9018C20.0411 95.0525 20.6669 93.2574 21.8174 91.8095C22.9678 90.3615 24.575 89.3462 26.3767 88.929L26.4 88.9235L27.6226 87.2761L32.59 87.773L33.5005 89.6338L37.1 91.7771L38.4858 96.2321C39.0869 96.6328 39.5992 97.1527 39.9909 97.7597C40.3825 98.3667 40.6451 99.0478 40.7625 99.7606C41.233 102.766 39.1287 105.773 38.8784 106.118L38.2335 109.75L24.2038 112.225L24.0899 112.24L20.08 102.042Z" fill="#66FFFF"/>
<path d="M38.6238 78.1328C37.9026 78.5896 37.1543 79.0022 36.383 79.3682C35.6002 79.7443 34.7815 80.0403 33.9392 80.2517C33.6982 79.7229 33.4033 79.2205 33.0591 78.7522C33.1477 79.307 33.15 79.8722 33.0659 80.4277C31.6698 80.653 30.2399 80.5356 28.8991 80.0859L27.7348 78.1328L27.6467 80.3126C26.6821 80.4887 25.7208 80.6545 24.7561 80.8271C24.6985 80.8339 24.641 80.8475 24.5868 80.8576C23.9877 78.1565 24.8373 75.1812 26.7261 73.3805C27.6638 72.4958 28.8336 71.8956 30.0992 71.6499C31.3648 71.4042 32.6742 71.5231 33.8749 71.9927C34.0272 72.0536 34.1829 72.1213 34.3318 72.1924L34.3321 72.1937L34.3328 72.1948L34.3339 72.1956L34.3352 72.1958C34.4232 72.2398 34.4977 72.3447 34.5958 72.3346C38.8201 71.864 38.9555 75.1406 38.6238 78.1328Z" fill="#3A506B"/>
<path d="M28.3374 176.111L31.4315 178.491L42.0865 167.69L37.52 164.177L28.3374 176.111Z" fill="#A0616A"/>
<path d="M28.7447 173.994L33.8603 177.465L32.2478 179.561L34.4267 186.35C34.5343 186.686 34.532 187.047 34.42 187.38C34.308 187.714 34.0921 188.004 33.804 188.206C33.5159 188.409 33.1706 188.514 32.8185 188.506C32.4664 188.499 32.126 188.379 31.8469 188.164L26.0241 183.684L26.6154 180.838L24.6285 182.61L22.4331 180.92L28.7447 173.994Z" fill="#3A506B"/>
<path d="M18.2974 162.928L18.2972 162.888L19.7636 160.361L18.2663 157.071L18.2213 148.62L18.4641 147.352C18.7905 145.645 18.6956 143.885 18.1874 142.224L18.16 137.08C18.1074 135.791 20.1037 134.658 19.6382 133.583C15.2379 123.429 24.1316 115.682 24.1917 115.62L24.3734 115.431L25.3595 116.178L26.2981 116.179L38.9637 118.487L39.0551 118.658C39.5533 119.592 40.5147 122.813 40.5717 124.27C41.203 125.001 48.3932 133.321 49.0324 133.899C53.3516 137.807 55.8246 144.276 56.9142 147.784C57.1848 148.651 57.2394 149.571 57.0731 150.464C56.9068 151.356 56.5248 152.195 55.9602 152.907L39.6088 170.817L35.2085 166.755L44.0561 150.632L43.4181 148.997C42.2733 148.786 41.2373 148.184 40.4869 147.294L38.6953 145.167C38.1993 144.58 37.8841 143.862 37.7878 143.099L36.7013 142.968L32.8095 138.882L30.1095 163.334L29.3754 165.266L16.5918 180.294L11.176 176.91L18.2974 162.928Z" fill="#3A506B"/>
<path d="M16.3452 57.9351C16.0996 58.2442 15.9248 58.6035 15.8331 58.9876C15.7413 59.3717 15.7349 59.7712 15.8143 60.158C15.8937 60.5448 16.0569 60.9095 16.2924 61.2264C16.528 61.5433 16.8302 61.8047 17.1777 61.9922L13.1128 74.0263L16.432 86.7794L21.7843 84.3597L18.4815 74.7404L20.9525 60.7388C21.2288 60.1341 21.2737 59.4491 21.0786 58.8136C20.8836 58.178 20.4621 57.6361 19.8942 57.2905C19.3263 56.9449 18.6514 56.8196 17.9973 56.9384C17.3431 57.0572 16.7553 57.4118 16.3452 57.9351Z" fill="#A0616A"/>
<path d="M21.2445 97.2872C21.2445 97.2872 19.9874 97.9622 19.1131 95.0683C18.4132 92.7515 13.6499 80.1722 13.5641 76.8131C13.1029 76.7174 12.6867 76.4711 12.381 76.1128C12.0753 75.7546 11.8974 75.3048 11.8755 74.8343L18.7936 73.877C20.0075 74.892 19.3991 75.7557 18.9329 76.1667L21.2891 80.1579L26.214 90.9327L22.1618 96.8154L21.2445 97.2872Z" fill="#66FFFF"/>
<path d="M24.7546 80.8266C25.4651 78.6841 26.739 76.7723 28.4427 75.2917C30.1465 73.8111 32.2172 72.8163 34.4378 72.4116C34.4467 72.4087 34.4762 72.3969 34.5145 72.3792C34.5381 72.3645 34.5676 72.3497 34.5971 72.335C34.5086 72.2848 34.4231 72.2406 34.3346 72.1963L34.3335 72.1961L34.3325 72.1955L34.3319 72.1945L34.3317 72.1934C34.255 72.1226 34.1783 72.0518 34.0987 71.984L33.8745 71.9928C33.8745 71.9928 25.9964 70.7452 24.7546 80.8266Z" fill="#FD6584"/>
<path d="M126.411 149.729C127.27 148.437 126.762 146.587 125.274 145.597C123.786 144.607 121.883 144.852 121.024 146.145C120.164 147.437 120.673 149.287 122.16 150.277C123.648 151.267 125.551 151.021 126.411 149.729Z" fill="#D0FFFF"/>
<path d="M108.957 101.493C109.817 100.201 109.308 98.3508 107.82 97.3611C106.333 96.3714 104.43 96.6168 103.57 97.9091C102.71 99.2015 103.219 101.051 104.707 102.041C106.194 103.031 108.097 102.786 108.957 101.493Z" fill="#D0FFFF"/>
<path d="M181.945 175.751C182.805 174.458 182.296 172.608 180.809 171.619C179.321 170.629 177.418 170.874 176.558 172.167C175.698 173.459 176.207 175.309 177.695 176.299C179.183 177.288 181.086 177.043 181.945 175.751Z" fill="#D0FFFF"/>
<path d="M34.3821 20.5715C35.2419 19.2791 34.733 17.4291 33.2454 16.4394C31.7578 15.4497 29.8549 15.6951 28.9951 16.9874C28.1352 18.2798 28.6442 20.1298 30.1318 21.1195C31.6193 22.1092 33.5223 21.8638 34.3821 20.5715Z" fill="#D0FFFF"/>
<path d="M103.245 5.33913C104.105 4.04678 103.596 2.19681 102.108 1.20711C100.621 0.217406 98.7177 0.462752 97.8579 1.75511C96.998 3.04746 97.507 4.89745 98.9945 5.88715C100.482 6.87685 102.385 6.63149 103.245 5.33913Z" fill="#D0FFFF"/>
<path d="M70.6538 133.137C71.5136 131.844 71.0047 129.994 69.5171 129.005C68.0296 128.015 66.1266 128.26 65.2668 129.553C64.407 130.845 64.9159 132.695 66.4035 133.685C67.8911 134.674 69.794 134.429 70.6538 133.137Z" fill="#3A506B"/>
<path d="M212.703 200.402H6.33818C6.23816 200.401 6.14233 200.361 6.07171 200.29C6.00108 200.22 5.96143 200.124 5.96143 200.023C5.96143 199.923 6.00108 199.827 6.07171 199.756C6.14233 199.685 6.23816 199.645 6.33818 199.645H212.703C212.803 199.645 212.899 199.685 212.97 199.756C213.041 199.827 213.08 199.923 213.08 200.023C213.08 200.124 213.041 200.22 212.97 200.291C212.899 200.362 212.803 200.402 212.703 200.402Z" fill="#3A506B"/>
<path d="M44.7475 74.9081C43.0117 74.9031 41.3385 74.2585 40.0479 73.0975C38.7573 71.9366 37.9399 70.3407 37.7518 68.6151L33.7231 31.1985C33.5251 29.3408 34.0722 27.4804 35.2442 26.0255C36.4163 24.5706 38.1176 23.64 39.9749 23.4379L159.598 10.5578C161.455 10.3598 163.316 10.9068 164.771 12.0788C166.226 13.2508 167.156 14.9521 167.358 16.8094L171.387 54.2258C171.585 56.0836 171.038 57.9441 169.866 59.3991C168.694 60.854 166.993 61.7846 165.135 61.9867L45.5125 74.8669C45.2585 74.8943 45.0031 74.9081 44.7475 74.9081Z" fill="#3A506B"/>
<path d="M158.28 12.2948C158.055 12.2949 157.831 12.307 157.607 12.3311L42.2975 24.7468C41.4913 24.8336 40.71 25.0784 39.9983 25.4672C39.2866 25.8559 38.6585 26.3811 38.1497 27.0126C37.641 27.6441 37.2616 28.3696 37.0333 29.1477C36.805 29.9259 36.7321 30.7414 36.8189 31.5476L38.8559 50.4658C39.1852 53.5241 40.1136 56.4877 41.5882 59.1872C43.0628 61.8868 45.0547 64.2694 47.4501 66.1992C49.8455 68.1289 52.5976 69.5679 55.5492 70.4341C58.5007 71.3002 61.594 71.5765 64.6523 71.2472L145.734 62.5168C148.783 62.1885 151.738 61.2629 154.429 59.7928C157.121 58.3226 159.496 56.3368 161.42 53.9487C163.344 51.5605 164.778 48.8168 165.642 45.8743C166.505 42.9317 166.781 39.8478 166.452 36.7988L164.408 17.8097C164.245 16.2971 163.53 14.8979 162.399 13.8802C161.268 12.8626 159.801 12.298 158.28 12.2948Z" fill="#D0FFFF"/>
<path d="M133.998 31.9832L69.5495 38.9225C69.3653 38.9426 69.1788 38.9262 69.0009 38.8742C68.823 38.8221 68.6571 38.7356 68.5126 38.6194C68.3682 38.5032 68.2481 38.3597 68.1592 38.197C68.0703 38.0343 68.0143 37.8558 67.9944 37.6715C67.9746 37.4872 67.9913 37.3007 68.0435 37.1229C68.0958 36.945 68.1826 36.7792 68.299 36.635C68.4154 36.4907 68.559 36.3708 68.7218 36.2821C68.8846 36.1934 69.0632 36.1376 69.2476 36.118L133.696 29.1787C133.88 29.1586 134.066 29.175 134.244 29.227C134.422 29.279 134.588 29.3656 134.733 29.4818C134.877 29.598 134.997 29.7415 135.086 29.9042C135.175 30.0668 135.231 30.2454 135.251 30.4297C135.271 30.614 135.254 30.8004 135.202 30.9783C135.149 31.1561 135.063 31.3219 134.946 31.4662C134.83 31.6105 134.686 31.7304 134.523 31.8191C134.361 31.9078 134.182 31.9636 133.998 31.9832Z" fill="#66FFFF"/>
<path d="M134.924 40.5904L70.4761 47.5297C70.1042 47.5698 69.7317 47.4604 69.4404 47.2258C69.1491 46.9911 68.9629 46.6504 68.9229 46.2785C68.8829 45.9066 68.9922 45.534 69.2269 45.2427C69.4615 44.9514 69.8023 44.7653 70.1742 44.7252L134.622 37.7859C134.994 37.7458 135.367 37.8551 135.658 38.0898C135.949 38.3245 136.135 38.6652 136.175 39.0371C136.216 39.409 136.106 39.7816 135.872 40.0729C135.637 40.3642 135.296 40.5503 134.924 40.5904Z" fill="#66FFFF"/>
<path d="M78.9134 55.328L71.4029 56.1367C71.031 56.1767 70.6584 56.0674 70.3671 55.8327C70.0758 55.5981 69.8897 55.2573 69.8497 54.8854C69.8096 54.5135 69.919 54.1409 70.1536 53.8497C70.3883 53.5584 70.729 53.3722 71.1009 53.3322L78.6114 52.5235C78.7957 52.5034 78.9821 52.5198 79.16 52.5719C79.338 52.6239 79.5039 52.7105 79.6483 52.8267C79.7927 52.9429 79.9129 53.0864 80.0018 53.249C80.0907 53.4117 80.1467 53.5903 80.1665 53.7746C80.1864 53.9589 80.1697 54.1453 80.1174 54.3231C80.0652 54.501 79.9784 54.6668 79.862 54.8111C79.7456 54.9553 79.6019 55.0753 79.4391 55.164C79.2764 55.2527 79.0977 55.3084 78.9134 55.328Z" fill="#66FFFF"/>
<path d="M42.2118 32.7773C43.6139 32.7773 44.7505 31.6407 44.7505 30.2386C44.7505 28.8365 43.6139 27.6999 42.2118 27.6999C40.8097 27.6999 39.6731 28.8365 39.6731 30.2386C39.6731 31.6407 40.8097 32.7773 42.2118 32.7773Z" fill="#1C2541"/>
<path d="M155.82 20.0837C157.222 20.0837 158.358 18.9471 158.358 17.545C158.358 16.1429 157.222 15.0063 155.82 15.0063C154.418 15.0063 153.281 16.1429 153.281 17.545C153.281 18.9471 154.418 20.0837 155.82 20.0837Z" fill="#1C2541"/>
<path d="M121.497 72.2026C121.264 71.9978 121.079 71.7435 120.956 71.4583C120.833 71.1731 120.776 70.8641 120.787 70.5538C120.915 66.8664 120.308 63.1904 119.001 59.7399C118.89 59.4499 118.845 59.1388 118.87 58.8293C118.894 58.5197 118.987 58.2195 119.142 57.9505C119.291 57.692 119.494 57.4691 119.738 57.2975C119.982 57.1259 120.261 57.0098 120.554 56.9573C123.505 55.1766 126.53 54.6767 129.547 55.4718C130.034 55.4001 130.53 55.5043 130.946 55.7655C131.363 56.0267 131.673 56.4279 131.82 56.8969C133.042 60.8624 133.721 64.9749 133.84 69.1225C133.851 69.6201 133.683 70.1051 133.365 70.4884C133.048 70.8717 132.603 71.1276 132.112 71.2091L123.184 72.6841C122.885 72.7342 122.578 72.7169 122.286 72.6337C121.994 72.5504 121.725 72.4031 121.497 72.2026Z" fill="#66FFFF"/>
<path d="M122.29 61.4589L129.804 60.2174C129.866 60.2074 129.925 60.1852 129.979 60.1523C130.032 60.1193 130.078 60.0761 130.114 60.0253C130.151 59.9744 130.177 59.9169 130.191 59.8559C130.206 59.795 130.208 59.7318 130.197 59.67C130.187 59.6083 130.165 59.5491 130.132 59.496C130.099 59.4428 130.056 59.3967 130.005 59.3603C129.954 59.3239 129.896 59.2979 129.835 59.2838C129.774 59.2697 129.711 59.2678 129.649 59.2782L122.135 60.5196C122.011 60.5404 121.9 60.6097 121.826 60.7123C121.753 60.8148 121.723 60.9423 121.744 61.0666C121.764 61.191 121.833 61.3022 121.936 61.3757C122.038 61.4492 122.166 61.4791 122.29 61.4589Z" fill="#D0FFFF"/>
<path d="M122.911 65.216L130.425 63.9746C130.55 63.954 130.661 63.8848 130.735 63.7822C130.808 63.6795 130.838 63.5519 130.817 63.4274C130.797 63.3028 130.727 63.1915 130.625 63.118C130.522 63.0445 130.395 63.0147 130.27 63.0353L122.756 64.2767C122.694 64.2868 122.635 64.3089 122.581 64.3419C122.528 64.3749 122.482 64.418 122.446 64.4689C122.409 64.5197 122.383 64.5773 122.369 64.6382C122.354 64.6992 122.352 64.7624 122.363 64.8241C122.373 64.8859 122.395 64.9451 122.428 64.9982C122.461 65.0513 122.504 65.0974 122.555 65.1338C122.606 65.1702 122.664 65.1962 122.725 65.2103C122.786 65.2244 122.849 65.2264 122.911 65.216Z" fill="#D0FFFF"/>
<path d="M123.532 68.9732L131.046 67.7317C131.17 67.7111 131.282 67.6419 131.355 67.5393C131.429 67.4367 131.459 67.309 131.438 67.1845C131.417 67.0599 131.348 66.9487 131.246 66.8751C131.143 66.8016 131.015 66.7719 130.891 66.7924L123.376 68.0339C123.315 68.0441 123.256 68.0663 123.203 68.0993C123.15 68.1323 123.103 68.1755 123.067 68.2263C123.031 68.2771 123.005 68.3346 122.99 68.3955C122.976 68.4563 122.974 68.5194 122.984 68.5811C122.995 68.6428 123.017 68.7018 123.05 68.7549C123.083 68.808 123.126 68.8541 123.177 68.8905C123.228 68.9269 123.285 68.9529 123.346 68.9671C123.407 68.9813 123.47 68.9833 123.532 68.9732Z" fill="#D0FFFF"/>
</g>
<defs>
<clipPath id="clip0_6_425">
<rect width="232" height="199.802" fill="white" transform="translate(0 0.599152)"/>
</clipPath>
</defs>
</svg>
