<svg width="1343" height="1158" viewBox="0 0 1343 1158" fill="none" xmlns="http://www.w3.org/2000/svg">
<g clip-path="url(#clip0_38_110)">
<path d="M558.647 1006.02L573.315 958.191C555.666 938.743 533.543 923.903 508.865 914.959C532.975 954.949 509.613 1007.12 519.348 1052.8C522.494 1067.03 528.796 1080.36 537.788 1091.81C546.78 1103.27 558.232 1112.55 571.294 1118.97L593.553 1146.59C605.222 1126.17 612.333 1103.47 614.395 1080.04C616.457 1056.61 613.421 1033.02 605.498 1010.88C600.929 998.498 594.823 986.747 587.321 975.898C574.094 991.467 558.647 1006.02 558.647 1006.02Z" fill="#D0FFFF"/>
<path d="M477.992 1012.13L469.816 962.772C445.357 953.246 418.944 949.842 392.873 952.855C432.266 977.883 434.594 1035.01 463.657 1071.55C472.809 1082.88 484.389 1092 497.54 1098.23C510.69 1104.47 525.075 1107.67 539.626 1107.58L571.849 1122.36C573.201 1098.88 569.453 1075.38 560.862 1053.49C552.272 1031.6 539.043 1011.84 522.089 995.557C512.487 986.519 501.786 978.727 490.239 972.366C485.336 992.208 477.992 1012.13 477.992 1012.13Z" fill="#D0FFFF"/>
<path d="M958.072 1134.31L935.476 1134.31L924.728 1047.06L958.075 1047.06L958.072 1134.31Z" fill="#FFB6B6"/>
<path d="M963.833 1156.24L890.981 1156.24V1155.31C890.981 1147.78 893.969 1140.56 899.287 1135.24C904.604 1129.91 911.817 1126.92 919.337 1126.92H919.339L932.646 1116.82L957.475 1126.92L963.834 1126.92L963.833 1156.24Z" fill="#3A506B"/>
<path d="M1323.05 1051.8L1307.64 1068.35L1236.56 1016.73L1259.3 992.308L1323.05 1051.8Z" fill="#FFB6B6"/>
<path d="M1343 1062.53L1293.33 1115.89L1292.65 1115.26C1287.15 1110.12 1283.91 1103.01 1283.65 1095.49C1283.38 1087.96 1286.12 1080.64 1291.24 1075.13L1292.93 1058.49L1317.25 1047.2L1321.58 1042.54L1343 1062.53Z" fill="#3A506B"/>
<path d="M1289.62 1002.76L1265.74 1052.77L1119.09 955.558L1097.76 926.455L1027.8 831.032L999.369 876.205L979.584 923.427C973.136 927.638 967.702 933.23 963.676 939.8C959.649 946.369 957.13 953.752 956.3 961.415L955.395 969.775L967.897 1082.3L920.378 1096.91L893.086 945.746L902.007 912.989L911.192 867.009L957.437 721.71H1081.19L1152.16 872.972L1157.35 903.793L1177.48 926.917L1289.62 1002.76Z" fill="#3A506B"/>
<path d="M1032.44 483.988L1053.27 499.869L1078.4 507.599C1078.4 507.599 1088.78 653.869 1098.14 663.239C1107.5 672.609 1099.06 672.86 1100.94 685.032C1102.82 697.204 1107.39 722.154 1107.39 722.154C1044.22 755.633 989.764 756.531 946.019 717.355C945.46 714.932 945.744 712.39 946.825 710.151C947.906 707.911 949.72 706.109 951.964 705.043C960.106 700.717 944.459 680.53 951.112 677.155C957.766 673.78 948.408 644.5 948.408 644.5L954.547 583.409L949.696 573.643L961.533 513.89L982.071 506.38L990.275 486.59L1032.44 483.988Z" fill="#1C2541"/>
<path d="M1045.49 743.959C1045.4 741.318 1045.89 738.688 1046.92 736.255C1047.95 733.822 1049.5 731.645 1051.46 729.877C1053.43 728.11 1055.75 726.794 1058.28 726.024C1060.8 725.254 1063.47 725.048 1066.08 725.42L1095.44 668.287L1111.8 697.383L1081.41 747.177C1080.49 751.531 1078.02 755.399 1074.44 758.046C1070.87 760.693 1066.45 761.936 1062.02 761.54C1057.6 761.143 1053.47 759.135 1050.42 755.894C1047.38 752.654 1045.62 748.408 1045.49 743.959Z" fill="#FFB6B6"/>
<path d="M1094.94 729.983L1157.91 632.27L1157.7 631.821C1157.46 631.305 1143.2 600.472 1129.38 572.23C1127.26 567.881 1125.14 563.593 1123.08 559.487C1122.2 557.715 1121.32 555.98 1120.46 554.282C1114.66 542.828 1109.59 533.36 1106.56 528.863C1099.87 518.695 1089.9 511.126 1078.32 507.411L1078.03 507.336L1077.75 507.452C1072.08 509.846 1067.4 514.102 1064.48 519.517C1061.55 524.933 1060.55 531.185 1061.65 537.243C1067.12 566.464 1079.29 594.014 1097.2 617.718L1107.41 631.19L1071.94 708.41L1094.94 729.983Z" fill="#1C2541"/>
<path d="M878.4 355.433C880.134 357.427 881.41 359.776 882.139 362.317C882.868 364.857 883.032 367.527 882.618 370.137C882.205 372.748 881.225 375.236 879.748 377.427C878.27 379.617 876.331 381.457 874.067 382.816L887.193 445.708L856.187 433.417L848.475 375.578C846.447 371.618 845.94 367.051 847.051 362.742C848.161 358.433 850.812 354.681 854.501 352.198C858.189 349.715 862.66 348.673 867.064 349.269C871.469 349.866 875.502 352.059 878.4 355.433Z" fill="#FFB6B6"/>
<path d="M848.782 397.462L861.32 513.069L861.765 513.287C862.131 513.467 878.016 521.268 897.515 530.558C900.805 532.126 900.333 538.915 903.771 540.537C906.139 541.655 912.393 537.599 914.786 538.72C936.1 548.699 957.651 558.402 966.24 561.032C977.836 564.71 990.339 564.307 1001.67 559.889L1001.95 559.764L1002.09 559.498C1004.99 554.067 1005.95 547.809 1004.81 541.757C1003.68 535.705 1000.52 530.22 995.859 526.207C973.238 506.951 946.456 493.222 917.627 486.105L901.224 482.075L880.215 399.722L848.782 397.462Z" fill="#1C2541"/>
<path d="M1010.23 477.437C1032.99 477.437 1051.44 458.967 1051.44 436.182C1051.44 413.398 1032.99 394.927 1010.23 394.927C987.475 394.927 969.026 413.398 969.026 436.182C969.026 458.967 987.475 477.437 1010.23 477.437Z" fill="#FFB6B6"/>
<path d="M969.321 408.538C972.71 398.667 989.579 391.821 1016.93 390.869C1044.27 389.917 1051.21 422.184 1051.21 422.184C1069.47 437.011 1031.71 476.707 1029.89 475.278L1030.71 467.819C1032.07 455.466 1037.85 445.827 1030.5 432.952L1023.44 433.033C1014.33 434.788 1005.22 436.542 996.105 438.297L1006.89 428.786L1006.59 428.315C1002 430.708 997.006 432.226 991.863 432.792C986.064 433.133 979.725 430.823 976.947 425.715C976.206 424.311 975.753 422.772 975.615 421.19C967.795 424.318 964.22 433.969 964.22 433.969C964.22 433.969 965.933 418.408 969.321 408.538Z" fill="#3A506B"/>
<path d="M166.018 411.013C165.459 410.303 164.856 409.628 164.215 408.992C164.372 408.776 164.528 408.541 164.685 408.325L166.018 411.013Z" fill="#3A506B"/>
<path d="M174.031 576.939C167.291 588.926 153.83 595.615 140.486 598.892C125.498 602.822 109.715 602.516 94.8903 598.009C93.0094 597.401 91.1283 596.694 89.306 595.91C90.1821 593.58 90.8765 591.186 91.383 588.749C92.0651 585.451 92.4065 582.092 92.4019 578.725C90.9172 581.625 88.9939 584.279 86.7 586.591C84.9304 588.453 82.9206 590.069 80.7238 591.398C73.9097 587.257 68.0095 581.77 63.3829 575.272C63.6768 574.546 63.9708 573.82 64.2451 573.094C65.6679 569.303 66.7947 565.407 67.6152 561.441C68.7286 556.079 69.2867 550.616 69.2808 545.139C66.8648 549.858 63.7316 554.173 59.993 557.93C58.8722 559.13 57.6815 560.264 56.427 561.324C54.4843 555.417 53.7334 549.182 54.2177 542.982C54.7021 536.782 56.4121 530.74 59.2485 525.207C67.0078 510.847 82.0561 502.313 95.4586 493.034C108.881 483.755 122.303 471.2 123.439 454.897C124.203 443.892 119.109 432.867 121.147 422.038C122.004 417.471 124.096 413.228 127.196 409.77C130.295 406.311 134.283 403.771 138.725 402.426C143.167 401.08 147.893 400.981 152.387 402.139C156.882 403.296 160.973 405.667 164.215 408.992C156.612 419.782 149.049 430.944 145.972 443.774C142.837 456.84 145.404 472.161 155.691 480.812C159.218 483.794 163.548 485.913 166.272 489.64C169.897 494.584 169.917 501.176 170.504 507.257C171.68 519.087 175.54 530.465 177.617 542.177C179.714 553.869 179.831 566.562 174.031 576.939Z" fill="#3A506B"/>
<path d="M35.8567 1063.43L53.74 1077.26L115.545 1014.79L89.1504 994.368L35.8567 1063.43Z" fill="#A0616A"/>
<path d="M36.6175 1049.91L66.1897 1070.09L56.8313 1082.22L69.3647 1121.59C69.984 1123.54 69.9661 1125.63 69.3138 1127.56C68.6615 1129.5 67.4089 1131.17 65.7387 1132.34C64.0686 1133.51 62.0685 1134.12 60.0304 1134.07C57.9923 1134.02 56.0229 1133.32 54.4098 1132.07L20.755 1106.04L24.2111 1089.56L12.6892 1099.8L0 1089.98L36.6175 1049.91Z" fill="#3A506B"/>
<path d="M126.584 445.866C126.582 452.862 128.294 459.751 131.572 465.929C134.849 472.107 139.591 477.385 145.382 481.3C151.172 485.214 157.834 487.646 164.782 488.382C171.731 489.117 178.753 488.133 185.233 485.517C191.713 482.901 197.453 478.732 201.948 473.376C206.443 468.021 209.556 461.642 211.014 454.801C212.473 447.96 212.231 440.864 210.311 434.138C208.391 427.412 204.851 421.261 200.003 416.224L199.798 416.019C199.456 415.66 199.115 415.301 198.756 414.959L198.749 414.958L198.744 414.954L198.74 414.949L198.739 414.942C198.295 414.532 197.851 414.121 197.39 413.728C189.878 407.13 179.319 399.968 168.545 399.968C144.966 399.968 126.584 422.259 126.584 445.866Z" fill="#3A506B"/>
<path d="M369.883 423.919C370.087 426.199 369.79 428.495 369.012 430.647C368.234 432.799 366.994 434.754 365.379 436.374C363.765 437.994 361.816 439.241 359.668 440.025C357.521 440.809 355.228 441.113 352.951 440.914L247.252 536.464L229.062 507.701L338.681 422.823C339.268 419.015 341.23 415.555 344.195 413.099C347.16 410.642 350.922 409.36 354.768 409.496C358.614 409.631 362.277 411.174 365.063 413.832C367.848 416.49 369.563 420.08 369.883 423.919Z" fill="#A0616A"/>
<path d="M202.078 565.304C202.078 565.304 206.01 572.577 219.444 561.347C230.199 552.358 281.724 513.33 292.825 497.338C295.359 498.343 298.156 498.476 300.774 497.714C303.393 496.953 305.683 495.342 307.286 493.133L276.872 466.465C267.772 467.514 267.967 473.635 268.915 477.11L245.973 487.516L186.73 525.422L199.142 560.098L202.078 565.304Z" fill="#66FFFF"/>
<path d="M144.685 632.304L142.47 642.867L140.589 681.829L223.409 686.387L220.837 626.461L212.809 613.256L144.685 632.304Z" fill="#A0616A"/>
<path d="M179.786 491.59C199.554 491.59 215.579 475.546 215.579 455.754C215.579 435.962 199.554 419.918 179.786 419.918C160.018 419.918 143.992 435.962 143.992 455.754C143.992 475.546 160.018 491.59 179.786 491.59Z" fill="#A0616A"/>
<path d="M116.239 587.934L116.019 558.146C116.014 547.428 119.637 537.024 126.296 528.632C132.956 520.24 142.259 514.355 152.689 511.937L152.824 511.906L159.902 502.358L188.657 505.238L193.927 516.022L214.764 528.444L222.786 554.264C226.266 556.586 229.231 559.6 231.499 563.118C233.766 566.636 235.286 570.583 235.965 574.714C238.689 592.133 226.508 609.561 225.059 611.559L221.326 632.61L140.111 646.957L139.451 647.041L116.239 587.934Z" fill="#66FFFF"/>
<path d="M223.585 449.365C219.41 452.013 215.079 454.404 210.614 456.526C206.082 458.705 201.343 460.421 196.467 461.646C195.072 458.581 193.365 455.669 191.372 452.955C191.885 456.171 191.898 459.447 191.412 462.666C183.33 463.972 175.052 463.292 167.291 460.685L160.551 449.365L160.041 461.999C154.457 463.019 148.892 463.981 143.308 464.981C142.975 465.02 142.642 465.099 142.328 465.158C138.86 449.503 143.778 432.259 154.712 421.822C160.14 416.695 166.912 413.216 174.238 411.792C181.565 410.368 189.144 411.057 196.095 413.779C196.976 414.132 197.878 414.524 198.74 414.936L198.741 414.944L198.745 414.95L198.752 414.955L198.759 414.956C199.269 415.211 199.7 415.819 200.268 415.76C224.722 413.033 225.506 432.023 223.585 449.365Z" fill="#3A506B"/>
<path d="M164.04 1017.22L181.951 1031.02L243.631 968.415L217.196 948.053L164.04 1017.22Z" fill="#A0616A"/>
<path d="M166.398 1004.95L196.011 1025.07L186.677 1037.22L199.289 1076.57C199.913 1078.51 199.899 1080.6 199.251 1082.54C198.602 1084.47 197.353 1086.15 195.685 1087.32C194.017 1088.5 192.018 1089.11 189.98 1089.06C187.942 1089.02 185.971 1088.32 184.356 1087.08L150.648 1061.11L154.071 1044.62L142.57 1054.89L129.861 1045.1L166.398 1004.95Z" fill="#3A506B"/>
<path d="M105.92 940.816L105.919 940.582L114.408 925.937L105.74 906.872L105.48 857.893L106.885 850.54C108.775 840.651 108.225 830.449 105.283 820.821L105.125 791.007C104.82 783.538 116.376 776.97 113.681 770.743C88.2089 711.89 139.693 666.993 140.041 666.632L141.093 665.537L146.801 669.866L152.234 669.873L225.553 683.249L226.082 684.237C228.966 689.652 234.531 708.319 234.861 716.766C238.516 721.001 280.138 769.223 283.838 772.574C308.842 795.224 323.157 832.713 329.465 853.045C331.031 858.069 331.347 863.401 330.384 868.576C329.422 873.751 327.21 878.612 323.942 882.735L229.287 986.538L203.815 962.997L255.032 869.555L251.338 860.074C244.712 858.851 238.715 855.362 234.37 850.205L223.999 837.88C221.128 834.477 219.303 830.313 218.746 825.894L212.457 825.136L189.928 801.454L174.298 943.17L170.048 954.365L96.0465 1041.47L64.6958 1021.85L105.92 940.816Z" fill="#3A506B"/>
<path d="M94.6185 332.304C93.1968 334.096 92.1848 336.178 91.6538 338.404C91.1228 340.63 91.0857 342.946 91.5452 345.188C92.0047 347.43 92.9495 349.543 94.3131 351.38C95.6768 353.217 97.4261 354.732 99.4378 355.818L75.9067 425.565L95.1211 499.479L126.104 485.455L106.985 429.704L121.289 348.554C122.889 345.05 123.148 341.079 122.019 337.396C120.89 333.712 118.451 330.572 115.163 328.569C111.876 326.566 107.968 325.84 104.182 326.528C100.395 327.217 96.9927 329.272 94.6185 332.304Z" fill="#A0616A"/>
<path d="M122.979 560.379C122.979 560.379 115.702 564.292 110.641 547.519C106.59 534.091 79.016 461.185 78.5192 441.717C75.8496 441.162 73.4402 439.735 71.6704 437.658C69.9007 435.582 68.8712 432.975 68.7441 430.248L108.791 424.7C115.819 430.582 112.297 435.589 109.598 437.97L123.238 461.102L151.747 523.55L128.29 557.645L122.979 560.379Z" fill="#66FFFF"/>
<path d="M143.3 464.978C147.412 452.561 154.787 441.48 164.649 432.899C174.512 424.318 186.499 418.552 199.354 416.207C199.405 416.19 199.576 416.122 199.798 416.019C199.934 415.934 200.105 415.848 200.276 415.763C199.764 415.472 199.269 415.216 198.756 414.959L198.75 414.958L198.744 414.954L198.74 414.949L198.739 414.942C198.295 414.532 197.851 414.122 197.39 413.728L196.093 413.78C196.093 413.78 150.488 406.549 143.3 464.978Z" fill="#FD6584"/>
<path d="M731.766 864.318C736.743 856.828 733.797 846.106 725.185 840.37C716.574 834.634 705.558 836.056 700.581 843.546C695.604 851.036 698.55 861.758 707.161 867.494C715.772 873.23 726.788 871.808 731.766 864.318Z" fill="#D0FFFF"/>
<path d="M630.73 584.756C635.707 577.266 632.761 566.544 624.15 560.808C615.538 555.072 604.522 556.494 599.545 563.984C594.568 571.474 597.514 582.196 606.125 587.932C614.737 593.668 625.752 592.246 630.73 584.756Z" fill="#D0FFFF"/>
<path d="M1053.24 1015.13C1058.22 1007.64 1055.27 996.922 1046.66 991.186C1038.05 985.45 1027.04 986.872 1022.06 994.362C1017.08 1001.85 1020.03 1012.57 1028.64 1018.31C1037.25 1024.05 1048.27 1022.62 1053.24 1015.13Z" fill="#D0FFFF"/>
<path d="M199.031 115.755C204.008 108.264 201.062 97.5424 192.451 91.8063C183.84 86.0702 172.824 87.4923 167.847 94.9824C162.869 102.473 165.815 113.195 174.427 118.931C183.038 124.667 194.054 123.245 199.031 115.755Z" fill="#D0FFFF"/>
<path d="M597.663 27.4717C602.641 19.9815 599.695 9.25959 591.083 3.52354C582.472 -2.21252 571.456 -0.790554 566.479 6.69961C561.502 14.1898 564.448 24.9118 573.059 30.6479C581.67 36.3839 592.686 34.9619 597.663 27.4717Z" fill="#D0FFFF"/>
<path d="M409.001 768.153C413.979 760.663 411.033 749.941 402.421 744.205C393.81 738.469 382.794 739.891 377.817 747.381C372.84 754.871 375.786 765.593 384.397 771.329C393.008 777.065 404.024 775.643 409.001 768.153Z" fill="#3A506B"/>
<path d="M1231.29 1158H36.6912C36.1122 1158 35.5575 1157.77 35.1487 1157.36C34.7398 1156.95 34.5103 1156.39 34.5103 1155.81C34.5103 1155.23 34.7398 1154.67 35.1487 1154.26C35.5575 1153.85 36.1122 1153.62 36.6912 1153.62H1231.29C1231.87 1153.62 1232.43 1153.85 1232.84 1154.26C1233.25 1154.67 1233.48 1155.23 1233.48 1155.81C1233.48 1156.39 1233.25 1156.95 1232.84 1157.36C1232.43 1157.77 1231.87 1158 1231.29 1158Z" fill="#3A506B"/>
<path d="M259.035 430.676C248.986 430.647 239.301 426.911 231.83 420.182C224.359 413.454 219.627 404.205 218.538 394.203L195.217 177.346C194.071 166.579 197.238 155.797 204.022 147.365C210.807 138.932 220.655 133.539 231.407 132.368L923.878 57.7178C934.632 56.57 945.402 59.7403 953.824 66.533C962.247 73.3258 967.634 83.1862 968.804 93.9508L992.125 310.807C993.271 321.574 990.104 332.357 983.319 340.789C976.535 349.222 966.686 354.615 955.934 355.787L263.463 430.437C261.992 430.596 260.514 430.676 259.035 430.676Z" fill="#3A506B"/>
<path d="M916.251 67.785C914.95 67.7854 913.65 67.8556 912.356 67.9951L244.852 139.954C240.184 140.457 235.662 141.876 231.542 144.129C227.422 146.382 223.786 149.425 220.841 153.085C217.896 156.746 215.7 160.951 214.378 165.46C213.056 169.97 212.635 174.697 213.137 179.37L224.929 289.014C226.835 306.74 232.21 323.916 240.746 339.562C249.282 355.208 260.812 369.017 274.679 380.201C288.546 391.385 304.477 399.726 321.563 404.746C338.649 409.766 356.555 411.367 374.259 409.458L843.626 358.859C861.276 356.956 878.379 351.592 893.959 343.071C909.538 334.551 923.289 323.041 934.426 309.2C945.563 295.359 953.868 279.458 958.866 262.403C963.865 245.349 965.46 227.475 963.559 209.804L951.724 99.7477C950.78 90.9814 946.639 82.872 940.093 76.9738C933.547 71.0757 925.057 67.8037 916.251 67.785Z" fill="#D0FFFF"/>
<path d="M775.684 181.894L402.607 222.113C401.541 222.229 400.462 222.134 399.432 221.832C398.402 221.531 397.441 221.029 396.605 220.356C395.769 219.682 395.074 218.85 394.559 217.908C394.044 216.965 393.72 215.93 393.605 214.862C393.49 213.794 393.587 212.713 393.889 211.682C394.192 210.652 394.694 209.691 395.368 208.854C396.042 208.018 396.874 207.323 397.816 206.809C398.758 206.295 399.792 205.972 400.859 205.858L773.936 165.64C775.003 165.523 776.082 165.618 777.112 165.92C778.142 166.221 779.102 166.723 779.939 167.397C780.775 168.07 781.47 168.902 781.985 169.845C782.499 170.787 782.823 171.822 782.938 172.89C783.053 173.959 782.957 175.039 782.654 176.07C782.352 177.101 781.849 178.062 781.175 178.898C780.502 179.734 779.67 180.429 778.728 180.943C777.785 181.457 776.751 181.78 775.684 181.894Z" fill="#66FFFF"/>
<path d="M781.049 231.779L407.972 271.998C405.82 272.23 403.663 271.596 401.977 270.236C400.29 268.876 399.213 266.901 398.981 264.746C398.749 262.59 399.382 260.431 400.741 258.743C402.099 257.054 404.071 255.975 406.224 255.743L779.301 215.525C781.454 215.292 783.611 215.926 785.297 217.286C786.983 218.646 788.061 220.621 788.292 222.777C788.524 224.932 787.891 227.091 786.533 228.78C785.175 230.468 783.202 231.547 781.049 231.779Z" fill="#66FFFF"/>
<path d="M456.814 317.194L413.337 321.881C411.184 322.113 409.028 321.48 407.341 320.12C405.655 318.76 404.578 316.785 404.346 314.629C404.114 312.474 404.747 310.315 406.105 308.626C407.464 306.938 409.436 305.859 411.589 305.627L455.066 300.94C456.132 300.824 457.212 300.919 458.242 301.22C459.272 301.522 460.232 302.024 461.068 302.697C461.904 303.371 462.6 304.202 463.114 305.145C463.629 306.088 463.953 307.123 464.068 308.191C464.183 309.259 464.086 310.34 463.784 311.37C463.481 312.401 462.979 313.362 462.305 314.198C461.631 315.035 460.799 315.73 459.857 316.244C458.915 316.758 457.881 317.081 456.814 317.194Z" fill="#66FFFF"/>
<path d="M244.356 186.497C252.472 186.497 259.052 179.909 259.052 171.783C259.052 163.657 252.472 157.069 244.356 157.069C236.239 157.069 229.66 163.657 229.66 171.783C229.66 179.909 236.239 186.497 244.356 186.497Z" fill="#1C2541"/>
<path d="M902.008 112.928C910.124 112.928 916.704 106.34 916.704 98.2139C916.704 90.0877 910.124 83.5001 902.008 83.5001C893.891 83.5001 887.312 90.0877 887.312 98.2139C887.312 106.34 893.891 112.928 902.008 112.928Z" fill="#1C2541"/>
<path d="M703.322 414.996C701.971 413.808 700.902 412.334 700.191 410.682C699.481 409.029 699.147 407.238 699.214 405.44C699.952 384.068 696.437 362.763 688.872 342.765C688.231 341.084 687.972 339.281 688.113 337.487C688.255 335.693 688.794 333.953 689.692 332.394C690.552 330.895 691.729 329.604 693.141 328.609C694.553 327.615 696.165 326.942 697.864 326.638C714.946 316.317 732.457 313.42 749.922 318.028C752.738 317.613 755.61 318.216 758.021 319.73C760.433 321.244 762.227 323.569 763.081 326.288C770.152 349.271 774.085 373.105 774.773 397.144C774.839 400.028 773.863 402.839 772.025 405.06C770.188 407.282 767.611 408.765 764.769 409.237L713.087 417.786C711.355 418.076 709.58 417.976 707.89 417.494C706.201 417.011 704.64 416.158 703.322 414.996Z" fill="#66FFFF"/>
<path d="M707.912 352.727L751.411 345.532C751.769 345.474 752.111 345.346 752.419 345.155C752.727 344.963 752.995 344.713 753.206 344.419C753.418 344.124 753.569 343.79 753.651 343.437C753.734 343.084 753.746 342.718 753.687 342.36C753.628 342.002 753.499 341.659 753.307 341.351C753.116 341.043 752.865 340.776 752.57 340.565C752.275 340.354 751.942 340.203 751.589 340.121C751.236 340.04 750.87 340.028 750.513 340.088L707.014 347.284C706.294 347.404 705.652 347.806 705.228 348.4C704.803 348.995 704.632 349.733 704.751 350.454C704.87 351.175 705.269 351.819 705.862 352.245C706.455 352.671 707.192 352.845 707.912 352.727Z" fill="#D0FFFF"/>
<path d="M711.505 374.503L755.004 367.308C755.725 367.189 756.369 366.788 756.795 366.193C757.221 365.598 757.393 364.858 757.274 364.136C757.154 363.414 756.754 362.769 756.16 362.343C755.566 361.917 754.827 361.745 754.106 361.864L710.607 369.059C710.249 369.117 709.907 369.246 709.599 369.437C709.291 369.628 709.023 369.878 708.812 370.173C708.6 370.467 708.449 370.801 708.367 371.154C708.284 371.508 708.272 371.874 708.331 372.232C708.39 372.59 708.519 372.933 708.711 373.241C708.903 373.549 709.153 373.816 709.448 374.027C709.743 374.238 710.076 374.388 710.429 374.47C710.782 374.552 711.148 374.563 711.505 374.503Z" fill="#D0FFFF"/>
<path d="M715.099 396.278L758.597 389.083C759.318 388.964 759.963 388.563 760.388 387.968C760.814 387.373 760.986 386.634 760.867 385.912C760.748 385.19 760.347 384.545 759.753 384.119C759.159 383.693 758.42 383.52 757.699 383.64L714.2 390.835C713.843 390.894 713.501 391.022 713.194 391.214C712.887 391.405 712.62 391.655 712.41 391.95C712.199 392.244 712.048 392.577 711.966 392.93C711.884 393.283 711.872 393.649 711.931 394.006C711.99 394.364 712.119 394.706 712.31 395.014C712.501 395.321 712.751 395.588 713.045 395.799C713.339 396.01 713.672 396.161 714.024 396.243C714.377 396.326 714.742 396.337 715.099 396.278Z" fill="#D0FFFF"/>
</g>
<defs>
<clipPath id="clip0_38_110">
<rect width="1343" height="1158" fill="white"/>
</clipPath>
</defs>
</svg>
