<svg width="32769" height="9804" viewBox="0 0 32769 9804" fill="none" xmlns="http://www.w3.org/2000/svg">
<path d="M17968.6 53.7253V9803.54H19821.9V5291.23L24844.6 9803.54V1933.85L23071.9 53.7253V5667.25L17968.6 53.7253Z" fill="#66FFFF"/>
<path d="M26348.7 9803.54V1933.85H31908.5V3760.27H28282.5V4942.06H31908.5V6768.47H28282.5V7950.27H32768V9803.54H26348.7Z" fill="#66FFFF"/>
<path d="M0 9696.1L4109.44 590.898L8272.6 9803.53H6150.73L5425.54 8191.99L4109.44 4942.05L2793.35 8191.99L2095.01 9803.53H0V9696.1Z" fill="#5BC0BE"/>
<path d="M12731.2 3921.41L8997.8 0V9803.53H10824.2V4995.77L12758.1 7037.06L14691.9 4995.77V9803.53H16464.6V53.718L12811.8 3921.41H12731.2Z" fill="#5BC0BE"/>
</svg>
