<svg width="3771" height="1128" viewBox="0 0 3771 1128" fill="none" xmlns="http://www.w3.org/2000/svg">
<path d="M2068.05 6.18164V1128H2281.29V608.81L2859.2 1128V222.51L2655.23 6.18164V652.076L2068.05 6.18164Z" fill="#66FFFF"/>
<path d="M3032.26 1128V222.51H3671.98V432.657H3254.77V568.635H3671.98V778.782H3254.77V914.76H3770.87V1128H3032.26Z" fill="#66FFFF"/>
<path d="M0.579102 1115.64L473.413 67.9889L952.427 1128H708.284L624.843 942.573L473.413 568.634L321.982 942.573L241.631 1128H0.579102V1115.64Z" fill="#5BC0BE"/>
<path d="M1465.44 451.199L1035.87 0V1128H1246.02V574.815L1468.53 809.686L1691.04 574.815V1128H1895V6.18081L1474.71 451.199H1465.44Z" fill="#5BC0BE"/>
</svg>
