<svg width="990" height="960" viewBox="0 0 990 960" fill="none" xmlns="http://www.w3.org/2000/svg">
<path d="M375 225C375 249.853 354.853 270 330 270C305.147 270 285 249.853 285 225C285 200.147 305.147 180 330 180C354.853 180 375 200.147 375 225Z" fill="#D0FFFF"/>
<path d="M330 450C354.853 450 375 429.853 375 405C375 380.147 354.853 360 330 360C305.147 360 285 380.147 285 405C285 429.853 305.147 450 330 450Z" fill="#D0FFFF"/>
<path d="M540 225C540 249.853 519.853 270 495 270C470.147 270 450 249.853 450 225C450 200.147 470.147 180 495 180C519.853 180 540 200.147 540 225Z" fill="#D0FFFF"/>
<path d="M495 450C519.853 450 540 429.853 540 405C540 380.147 519.853 360 495 360C470.147 360 450 380.147 450 405C450 429.853 470.147 450 495 450Z" fill="#D0FFFF"/>
<path d="M705 225C705 249.853 684.853 270 660 270C635.147 270 615 249.853 615 225C615 200.147 635.147 180 660 180C684.853 180 705 200.147 705 225Z" fill="#D0FFFF"/>
<path d="M660 450C684.853 450 705 429.853 705 405C705 380.147 684.853 360 660 360C635.147 360 615 380.147 615 405C615 429.853 635.147 450 660 450Z" fill="#D0FFFF"/>
<path fill-rule="evenodd" clip-rule="evenodd" d="M105 205.714V870H45C20.1472 870 0 890.147 0 915C0 939.853 20.1472 960 45 960H945C969.853 960 990 939.853 990 915C990 890.147 969.853 870 945 870H885V205.714C885 92.1014 792.899 0 679.286 0H310.714C197.101 0 105 92.1015 105 205.714ZM679.286 102.857H310.714C253.908 102.857 207.857 148.908 207.857 205.714V870H405V780C405 700.837 435 615 555 615C675 615 705 698.443 705 780V870H782.143V205.714C782.143 148.908 736.092 102.857 679.286 102.857ZM615 870V780C615 743.443 594.668 705 555 705C515.331 705 494.999 749.205 494.999 780C494.999 798.852 495.108 816.191 495.209 832.506C495.291 845.564 495.368 858.003 495.383 870H615Z" fill="#D0FFFF"/>
</svg>
