<svg width="960" height="960" viewBox="0 0 960 960" fill="none" xmlns="http://www.w3.org/2000/svg">
<path fill-rule="evenodd" clip-rule="evenodd" d="M480 0C214.903 0 0 214.903 0 480C0 745.097 214.903 960 480 960C745.097 960 960 745.097 960 480C960 214.903 745.097 0 480 0ZM93.1217 480C93.1217 266.333 266.333 93.1217 480 93.1217C693.667 93.1217 866.878 266.333 866.878 480C866.878 693.667 693.667 866.878 480 866.878C266.333 866.878 93.1217 693.667 93.1217 480Z" fill="#D0FFFF"/>
<path d="M674.555 322.873C693.13 339.384 694.804 367.827 678.292 386.402L458.747 633.391C450.513 642.654 438.823 648.111 426.435 648.475C414.047 648.839 402.057 644.078 393.294 635.314L283.521 525.542C265.947 507.968 265.947 479.476 283.521 461.902C301.094 444.328 329.587 444.328 347.161 461.902L423.187 537.928L611.025 326.61C627.537 308.034 655.98 306.361 674.555 322.873Z" fill="#D0FFFF"/>
</svg>
