<svg width="960" height="960" viewBox="0 0 960 960" fill="none" xmlns="http://www.w3.org/2000/svg">
<path fill-rule="evenodd" clip-rule="evenodd" d="M750 570V660H840C906.274 660 960 606.274 960 540V120C960 53.7258 906.274 0 840 0H420C353.726 0 300 53.7258 300 120V210H390C390 210 510 210 600 210C690 210 750 270 750 360C750 559.193 750 570 750 570ZM0 840C0 906.274 53.7258 960 120 960H540C606.274 960 660 906.274 660 840V420C660 353.726 606.274 300 540 300H120C53.7258 300 0 353.726 0 420V840Z" fill="#D0FFFF"/>
</svg>
