<svg width="960" height="960" viewBox="0 0 960 960" fill="none" xmlns="http://www.w3.org/2000/svg">
<path fill-rule="evenodd" clip-rule="evenodd" d="M584.656 178.28L781.902 375.817L221.74 937.218C214.344 944.63 204.314 948.796 193.855 948.8L21.9192 960C11.0292 960.004 -0.000464045 948.957 1.46683e-08 938.047L12.9432 767.623C12.9436 757.145 17.0989 747.094 24.4948 739.682L584.656 178.28ZM589.801 304.822L655.592 370.705L171.69 855.681L94.9507 866.634L105.898 789.798L589.801 304.822Z" fill="#5BC0BE"/>
<path fill-rule="evenodd" clip-rule="evenodd" d="M650.519 112.445L749.14 13.6418C767.296 -4.54728 796.732 -4.54728 814.888 13.6418L946.383 145.379C964.539 163.568 964.539 193.059 946.383 211.248L847.762 310.051L650.519 112.445Z" fill="#5BC0BE"/>
</svg>
