<svg width="72" height="29" viewBox="0 0 72 29" fill="none" xmlns="http://www.w3.org/2000/svg">
<path d="M2.004 29C1.596 29 1.26 28.868 0.996 28.604C0.732 28.34 0.6 28.004 0.6 27.596V2.288C0.6 1.88 0.732 1.544 0.996 1.28C1.26 1.016 1.596 0.883999 2.004 0.883999H18.888C19.272 0.883999 19.596 1.016 19.86 1.28C20.148 1.52 20.292 1.844 20.292 2.252C20.292 2.612 20.148 2.924 19.86 3.188C19.596 3.452 19.272 3.584 18.888 3.584H3.408V13.52H14.676C15.084 13.52 15.42 13.652 15.684 13.916C15.948 14.18 16.08 14.504 16.08 14.888C16.08 15.272 15.948 15.596 15.684 15.86C15.42 16.124 15.084 16.256 14.676 16.256H3.408V26.3H18.888C19.272 26.3 19.596 26.432 19.86 26.696C20.148 26.96 20.292 27.272 20.292 27.632C20.292 28.04 20.148 28.376 19.86 28.64C19.596 28.88 19.272 29 18.888 29H2.004ZM33.6978 29C33.3138 29 32.9778 28.868 32.6898 28.604C32.4258 28.316 32.2938 27.98 32.2938 27.596V0.883999H35.1018V27.596C35.1018 27.98 34.9698 28.316 34.7058 28.604C34.4418 28.868 34.1058 29 33.6978 29ZM23.7618 3.44C23.3778 3.44 23.0658 3.32 22.8258 3.08C22.5858 2.84 22.4658 2.54 22.4658 2.18C22.4658 1.796 22.5858 1.484 22.8258 1.244C23.0658 1.004 23.3778 0.883999 23.7618 0.883999H43.6698C44.0538 0.883999 44.3658 1.004 44.6058 1.244C44.8458 1.484 44.9658 1.796 44.9658 2.18C44.9658 2.54 44.8458 2.84 44.6058 3.08C44.3658 3.32 44.0538 3.44 43.6698 3.44H23.7618ZM50.5196 29C50.1116 29 49.7756 28.868 49.5116 28.604C49.2476 28.34 49.1156 28.004 49.1156 27.596V2.288C49.1156 1.88 49.2476 1.544 49.5116 1.28C49.7756 1.016 50.1116 0.883999 50.5196 0.883999C50.9516 0.883999 51.3116 1.052 51.5996 1.388L68.8076 23.996V2.288C68.8076 1.88 68.9396 1.544 69.2036 1.28C69.4676 1.016 69.8036 0.883999 70.2116 0.883999C70.5956 0.883999 70.9196 1.016 71.1836 1.28C71.4716 1.544 71.6156 1.88 71.6156 2.288V27.596C71.6156 28.004 71.4716 28.34 71.1836 28.604C70.9196 28.868 70.5956 29 70.2116 29C70.0196 29 69.8276 28.964 69.6356 28.892C69.4436 28.82 69.2876 28.7 69.1676 28.532L51.9236 5.924V27.596C51.9236 28.004 51.7796 28.34 51.4916 28.604C51.2276 28.868 50.9036 29 50.5196 29Z" fill="#D0FFFF"/>
</svg>
