<svg width="950" height="891" viewBox="0 0 950 891" fill="none" xmlns="http://www.w3.org/2000/svg">
<path d="M222.656 0C198.062 0 178.125 19.9457 178.125 44.55V103.95H44.5312C19.9373 103.95 0 123.896 0 148.5C0 173.104 19.9373 193.05 44.5312 193.05H178.125V252.45C178.125 277.054 198.062 297 222.656 297C247.25 297 267.188 277.054 267.188 252.45V44.55C267.188 19.9457 247.25 0 222.656 0Z" fill="#D0FFFF"/>
<path d="M905.469 193.05H356.25V103.95H905.469C930.063 103.95 950 123.896 950 148.5C950 173.104 930.063 193.05 905.469 193.05Z" fill="#D0FFFF"/>
<path d="M905.469 400.95H712.5V341.55C712.5 316.946 692.563 297 667.969 297C643.375 297 623.438 316.946 623.438 341.55V549.45C623.438 574.054 643.375 594 667.969 594C692.563 594 712.5 574.054 712.5 549.45V490.05H905.469C930.063 490.05 950 470.104 950 445.5C950 420.896 930.063 400.95 905.469 400.95Z" fill="#D0FFFF"/>
<path d="M534.375 400.95H44.5312C19.9373 400.95 0 420.896 0 445.5C0 470.104 19.9373 490.05 44.5312 490.05H534.375V400.95Z" fill="#D0FFFF"/>
<path d="M905.469 697.95H623.438V787.05H905.469C930.063 787.05 950 767.104 950 742.5C950 717.896 930.063 697.95 905.469 697.95Z" fill="#D0FFFF"/>
<path d="M445.312 697.95H44.5312C19.9373 697.95 0 717.896 0 742.5C0 767.104 19.9373 787.05 44.5312 787.05H445.312V846.45C445.312 871.054 465.25 891 489.844 891C514.438 891 534.375 871.054 534.375 846.45V638.55C534.375 613.946 514.438 594 489.844 594C465.25 594 445.312 613.946 445.312 638.55V697.95Z" fill="#D0FFFF"/>
</svg>
