<svg width="1000" height="1000" viewBox="0 0 1000 1000" fill="none" xmlns="http://www.w3.org/2000/svg">
<path d="M54.2858 275.5C96.7352 192.662 161.856 123.026 242.369 74.3735C322.882 25.7213 415.616 -0.0291784 510.204 2.48116e-05C647.704 2.48116e-05 763.214 49.5 851.531 130.25L705.255 273.65C652.347 224.1 585.102 198.85 510.204 198.85C377.296 198.85 264.796 286.85 224.745 405C214.541 435 208.725 467 208.725 500C208.725 533 214.541 565 224.745 595C264.847 713.2 377.296 801.15 510.204 801.15C578.827 801.15 637.245 783.4 682.959 753.4C709.461 736.3 732.15 714.111 749.653 688.175C767.157 662.238 779.112 633.093 784.796 602.5H510.204V409.1H990.714C996.735 441.8 1000 475.9 1000 511.35C1000 663.65 944.388 791.85 847.857 878.85C763.469 955.25 647.959 1000 510.204 1000C443.196 1000.03 376.839 987.111 314.926 961.993C253.013 936.875 196.758 900.046 149.376 853.612C101.993 807.177 64.413 752.047 38.7824 691.373C13.1517 630.698 -0.0267786 565.668 4.08528e-05 500C4.08528e-05 419.3 19.6939 343 54.2858 275.5Z" fill="#D0FFFF"/>
</svg>
