<svg width="960" height="1040" viewBox="0 0 960 1040" fill="none" xmlns="http://www.w3.org/2000/svg">
<path d="M402.667 28.2469C424.308 10.0048 451.698 0 480 0C508.302 0 535.692 10.0048 557.333 28.2469L917.333 332.034C944.427 354.812 960 388.364 960 423.784V946.65C960 971.408 950.167 995.152 932.663 1012.66C915.16 1030.16 891.42 1040 866.667 1040H706.667C681.913 1040 658.173 1030.16 640.67 1012.66C623.167 995.152 613.333 971.408 613.333 946.65V679.936C613.333 669.326 609.119 659.15 601.618 651.647C594.116 644.144 583.942 639.929 573.333 639.929H386.667C376.058 639.929 365.884 644.144 358.382 651.647C350.881 659.15 346.667 669.326 346.667 679.936V946.65C346.667 971.408 336.833 995.152 319.33 1012.66C301.827 1030.16 278.087 1040 253.333 1040H93.3333C81.0766 1040 68.9399 1037.59 57.6162 1032.89C46.2925 1028.2 36.0035 1021.33 27.3367 1012.66C18.6699 1003.99 11.795 993.699 7.10458 982.374C2.41414 971.048 0 958.909 0 946.65V423.731C0 388.364 15.5733 354.812 42.6667 331.981L402.667 28.2469V28.2469Z" fill="#D0FFFF"/>
</svg>
