<svg width="1000" height="750" viewBox="0 0 1000 750" fill="none" xmlns="http://www.w3.org/2000/svg">
<path fill-rule="evenodd" clip-rule="evenodd" d="M0.858087 110.276C2.36719 97.4151 5.82856 85.1515 10.9378 73.7892C17.0692 60.1539 25.5737 47.8166 35.9254 37.3033C58.598 14.2766 90.1318 0 125 0H875C909.868 0 941.402 14.2766 964.074 37.3033C974.426 47.8166 982.931 60.1539 989.062 73.7892C994.171 85.1515 997.633 97.4151 999.142 110.276C999.503 113.349 999.752 116.457 999.885 119.594C999.961 121.387 1000 123.189 1000 125V625C1000 694.035 944.036 750 875 750H125C55.9644 750 0 694.036 0 625V125C0 123.189 0.0385201 121.387 0.114786 119.594C0.248284 116.457 0.497436 113.349 0.858087 110.276ZM906.25 227.673V625C906.25 642.259 892.259 656.25 875 656.25H125C107.741 656.25 93.75 642.259 93.75 625V227.673L417.334 601.17C460.948 651.511 539.052 651.511 582.666 601.17L906.25 227.673ZM893.183 99.5817L511.809 539.782C505.579 546.974 494.421 546.974 488.191 539.782L106.817 99.5817C111.939 95.9109 118.217 93.75 125 93.75H875C881.783 93.75 888.061 95.9109 893.183 99.5817Z" fill="#D0FFFF"/>
</svg>
