<svg width="22" height="18" viewBox="0 0 22 18" fill="none" xmlns="http://www.w3.org/2000/svg">
<path fill-rule="evenodd" clip-rule="evenodd" d="M0.0188779 3.17607C0.0520782 2.89313 0.128228 2.62333 0.240632 2.37336C0.375522 2.07339 0.562621 1.80196 0.790358 1.57067C1.28916 1.06409 1.9829 0.75 2.75 0.75H19.25C20.0171 0.75 20.7108 1.06408 21.2096 1.57067C21.4374 1.80196 21.6245 2.07339 21.7594 2.37336C21.8718 2.62333 21.9479 2.89313 21.9811 3.17606C21.9891 3.24368 21.9945 3.31205 21.9975 3.38107C21.9992 3.42051 22 3.46015 22 3.5V14.5C22 16.0188 20.7688 17.25 19.25 17.25H2.75C1.23122 17.25 0 16.0188 0 14.5V3.5C0 3.46015 0.000847442 3.42051 0.00252529 3.38107C0.00546225 3.31205 0.0109436 3.24368 0.0188779 3.17607ZM19.9375 5.7588V14.5C19.9375 14.8797 19.6297 15.1875 19.25 15.1875H2.75C2.3703 15.1875 2.0625 14.8797 2.0625 14.5V5.7588L9.18135 13.9757C10.1409 15.0833 11.8591 15.0833 12.8187 13.9757L19.9375 5.7588ZM19.65 2.9408L11.2598 12.6252C11.1227 12.7834 10.8773 12.7834 10.7402 12.6252L2.34997 2.9408C2.46267 2.86004 2.60078 2.8125 2.75 2.8125H19.25C19.3992 2.8125 19.5373 2.86004 19.65 2.9408Z" fill="#D0FFFF"/>
</svg>
