<svg width="2538" height="960" viewBox="0 0 2538 960" fill="none" xmlns="http://www.w3.org/2000/svg">
<path d="M97.1304 891.429C81.0333 891.429 67.4975 885.943 56.5224 874.972C46.279 864 41.1572 850.471 41.1572 834.378V91.6117C41.1572 74.7891 46.279 61.2574 56.5224 51.0174C67.4975 40.046 81.0333 34.5603 97.1304 34.5603C114.691 34.5603 129.324 41.5088 141.031 55.406L619.547 691.749V91.6117C619.547 74.7891 625.034 61.2574 636.01 51.0174C646.985 40.046 660.52 34.5603 676.618 34.5603C693.444 34.5603 706.984 40.046 717.226 51.0174C727.467 61.2574 732.591 74.7891 732.591 91.6117V834.378C732.591 850.471 727.467 864 717.226 874.972C706.984 885.943 693.444 891.429 676.618 891.429C669.301 891.429 661.252 889.968 652.472 887.04C644.424 883.386 637.839 878.263 632.717 871.68L154.201 235.337V834.378C154.201 850.471 148.714 864 137.738 874.972C127.495 885.943 113.959 891.429 97.1304 891.429ZM1336.31 902.4C1277.05 902.4 1221.44 891.429 1169.49 869.486C1118.27 846.81 1073.27 815.726 1034.5 776.229C996.447 735.998 966.45 689.191 944.5 635.795C923.277 582.4 912.672 524.618 912.672 462.446C912.672 401.006 923.277 343.955 944.5 291.292C966.45 237.897 996.447 191.452 1034.5 151.955C1073.27 111.726 1118.27 80.2748 1169.49 57.6002C1220.7 34.926 1276.31 23.5889 1336.31 23.5889C1392.65 23.5889 1440.94 30.9031 1481.18 45.5317C1522.16 60.1603 1563.13 84.2972 1604.11 117.943C1609.96 122.332 1614.35 127.086 1617.28 132.206C1620.93 136.595 1623.13 141.349 1623.86 146.469C1625.32 150.857 1626.06 156.343 1626.06 162.926C1626.06 176.823 1620.93 188.526 1610.69 198.035C1601.18 207.543 1589.1 212.663 1574.47 213.395C1560.57 214.126 1547.4 209.372 1534.96 199.132C1507.89 175.726 1479.72 157.806 1450.45 145.372C1421.92 132.938 1383.87 126.72 1336.31 126.72C1293.14 126.72 1252.53 135.497 1214.49 153.052C1176.44 170.606 1142.78 194.743 1113.52 225.463C1084.98 256.183 1062.66 292.023 1046.57 332.983C1030.47 373.212 1022.42 416.366 1022.42 462.446C1022.42 509.258 1030.47 553.143 1046.57 594.103C1062.66 634.332 1084.98 669.806 1113.52 700.526C1142.78 731.246 1176.44 755.383 1214.49 772.938C1252.53 789.758 1293.14 798.172 1336.31 798.172C1373.63 798.172 1408.75 791.952 1441.67 779.52C1475.33 766.355 1507.52 748.437 1538.25 725.76C1551.43 716.249 1564.22 712.231 1576.67 713.692C1589.84 714.426 1600.81 719.541 1609.59 729.052C1618.37 737.829 1622.76 750.261 1622.76 766.355C1622.76 773.671 1621.3 780.981 1618.37 788.298C1616.18 794.88 1611.79 801.1 1605.2 806.949C1566.42 839.129 1524.35 863.267 1478.99 879.36C1433.62 894.72 1386.06 902.4 1336.31 902.4ZM1622.76 766.355L1513.01 744.412V548.023H1361.56C1345.46 548.023 1331.92 543.269 1320.95 533.76C1309.97 524.252 1304.48 512.183 1304.48 497.555C1304.48 482.926 1309.97 470.858 1320.95 461.349C1331.92 451.84 1345.46 447.086 1361.56 447.086H1566.79C1583.62 447.086 1597.15 452.572 1607.4 463.543C1617.64 473.783 1622.76 487.315 1622.76 504.138V766.355ZM1861.3 891.429C1845.2 891.429 1831.67 885.943 1820.69 874.972C1810.45 864 1805.33 850.471 1805.33 834.378V91.6117C1805.33 74.7891 1810.45 61.2574 1820.69 51.0174C1831.67 40.046 1845.2 34.5603 1861.3 34.5603C1878.86 34.5603 1893.49 41.5088 1905.2 55.406L2383.72 691.749V91.6117C2383.72 74.7891 2389.21 61.2574 2400.18 51.0174C2411.16 40.046 2424.69 34.5603 2440.79 34.5603C2457.61 34.5603 2471.15 40.046 2481.4 51.0174C2491.64 61.2574 2496.76 74.7891 2496.76 91.6117V834.378C2496.76 850.471 2491.64 864 2481.4 874.972C2471.15 885.943 2457.61 891.429 2440.79 891.429C2433.47 891.429 2425.42 889.968 2416.64 887.04C2408.59 883.386 2402 878.263 2396.89 871.68L1918.37 235.337V834.378C1918.37 850.471 1912.88 864 1901.91 874.972C1891.66 885.943 1878.13 891.429 1861.3 891.429Z" fill="#D0FFFF"/>
</svg>
