<svg width="879" height="879" viewBox="0 0 879 879" fill="none" xmlns="http://www.w3.org/2000/svg">
<path d="M155.143 315.354L109.499 612.083H41.2031C18.4473 612.083 0 630.095 0 652.314C0 674.533 18.4473 692.545 41.2031 692.545H837.797C860.553 692.545 879 674.533 879 652.314C879 630.095 860.553 612.083 837.797 612.083H769.125L723.875 315.354C714.598 204.009 642.26 112.009 543.761 73.3141C529.208 30.7122 488.031 0 439.508 0C390.984 0 349.806 30.7128 335.254 73.3154C236.757 112.011 164.42 204.011 155.143 315.354Z" fill="#D0FFFF"/>
<path d="M549.383 745.818H329.633V771.717C329.633 830.968 378.825 879 439.508 879C500.19 879 549.383 830.968 549.383 771.717V745.818Z" fill="#D0FFFF"/>
</svg>
