<svg width="1000" height="750" viewBox="0 0 1000 750" fill="none" xmlns="http://www.w3.org/2000/svg">
<path fill-rule="evenodd" clip-rule="evenodd" d="M903.498 372.336C903.909 373.308 904.27 374.196 904.586 375C904.27 375.805 903.909 376.692 903.498 377.664C899.494 387.129 892.561 400.314 882.105 416.4C861.24 448.498 829.725 486.963 789.889 523.816C708.466 599.141 605.21 656.25 500 656.25C394.79 656.25 291.534 599.141 210.111 523.816C170.275 486.963 138.76 448.498 117.895 416.4C107.439 400.314 100.506 387.129 96.5024 377.664C96.0912 376.692 95.7302 375.805 95.4138 375C95.7302 374.195 96.0912 373.308 96.5024 372.336C100.506 362.871 107.439 349.686 117.895 333.6C138.76 301.502 170.275 263.037 210.111 226.184C291.534 150.859 394.79 93.75 500 93.75C605.21 93.75 708.466 150.859 789.889 226.184C829.725 263.037 861.24 301.502 882.105 333.6C892.561 349.686 899.494 362.871 903.498 372.336ZM1000 375C1000 455.357 776.142 750 500 750C223.858 750 0 455.357 0 375C0 294.643 223.858 0 500 0C776.142 0 1000 294.643 1000 375ZM500 531.25C586.294 531.25 656.25 461.295 656.25 375C656.25 288.705 586.294 218.75 500 218.75C413.705 218.75 343.75 288.705 343.75 375C343.75 461.295 413.705 531.25 500 531.25Z" fill="#D0FFFF"/>
</svg>
