<svg width="1000" height="1250" viewBox="0 0 1000 1250" fill="none" xmlns="http://www.w3.org/2000/svg">
<path fill-rule="evenodd" clip-rule="evenodd" d="M312.5 293.982C312.5 202.062 391.161 125 500 125C608.839 125 687.5 202.062 687.5 293.982V500H312.5V293.982ZM187.5 500V293.982C187.5 122.908 332.697 0 500 0C667.303 0 812.5 122.908 812.5 293.982V500H833.333C925.381 500 1000 574.619 1000 666.667V1083.33C1000 1175.38 925.381 1250 833.333 1250H166.667C74.6192 1250 0 1175.38 0 1083.33V666.667C0 574.619 74.6192 500 166.667 500H187.5ZM125 666.667C125 643.655 143.655 625 166.667 625H833.333C856.345 625 875 643.655 875 666.667V1083.33C875 1106.35 856.345 1125 833.333 1125H166.667C143.655 1125 125 1106.35 125 1083.33V666.667Z" fill="#D0FFFF"/>
</svg>
