<svg width="960" height="960" viewBox="0 0 960 960" fill="none" xmlns="http://www.w3.org/2000/svg">
<path d="M9.55523 131.899C-14.4625 204.034 -14.4628 396.393 273.749 684.934C561.961 973.474 746.685 975.949 826.155 949.429C868.787 935.202 914.062 873.962 946.875 820.243C975.689 773.073 954.912 713.318 905.514 688.591L739.421 605.45C718.647 595.051 694.006 595.998 674.09 607.962L593.148 656.582C588.387 659.442 583.458 662.786 577.926 662.297C562.578 660.941 520.945 643.871 417.855 540.663C314.769 437.46 297.716 395.778 296.361 380.412C295.872 374.873 299.212 369.938 302.07 365.169L350.634 284.137C362.583 264.198 363.53 239.529 353.143 218.731L271.284 54.8279C246.117 4.435 184.801 -16.0284 137.164 13.9702C83.2734 47.9077 22.3939 93.3385 9.55523 131.899Z" fill="#D0FFFF"/>
</svg>
