<svg width="960" height="960" viewBox="0 0 960 960" fill="none" xmlns="http://www.w3.org/2000/svg">
<path d="M475.904 0C743.263 0 960 214.903 960 480C960 540 866.084 540 866.084 480C866.084 266.333 691.394 93.1217 475.904 93.1217C379.871 93.1217 288.957 128.257 220.954 185.315C215.939 189.523 205.846 200.349 199.375 207.291C196.863 209.985 194.897 212.094 193.984 213.004H279.927C305.873 213.004 326.907 233.86 326.907 259.587C326.907 285.313 305.873 306.169 279.927 306.169H88.559C62.6128 306.169 41.5793 285.313 41.5793 259.587V54.7964C41.5793 29.0697 62.6128 8.21411 88.559 8.21411C114.505 8.21411 135.539 29.0697 135.539 54.7964V139.21C137.578 137.204 154.545 120.998 156.804 119.033C242.003 44.9256 353.662 0 475.904 0Z" fill="#D0FFFF"/>
<path d="M484.096 960C216.737 960 0 745.097 0 480C0 420 93.9163 420 93.9163 480C93.9163 693.667 268.606 866.878 484.096 866.878C580.129 866.878 671.043 831.743 739.046 774.685C744.061 770.477 754.153 759.652 760.625 752.71C763.136 750.016 765.103 747.906 766.016 746.996H680.073C654.127 746.996 633.093 726.14 633.093 700.414C633.093 674.687 654.127 653.831 680.073 653.831H871.441C897.387 653.831 918.421 674.687 918.421 700.413V905.204C918.421 930.93 897.387 951.786 871.441 951.786C845.495 951.786 824.461 930.93 824.461 905.204V820.79C822.422 822.796 805.455 839.002 803.196 840.967C717.997 915.074 606.338 960 484.096 960Z" fill="#D0FFFF"/>
</svg>
