<svg width="960" height="960" viewBox="0 0 960 960" fill="none" xmlns="http://www.w3.org/2000/svg">
<path fill-rule="evenodd" clip-rule="evenodd" d="M408.752 0C182.786 0 0 184.544 0 411.7C0 638.856 182.786 823.4 408.752 823.4C495.441 823.4 575.867 796.19 642.001 749.831L827.883 937.157C858.106 967.614 907.205 967.615 937.428 937.156C967.524 906.827 967.524 857.749 937.428 827.419L749.949 638.485C792.649 573.434 817.505 495.448 817.505 411.7C817.505 184.544 634.719 0 408.752 0ZM154.688 411.7C154.688 269.944 268.655 155.425 408.752 155.425C548.849 155.425 662.817 269.944 662.817 411.7C662.817 553.457 548.849 667.975 408.752 667.975C268.655 667.975 154.688 553.457 154.688 411.7Z" fill="#D0FFFF"/>
</svg>
