<svg width="960" height="734" viewBox="0 0 960 734" fill="none" xmlns="http://www.w3.org/2000/svg">
<path d="M925.714 0H34.2857C15.3214 0 0 14.9094 0 33.3636V700.636C0 719.091 15.3214 734 34.2857 734H925.714C944.679 734 960 719.091 960 700.636V33.3636C960 14.9094 944.679 0 925.714 0ZM826.821 202.684L508.607 512.549C506.996 514.101 504.821 514.972 502.554 514.972C500.286 514.972 498.111 514.101 496.5 512.549L373.821 393.17L189 573.125C187.389 574.677 185.214 575.548 182.946 575.548C180.679 575.548 178.504 574.677 176.893 573.125L137.464 534.757C135.869 533.189 134.974 531.072 134.974 528.866C134.974 526.66 135.869 524.543 137.464 522.975L367.714 298.813C371.036 295.581 376.5 295.581 379.821 298.813L502.5 418.088L775.179 152.639C778.5 149.407 783.964 149.407 787.286 152.639L826.714 191.007C830.143 194.135 830.143 199.452 826.821 202.684Z" fill="#D0FFFF"/>
</svg>
