<svg width="1000" height="750" viewBox="0 0 1000 750" fill="none" xmlns="http://www.w3.org/2000/svg">
<path fill-rule="evenodd" clip-rule="evenodd" d="M930.896 12.5123C912.59 -4.17077 882.91 -4.17075 864.604 12.5123L135.401 677.073C117.095 693.756 117.095 720.805 135.401 737.488C153.706 754.171 183.386 754.171 201.692 737.488L303.749 644.478C364.002 670.244 430.337 686.556 500 686.556C776.142 686.556 1000 430.238 1000 344.799C1000 302.218 944.399 217.195 854.434 142.61L930.896 72.9269C949.202 56.2439 949.202 29.1953 930.896 12.5123ZM788.058 203.103L668.183 312.351C670.602 322.82 671.875 333.674 671.875 344.799C671.875 431.308 594.924 501.438 500 501.438C487.793 501.438 475.883 500.278 464.396 498.072L375.24 579.324C415.497 593.136 457.506 601.117 500 601.117C606.575 601.117 710.096 550.921 790.585 484.419C830.128 451.747 861.223 417.422 881.734 388.201C898.68 364.061 903.936 349.83 905.549 345.464L905.796 344.799L905.549 344.134C903.936 339.768 898.68 325.537 881.734 301.397C861.223 272.176 830.128 237.851 790.585 205.179C789.745 204.485 788.903 203.793 788.058 203.103ZM500 3.04227C581.487 3.04227 658.42 25.3617 726.392 59.0236L656.666 122.569C606.943 101.302 553.861 88.4814 500 88.4814C393.425 88.4814 289.904 138.677 209.415 205.179C169.872 237.851 138.777 272.176 118.266 301.397C101.32 325.537 96.0638 339.768 94.4513 344.134L94.2041 344.799L94.4513 345.464C96.0638 349.83 101.32 364.061 118.266 388.201C138.777 417.422 169.872 451.747 209.415 484.419C218.173 491.655 227.204 498.698 236.482 505.505L169.861 566.219C65.7171 487.548 0 391.091 0 344.799C0 259.36 223.858 3.04227 500 3.04227ZM500 188.16C524.886 188.16 548.537 192.981 569.89 201.653L342.929 408.493C333.414 389.033 328.125 367.479 328.125 344.799C328.125 258.29 405.076 188.16 500 188.16Z" fill="#D0FFFF"/>
</svg>
