<svg width="808" height="960" viewBox="0 0 808 960" fill="none" xmlns="http://www.w3.org/2000/svg">
<path fill-rule="evenodd" clip-rule="evenodd" d="M404 0C417.393 -5.85751e-07 430.238 5.3233 439.709 14.7988L641.709 216.904C661.43 236.636 661.43 268.627 641.709 288.359C621.987 308.091 590.013 308.091 570.291 288.359L454.5 172.508L454.5 707.368C454.5 735.273 431.89 757.895 404 757.895C376.11 757.895 353.5 735.273 353.5 707.368L353.5 172.508L237.709 288.359C217.987 308.091 186.013 308.091 166.291 288.359C146.57 268.627 146.57 236.636 166.291 216.904L368.291 14.7988C377.762 5.3233 390.607 5.85751e-07 404 0Z" fill="#D0FFFF"/>
<path d="M50.5 960C22.6096 960 1.21913e-06 937.379 0 909.474C-1.21913e-06 881.569 22.6096 858.947 50.5 858.947H757.5C785.39 858.947 808 881.569 808 909.474C808 937.379 785.39 960 757.5 960H50.5Z" fill="#D0FFFF"/>
</svg>
