<svg width="960" height="791" viewBox="0 0 960 791" fill="none" xmlns="http://www.w3.org/2000/svg">
<path fill-rule="evenodd" clip-rule="evenodd" d="M883.692 226.042C881.069 225.881 878.214 225.882 875.258 225.882L874.518 225.883H758.461C662.799 225.883 580.946 299.41 580.946 395.294C580.946 491.177 662.799 564.706 758.461 564.706H874.518H875.258C878.214 564.706 881.069 564.711 883.692 564.548C922.55 562.149 956.911 532.459 959.803 490.987C959.993 488.267 959.988 485.335 959.988 482.62V481.884V308.706V307.969C959.988 305.252 959.993 302.321 959.803 299.601C956.911 258.13 922.55 228.438 883.692 226.042ZM748.172 440.471C772.799 440.471 792.762 420.245 792.762 395.294C792.762 370.343 772.799 350.118 748.172 350.118C723.545 350.118 703.577 370.343 703.577 395.294C703.577 420.245 723.545 440.471 748.172 440.471Z" fill="#3A506B"/>
<path fill-rule="evenodd" clip-rule="evenodd" d="M875.241 632.471C882.139 632.294 887.363 638.533 885.489 645.021C876.203 677.204 861.459 704.64 837.808 727.739C803.183 761.544 759.277 776.547 705.036 783.672C652.331 790.588 584.987 790.588 499.961 790.588H402.211C317.187 790.588 249.841 790.588 197.135 783.672C142.893 776.547 98.9896 761.544 64.3661 727.739C29.743 693.929 14.3774 651.056 7.08508 598.091C-0.00136433 546.626 -0.000904339 480.867 2.09654e-05 397.842V392.746C-0.000904339 309.722 -0.00136433 243.962 7.08508 192.496C14.3774 139.53 29.743 96.6601 64.3661 62.8513C98.9896 29.0431 142.893 14.0391 197.135 6.91835C249.841 -0.00133223 317.186 -0.000883057 402.211 2.0472e-05H499.961C584.987 -0.000883057 652.331 -0.00133223 705.036 6.91835C759.277 14.0391 803.183 29.0431 837.808 62.8513C861.459 85.9492 876.199 113.381 885.489 145.567C887.363 152.053 882.139 158.293 875.241 158.118L758.472 158.118C627.236 158.118 511.559 259.354 511.559 395.294C511.559 531.235 627.236 632.471 758.472 632.471H875.241ZM173.495 180.706C154.331 180.706 138.796 195.876 138.796 214.588C138.796 233.301 154.331 248.471 173.495 248.471H358.556C377.719 248.471 393.255 233.301 393.255 214.588C393.255 195.876 377.719 180.706 358.556 180.706H173.495Z" fill="#3A506B"/>
</svg>
