<svg width="32" height="33" viewBox="0 0 32 33" fill="none" xmlns="http://www.w3.org/2000/svg">
<path fill-rule="evenodd" clip-rule="evenodd" d="M0.669484 1.16947C1.56211 0.276844 3.00934 0.276843 3.90197 1.16947L16 13.2675L28.098 1.16947C28.9907 0.276841 30.4379 0.276845 31.3305 1.16947C32.2232 2.06209 32.2232 3.50933 31.3305 4.40195L19.2325 16.5L31.3305 28.598C32.2231 29.4907 32.2231 30.9379 31.3305 31.8305C30.4379 32.7232 28.9907 32.7232 28.098 31.8305L16 19.7325L3.90195 31.8305C3.00933 32.7232 1.5621 32.7232 0.66947 31.8305C-0.223156 30.9379 -0.223157 29.4907 0.669469 28.598L12.7675 16.5L0.669484 4.40196C-0.223142 3.50933 -0.223142 2.0621 0.669484 1.16947Z" fill="#D0FFFF"/>
</svg>
